<svg height="512pt" viewBox="0 -94 512 512" width="512pt" xmlns="http://www.w3.org/2000/svg"><path d="m196.265625 221.875c0 51.84375-42.023437 93.867188-93.867187 93.867188-51.839844 0-93.863282-42.023438-93.863282-93.867188 0-51.839844 42.023438-93.863281 93.863282-93.863281 51.84375 0 93.867187 42.023437 93.867187 93.863281zm0 0" fill="#7383bf"/><path d="m503.464844 221.875c0 51.84375-42.023438 93.867188-93.863282 93.867188-51.84375 0-93.867187-42.023438-93.867187-93.867188 0-51.839844 42.023437-93.863281 93.867187-93.863281 51.839844 0 93.863282 42.023437 93.863282 93.863281zm0 0" fill="#7383bf"/><g fill="#4d007e"><path d="m102.398438 324.277344c-56.464844 0-102.398438-45.933594-102.398438-102.402344 0-56.464844 45.933594-102.398438 102.398438-102.398438 56.464843 0 102.402343 45.933594 102.402343 102.398438 0 56.46875-45.9375 102.402344-102.402343 102.402344zm0-187.734375c-47.050782 0-85.332032 38.28125-85.332032 85.332031 0 47.054688 38.28125 85.335938 85.332032 85.335938 47.054687 0 85.335937-38.28125 85.335937-85.335938 0-47.050781-38.28125-85.332031-85.335937-85.332031zm0 0"/><path d="m409.601562 324.277344c-56.464843 0-102.402343-45.933594-102.402343-102.402344 0-56.464844 45.9375-102.398438 102.402343-102.398438 56.464844 0 102.398438 45.933594 102.398438 102.398438 0 56.46875-45.933594 102.402344-102.398438 102.402344zm0-187.734375c-47.054687 0-85.335937 38.28125-85.335937 85.332031 0 47.054688 38.28125 85.335938 85.335937 85.335938 47.050782 0 85.332032-38.28125 85.332032-85.335938 0-47.050781-38.28125-85.332031-85.332032-85.332031zm0 0"/><path d="m247.464844 230.410156h-153.597656c-3.019532 0-5.820313-1.605468-7.355469-4.207031-1.535157-2.609375-1.570313-5.828125-.101563-8.472656l85.332032-153.601563c1.5-2.703125 4.359374-4.386718 7.457031-4.386718h162.132812c3.089844 0 5.933594 1.664062 7.441407 4.363281 1.511718 2.6875 1.453124 5.988281-.160157 8.625l-93.867187 153.601562c-1.546875 2.535157-4.308594 4.078125-7.28125 4.078125zm-139.101563-17.066406h134.316407l83.4375-136.535156h-141.898438zm0 0"/><path d="m247.464844 230.410156h-153.597656c-3.019532 0-5.820313-1.605468-7.355469-4.207031-1.535157-2.609375-1.570313-5.828125-.101563-8.472656l85.332032-153.601563c1.570312-2.832031 4.640624-4.496094 7.84375-4.375 3.230468.144532 6.097656 2.105469 7.414062 5.058594l68.265625 153.601562c1.167969 2.644532.929687 5.691407-.640625 8.113282-1.578125 2.414062-4.265625 3.882812-7.160156 3.882812zm-139.101563-17.066406h125.96875l-55.984375-125.96875zm0 0"/><path d="m409.601562 230.410156c-3.285156 0-6.410156-1.902344-7.816406-5.101562l-93.867187-213.335938c-1.894531-4.308594.058593-9.351562 4.367187-11.246094 4.320313-1.902343 9.351563.058594 11.246094 4.378907l93.867188 213.332031c1.894531 4.308594-.058594 9.351562-4.367188 11.246094-1.109375.496094-2.277344.726562-3.429688.726562zm0 0"/><path d="m401.066406 51.210938h-25.601562c-4.707032 0-8.53125-3.824219-8.53125-8.535157 0-4.710937 3.824218-8.53125 8.53125-8.53125h25.601562c4.710938 0 8.535156-3.832031 8.535156-8.535156 0-4.699219-3.824218-8.53125-8.535156-8.53125h-85.332031c-4.710937 0-8.535156-3.824219-8.535156-8.535156 0-4.710938 3.824219-8.5312502 8.535156-8.5312502h85.332031c14.113282 0 25.601563 11.4843752 25.601563 25.5976562s-11.488281 25.601563-25.601563 25.601563zm0 0"/><path d="m179.207031 76.808594c-3.128906 0-6.140625-1.722656-7.636719-4.71875l-25.597656-51.199219c-2.109375-4.214844-.402344-9.34375 3.8125-11.453125 4.207032-2.105469 9.335938-.40625 11.453125 3.816406l25.597657 51.199219c2.109374 4.214844.402343 9.34375-3.8125 11.453125-1.230469.613281-2.535157.902344-3.816407.902344zm0 0"/><path d="m187.734375 25.609375h-59.734375c-4.710938 0-8.535156-3.820313-8.535156-8.53125s3.824218-8.535156 8.535156-8.535156h59.734375c4.710937 0 8.53125 3.824219 8.53125 8.535156s-3.820313 8.53125-8.53125 8.53125zm0 0"/><path d="m409.601562 290.144531c-37.640624 0-68.269531-30.628906-68.269531-68.269531 0-4.707031 3.824219-8.53125 8.535157-8.53125 4.710937 0 8.53125 3.824219 8.53125 8.53125 0 28.238281 22.972656 51.203125 51.203124 51.203125 28.226563 0 51.199219-22.964844 51.199219-51.203125 0-4.707031 3.820313-8.53125 8.53125-8.53125 4.710938 0 8.535157 3.824219 8.535157 8.53125 0 37.640625-30.625 68.269531-68.265626 68.269531zm0 0"/><path d="m43.714844 231.09375c-4.597656 0-8.386719-3.652344-8.523438-8.277344-.792968-26.445312 13.234375-50.183594 36.597656-61.980468 4.199219-2.121094 9.335938-.433594 11.460938 3.78125 2.125 4.207031.4375 9.335937-3.777344 11.460937-17.382812 8.765625-27.820312 26.480469-27.230468 46.226563.144531 4.710937-3.558594 8.644531-8.269532 8.78125-.078125.007812-.171875.007812-.257812.007812zm0 0"/><path d="m102.347656 290.144531c-22.75 0-43.585937-11.324219-55.765625-30.292969-2.542969-3.96875-1.390625-9.242187 2.578125-11.792968 3.96875-2.527344 9.242188-1.402344 11.792969 2.574218 9.019531 14.054688 24.5 22.445313 41.402344 22.445313h.054687c4.707032 0 8.53125 3.8125 8.53125 8.523437-.007812 4.726563-3.890625 8.890626-8.59375 8.542969zm0 0"/></g></svg>