<?xml version="1.0" encoding="iso-8859-1"?>
<!-- Generator: Adobe Illustrator 19.0.0, SVG Export Plug-In . SVG Version: 6.00 Build 0)  -->
<svg version="1.1" id="Capa_1" xmlns="http://www.w3.org/2000/svg" xmlns:xlink="http://www.w3.org/1999/xlink" x="0px" y="0px"
	 viewBox="0 0 512 512" style="enable-background:new 0 0 512 512;" xml:space="preserve">
<path style="fill:#F2ECBF;" d="M440.149,460.8h-22.016l0,0H384l0,0H51.2v32.486c0,5.623,4.557,10.18,10.18,10.18H384h34.133h22.69
	c11.034,0,19.977-8.943,19.977-19.968v-43.349C460.8,451.558,451.558,460.8,440.149,460.8z"/>
<path style="fill:#DD352E;" d="M440.158,8.567H60.015c-4.727,0-8.559,3.831-8.559,8.567v85.231v256.077v110.891h388.702
	c11.401,0,20.642-9.242,20.642-20.651V29.218C460.8,17.809,451.558,8.567,440.158,8.567z"/>
<path style="fill:#B02721;" d="M119.467,8.533H59.767c-4.736,0-8.567,3.831-8.567,8.567v452.233h68.267V8.533z"/>
<rect x="187.989" y="85.333" style="fill:#F7E6A1;" width="204.8" height="128"/>
<g>
	<path style="fill:#4D007E;" d="M392.789,221.867h-204.8c-4.71,0-8.533-3.814-8.533-8.533v-128c0-4.719,3.823-8.533,8.533-8.533
		h204.8c4.71,0,8.533,3.814,8.533,8.533v128C401.323,218.052,397.5,221.867,392.789,221.867z M196.523,204.8h187.733V93.867H196.523
		L196.523,204.8L196.523,204.8z"/>
	<path style="fill:#4D007E;" d="M324.523,136.533h-68.267c-4.71,0-8.533-3.814-8.533-8.533c0-4.719,3.823-8.533,8.533-8.533h68.267
		c4.71,0,8.533,3.814,8.533,8.533C333.056,132.719,329.233,136.533,324.523,136.533z"/>
	<path style="fill:#4D007E;" d="M350.123,179.2H230.656c-4.71,0-8.533-3.814-8.533-8.533c0-4.719,3.823-8.533,8.533-8.533h119.467
		c4.71,0,8.533,3.814,8.533,8.533C358.656,175.386,354.833,179.2,350.123,179.2z"/>
	<path style="fill:#4D007E;" d="M440.158,477.867H51.456c-4.71,0-8.533-3.814-8.533-8.533V17.135
		c0-9.421,7.671-17.101,17.092-17.101h380.143c16.085,0,29.175,13.09,29.175,29.184v419.465
		C469.333,464.777,456.243,477.867,440.158,477.867z M59.989,460.8h380.169c6.682,0,12.109-5.436,12.109-12.117V29.218
		c0-6.682-5.427-12.117-12.109-12.117H60.015L59.989,460.8z"/>
	<path style="fill:#4D007E;" d="M440.823,512H61.38c-10.317,0-18.714-8.397-18.714-18.714v-23.953c0-4.719,3.823-8.533,8.533-8.533
		h388.949c6.682,0,12.117-5.436,12.117-12.117c0-4.719,3.823-8.533,8.533-8.533s8.533,3.814,8.533,8.533v34.816
		C469.333,499.217,456.542,512,440.823,512z M59.733,477.867v15.42c0,0.905,0.742,1.647,1.647,1.647h379.443
		c6.315,0,11.443-5.129,11.443-11.435v-8.269c-3.695,1.698-7.799,2.637-12.117,2.637H59.733z"/>
	<path style="fill:#4D007E;" d="M119.467,477.867H51.2c-4.71,0-8.533-3.814-8.533-8.533V17.101C42.667,7.671,50.338,0,59.767,0
		h59.699C124.177,0,128,3.814,128,8.533v460.8C128,474.052,124.177,477.867,119.467,477.867z M59.733,460.8h51.2V17.067H59.767
		L59.733,460.8z"/>
</g>
<g>
</g>
<g>
</g>
<g>
</g>
<g>
</g>
<g>
</g>
<g>
</g>
<g>
</g>
<g>
</g>
<g>
</g>
<g>
</g>
<g>
</g>
<g>
</g>
<g>
</g>
<g>
</g>
<g>
</g>
</svg>
