<?xml version="1.0" encoding="iso-8859-1"?>
<!-- Generator: Adobe Illustrator 19.0.0, SVG Export Plug-In . SVG Version: 6.00 Build 0)  -->
<svg version="1.1" id="Capa_1" xmlns="http://www.w3.org/2000/svg" xmlns:xlink="http://www.w3.org/1999/xlink" x="0px" y="0px"
	 viewBox="0 0 512 512" style="enable-background:new 0 0 512 512;" xml:space="preserve">
<path style="fill:#ED8A19;" d="M469.333,256c-6.477,0-12.467,1.903-17.63,5.035l0,0c-7.953-11.486-20.48-19.524-34.953-21.555l0,0
	c0.811-2.901,1.382-5.914,1.382-9.079c0-18.85-15.283-34.133-34.133-34.133c-15.206,0-27.938,10.01-32.35,23.748
	c-8.209-4.241-17.502-6.682-27.383-6.682c-24.482,0-45.5,14.746-54.724,35.823c-8.542-6.391-19.115-10.223-30.609-10.223
	c-17.818,0-33.493,9.114-42.667,22.921v56.559c1.374,2.074,2.927,4.011,4.582,5.854h76.169c2.236-2.5,4.181-5.257,5.905-8.149
	c-0.273-0.256-0.503-0.555-0.768-0.819c3.447,3.422,7.279,6.451,11.469,8.969h61.303c4.19-2.517,8.03-5.547,11.469-8.977
	c-0.265,0.264-0.503,0.563-0.777,0.819c1.724,2.901,3.661,5.658,5.897,8.149h76.169c1.425-1.596,2.628-3.379,3.849-5.137
	c0,0,0,0,0,0.009c5.197,3.2,11.255,5.137,17.801,5.137c18.85,0,34.133-15.283,34.133-34.133
	C503.467,271.283,488.184,256,469.333,256z"/>
<path style="fill:#DD352E;" d="M196.267,324.267v-102.4H99.908c-22.187,0-40.175,17.988-40.175,40.175v62.225H51.2
	c-23.586,0-42.667,19.081-42.667,42.667v59.733h45.645c7.04-19.874,25.941-34.133,48.222-34.133s41.19,14.259,48.222,34.133h45.645
	h165.111c7.04-19.874,25.941-34.133,48.222-34.133c22.281,0,41.19,14.259,48.222,34.133h45.645v-34.133v-68.267H196.267z"/>
<path style="fill:#28384C;" d="M102.4,503.467c-32.939,0-59.733-26.795-59.733-59.733S69.461,384,102.4,384
	s59.733,26.795,59.733,59.733S135.339,503.467,102.4,503.467z"/>
<path style="fill:#E7ECED;" d="M93.687,460.8h17.434c4.608,0,8.346-3.738,8.346-8.354v-17.434c0-4.608-3.738-8.346-8.354-8.346
	H93.679c-4.608,0-8.346,3.738-8.346,8.354v17.434C85.333,457.062,89.071,460.8,93.687,460.8z"/>
<path style="fill:#28384C;" d="M409.6,503.467c-32.939,0-59.733-26.795-59.733-59.733S376.661,384,409.6,384
	s59.733,26.795,59.733,59.733S442.539,503.467,409.6,503.467z"/>
<path style="fill:#E7ECED;" d="M400.887,460.8h17.434c4.608,0,8.346-3.738,8.346-8.354v-17.434c0-4.608-3.738-8.346-8.354-8.346
	h-17.434c-4.608,0-8.346,3.738-8.346,8.354v17.434C392.533,457.062,396.271,460.8,400.887,460.8z"/>
<path style="fill:#C6E2F7;" d="M145.067,324.267H59.733v-62.225c0-2.065,0.307-4.053,0.606-6.042h84.727V324.267z"/>
<g>
	<path style="fill:#EBBA16;" d="M42.667,392.533H8.533v-25.6c0-2.927,0.299-5.777,0.862-8.533h33.271V392.533z"/>
	<path style="fill:#EBBA16;" d="M264.533,273.067c0-8.508,1.801-16.58,5.009-23.91c-8.542-6.391-19.115-10.223-30.609-10.223
		c-17.818,0-33.493,9.114-42.667,22.921v56.559c1.374,2.074,2.927,4.011,4.582,5.854h76.169c2.236-2.5,4.181-5.257,5.905-8.149
		C271.607,305.246,264.533,289.997,264.533,273.067z"/>
</g>
<path style="fill:#DC691D;" d="M409.6,238.933c-11.494,0-22.067,3.831-30.609,10.223c3.209,7.33,5.009,15.403,5.009,23.91
	c0,16.93-7.074,32.179-18.389,43.051c1.724,2.901,3.661,5.658,5.897,8.149h76.169c8.141-9.062,13.124-21.001,13.124-34.133
	C460.8,261.854,437.879,238.933,409.6,238.933z"/>
<path style="fill:#ED8A19;" d="M293.615,324.267h61.303C372.318,313.83,384,294.835,384,273.067
	c0-32.99-26.743-59.733-59.733-59.733s-59.733,26.743-59.733,59.733C264.533,294.835,276.215,313.83,293.615,324.267z"/>
<path style="fill:#C5411E;" d="M469.333,256c-6.477,0-12.467,1.903-17.63,5.035c5.726,8.269,9.097,18.287,9.097,29.099
	c0,10.829-3.524,20.736-9.267,28.996c5.197,3.2,11.255,5.137,17.801,5.137c18.85,0,34.133-15.283,34.133-34.133
	C503.467,271.283,488.184,256,469.333,256z"/>
<path style="fill:#EBBA16;" d="M378.991,249.156c8.542-6.391,19.115-10.223,30.609-10.223c2.432,0,4.813,0.23,7.151,0.555
	c0.811-2.91,1.382-5.922,1.382-9.088c0-18.85-15.283-34.133-34.133-34.133c-15.206,0-27.938,10.01-32.35,23.748
	C363.785,226.295,373.487,236.587,378.991,249.156z"/>
<path style="fill:#AFB6BB;" d="M477.867,42.667c-3.26,0-6.349,0.666-9.216,1.775c-3.132-15.607-16.913-27.375-33.451-27.375
	s-30.319,11.767-33.451,27.375c-2.867-1.109-5.956-1.775-9.216-1.775c-14.14,0-25.6,11.46-25.6,25.6s11.46,25.6,25.6,25.6h85.333
	c14.14,0,25.6-11.46,25.6-25.6S492.006,42.667,477.867,42.667z"/>
<path style="fill:#C6E2F7;" d="M119.467,102.4c-3.26,0-6.349,0.666-9.216,1.775C107.119,88.567,93.338,76.8,76.8,76.8
	s-30.319,11.767-33.451,27.375c-2.867-1.109-5.956-1.775-9.216-1.775c-14.14,0-25.6,11.46-25.6,25.6c0,14.14,11.46,25.6,25.6,25.6
	h85.333c14.14,0,25.6-11.46,25.6-25.6C145.067,113.86,133.606,102.4,119.467,102.4z"/>
<g>
	<path style="fill:#4D007E;" d="M145.067,366.933h-25.6c-4.71,0-8.533-3.823-8.533-8.533s3.823-8.533,8.533-8.533h25.6
		c4.71,0,8.533,3.823,8.533,8.533S149.777,366.933,145.067,366.933z"/>
	<path style="fill:#4D007E;" d="M503.467,366.933h-307.2c-4.71,0-8.533-3.823-8.533-8.533s3.823-8.533,8.533-8.533h307.2
		c4.71,0,8.533,3.823,8.533,8.533S508.177,366.933,503.467,366.933z"/>
	<path style="fill:#4D007E;" d="M102.4,503.467c-32.939,0-59.733-26.795-59.733-59.733S69.461,384,102.4,384
		s59.733,26.795,59.733,59.733S135.339,503.467,102.4,503.467z M102.4,401.067c-23.526,0-42.667,19.14-42.667,42.667
		S78.874,486.4,102.4,486.4s42.667-19.14,42.667-42.667S125.926,401.067,102.4,401.067z"/>
	<path style="fill:#4D007E;" d="M111.113,469.333H93.679c-9.301,0-16.879-7.578-16.879-16.887v-17.434
		c0-9.301,7.578-16.879,16.887-16.879h17.434c9.301,0,16.879,7.578,16.879,16.887v17.434
		C128,461.756,120.422,469.333,111.113,469.333z M93.867,452.446h0.085H93.867z M93.867,452.267h17.246l-0.179-17.246L93.687,435.2
		L93.867,452.267z"/>
	<path style="fill:#4D007E;" d="M409.6,503.467c-32.939,0-59.733-26.795-59.733-59.733S376.661,384,409.6,384
		s59.733,26.795,59.733,59.733S442.539,503.467,409.6,503.467z M409.6,401.067c-23.526,0-42.667,19.14-42.667,42.667
		S386.074,486.4,409.6,486.4c23.526,0,42.667-19.14,42.667-42.667S433.126,401.067,409.6,401.067z"/>
	<path style="fill:#4D007E;" d="M418.313,469.333h-17.434c-9.301,0-16.879-7.578-16.879-16.887v-17.434
		c0-9.301,7.578-16.879,16.887-16.879h17.434c9.301,0,16.879,7.578,16.879,16.887v17.434
		C435.2,461.756,427.622,469.333,418.313,469.333z M401.067,452.446h0.085H401.067z M401.067,452.267h17.246l-0.179-17.246
		l-17.246,0.179L401.067,452.267z"/>
	<path style="fill:#4D007E;" d="M145.067,332.8H59.733c-4.71,0-8.533-3.823-8.533-8.533v-62.225c0-2.458,0.324-4.813,0.683-7.168
		c0.631-4.173,4.241-7.407,8.457-7.407h84.727c4.71,0,8.533,3.823,8.533,8.533v68.267C153.6,328.977,149.777,332.8,145.067,332.8z
		 M68.267,315.733h68.267v-51.2H68.267V315.733z"/>
	<path style="fill:#4D007E;" d="M42.667,401.067H8.533c-4.71,0-8.533-3.823-8.533-8.533v-25.6c0-3.413,0.35-6.861,1.033-10.223
		c0.802-3.985,4.301-6.844,8.363-6.844h33.271c4.71,0,8.533,3.823,8.533,8.533v34.133C51.2,397.244,47.377,401.067,42.667,401.067z
		 M17.067,384h17.067v-17.067H17.067V384z"/>
	<path style="fill:#4D007E;" d="M503.467,503.467h-34.133c-4.71,0-8.533-3.823-8.533-8.533s3.823-8.533,8.533-8.533h34.133
		c4.71,0,8.533,3.823,8.533,8.533S508.177,503.467,503.467,503.467z"/>
	<path style="fill:#4D007E;" d="M204.8,503.467H8.533c-4.71,0-8.533-3.823-8.533-8.533s3.823-8.533,8.533-8.533H204.8
		c4.71,0,8.533,3.823,8.533,8.533S209.51,503.467,204.8,503.467z"/>
	<path style="fill:#4D007E;" d="M273.067,503.467h-34.133c-4.71,0-8.533-3.823-8.533-8.533s3.823-8.533,8.533-8.533h34.133
		c4.71,0,8.533,3.823,8.533,8.533S277.777,503.467,273.067,503.467z"/>
	<path style="fill:#4D007E;" d="M409.6,503.467H307.2c-4.71,0-8.533-3.823-8.533-8.533s3.823-8.533,8.533-8.533h102.4
		c4.71,0,8.533,3.823,8.533,8.533S414.31,503.467,409.6,503.467z"/>
	<path style="fill:#4D007E;" d="M503.467,435.2h-45.645c-3.618,0-6.835-2.278-8.047-5.683c-6.025-17.015-22.17-28.45-40.175-28.45
		c-18.005,0-34.15,11.435-40.175,28.45c-1.212,3.405-4.437,5.683-8.047,5.683H150.622c-3.618,0-6.835-2.278-8.047-5.683
		c-6.025-17.015-22.17-28.45-40.175-28.45s-34.15,11.435-40.175,28.45c-1.212,3.405-4.437,5.683-8.047,5.683H8.533
		c-4.71,0-8.533-3.823-8.533-8.533v-59.733c0-28.237,22.963-51.2,51.2-51.2v-53.692c0-26.854,21.854-48.708,48.708-48.708h96.358
		c4.71,0,8.533,3.823,8.533,8.533v93.867h298.667c4.71,0,8.533,3.823,8.533,8.533v102.4C512,431.377,508.177,435.2,503.467,435.2z
		 M463.522,418.133h31.411V332.8H196.267c-4.71,0-8.533-3.823-8.533-8.533V230.4H99.908c-17.442,0-31.642,14.199-31.642,31.642
		v62.225c0,4.71-3.823,8.533-8.533,8.533H51.2c-18.825,0-34.133,15.309-34.133,34.133v51.2h31.411
		C58.283,397.491,79.241,384,102.4,384s44.117,13.491,53.922,34.133h199.356C365.483,397.491,386.441,384,409.6,384
		C432.759,384,453.717,397.491,463.522,418.133z"/>
	<path style="fill:#4D007E;" d="M277.018,332.8h-76.169c-2.423,0-4.736-1.033-6.357-2.842c-2.074-2.313-3.823-4.548-5.333-6.827
		c-0.93-1.399-1.425-3.038-1.425-4.719v-56.559c0-1.681,0.495-3.319,1.425-4.719c11.119-16.742,29.722-26.735,49.775-26.735
		c12.945,0,25.293,4.122,35.721,11.921c3.174,2.372,4.292,6.622,2.705,10.257c-2.85,6.511-4.292,13.406-4.292,20.489
		c0,14.029,5.598,27.127,15.761,36.89c2.859,2.748,3.456,7.108,1.425,10.513c-2.159,3.635-4.412,6.741-6.886,9.489
		C281.745,331.767,279.441,332.8,277.018,332.8z M204.834,315.733h66.176c-9.737-12.066-15.01-26.923-15.01-42.667
		c0-6.997,1.058-13.858,3.149-20.463c-6.204-3.379-13.09-5.137-20.215-5.137c-13.5,0-26.078,6.349-34.133,17.092v51.132
		C204.809,315.699,204.826,315.716,204.834,315.733z"/>
	<path style="fill:#4D007E;" d="M447.684,332.8h-76.169c-2.432,0-4.745-1.033-6.357-2.842c-2.483-2.773-4.727-5.871-6.878-9.481
		c-2.031-3.405-1.434-7.765,1.425-10.513c10.163-9.771,15.761-22.869,15.761-36.898c0-7.083-1.442-13.978-4.292-20.48
		c-1.596-3.635-0.469-7.885,2.705-10.257c10.428-7.808,22.775-11.93,35.721-11.93c32.939,0,59.733,26.795,59.733,59.733
		c0,14.686-5.436,28.834-15.292,39.834C452.42,331.767,450.108,332.8,447.684,332.8z M377.523,315.733h66.142
		c5.572-7.381,8.602-16.35,8.602-25.6c0-23.526-19.14-42.667-42.667-42.667c-7.125,0-14.012,1.758-20.215,5.137
		c2.091,6.605,3.149,13.466,3.149,20.463C392.533,288.802,387.26,303.659,377.523,315.733z"/>
	<path style="fill:#4D007E;" d="M354.918,332.8h-61.303c-1.545,0-3.063-0.418-4.395-1.22C268.425,319.095,256,297.225,256,273.067
		c0-37.641,30.626-68.267,68.267-68.267s68.267,30.626,68.267,68.267c0,24.158-12.425,46.037-33.229,58.513
		C357.982,332.382,356.463,332.8,354.918,332.8z M296.073,315.733h56.388c14.447-9.532,23.006-25.318,23.006-42.667
		c0-28.237-22.963-51.2-51.2-51.2s-51.2,22.963-51.2,51.2C273.067,290.415,281.626,306.193,296.073,315.733z"/>
	<path style="fill:#4D007E;" d="M469.333,332.8c-7.765,0-15.462-2.21-22.272-6.4c-1.997-1.229-3.405-3.226-3.883-5.521
		c-0.478-2.296,0.009-4.685,1.348-6.613c5.069-7.287,7.74-15.633,7.74-24.132c0-8.704-2.62-17.075-7.578-24.235
		c-1.34-1.937-1.818-4.335-1.331-6.63c0.486-2.304,1.903-4.292,3.917-5.513c6.758-4.122,14.387-6.289,22.059-6.289
		c23.526,0,42.667,19.14,42.667,42.667C512,313.66,492.86,332.8,469.333,332.8z M463.701,315.085
		c1.843,0.435,3.721,0.649,5.632,0.649c14.114,0,25.6-11.486,25.6-25.6c0-14.114-11.486-25.6-25.6-25.6
		c-1.852,0-3.686,0.205-5.478,0.623c3.601,7.782,5.478,16.265,5.478,24.977C469.333,298.752,467.405,307.226,463.701,315.085z"/>
	<path style="fill:#4D007E;" d="M378.991,257.69c-0.725,0-1.459-0.094-2.176-0.282c-2.517-0.666-4.599-2.449-5.641-4.83
		c-4.685-10.709-13.013-19.584-23.45-24.986c-3.703-1.92-5.478-6.221-4.207-10.189c5.709-17.749,21.982-29.67,40.482-29.67
		c23.526,0,42.667,19.14,42.667,42.667c0,3.601-0.538,7.219-1.69,11.375c-1.143,4.122-5.188,6.784-9.412,6.17
		c-10.846-1.527-22.374,1.246-31.471,8.047C382.609,257.109,380.809,257.69,378.991,257.69z M362.581,216.619
		c7.902,5.376,14.609,12.365,19.652,20.446c8.431-4.378,17.741-6.665,27.366-6.665c0-14.114-11.486-25.6-25.6-25.6
		C375.168,204.8,367.189,209.357,362.581,216.619z"/>
	<path style="fill:#4D007E;" d="M341.333,281.6H307.2c-4.71,0-8.533-3.823-8.533-8.533s3.823-8.533,8.533-8.533h34.133
		c4.71,0,8.533,3.823,8.533,8.533S346.044,281.6,341.333,281.6z"/>
	<path style="fill:#4D007E;" d="M324.267,298.667c-4.71,0-8.533-3.823-8.533-8.533V256c0-4.71,3.823-8.533,8.533-8.533
		S332.8,251.29,332.8,256v34.133C332.8,294.844,328.977,298.667,324.267,298.667z"/>
	<path style="fill:#4D007E;" d="M238.933,93.867c-4.71,0-8.533-3.823-8.533-8.533c0-9.412-7.654-17.067-17.067-17.067
		c-4.71,0-8.533-3.823-8.533-8.533s3.823-8.533,8.533-8.533c9.079,0,17.348,3.567,23.467,9.37
		c8.738-15.753,25.549-26.436,44.8-26.436c4.71,0,8.533,3.823,8.533,8.533S286.31,51.2,281.6,51.2
		c-18.825,0-34.133,15.309-34.133,34.133C247.467,90.044,243.644,93.867,238.933,93.867z"/>
	<path style="fill:#4D007E;" d="M477.867,102.4h-85.333c-18.825,0-34.133-15.309-34.133-34.133
		c0-19.985,17.715-36.113,37.615-33.946c6.63-15.343,21.939-25.788,39.185-25.788c17.246,0,32.555,10.445,39.177,25.788
		C494.387,32.179,512,48.282,512,68.267C512,87.091,496.691,102.4,477.867,102.4z M392.533,51.2
		c-9.412,0-17.067,7.654-17.067,17.067s7.654,17.067,17.067,17.067h85.333c9.412,0,17.067-7.654,17.067-17.067
		c0-11.418-11.435-20.437-23.202-15.863c-2.355,0.905-4.975,0.734-7.185-0.478c-2.21-1.212-3.763-3.337-4.267-5.803
		C457.899,34.236,447.343,25.6,435.2,25.6c-12.143,0-22.699,8.636-25.088,20.531c-0.495,2.466-2.057,4.591-4.267,5.803
		c-2.202,1.212-4.83,1.382-7.185,0.478C396.604,51.601,394.539,51.2,392.533,51.2z"/>
	<path style="fill:#4D007E;" d="M119.467,162.133H34.133C15.309,162.133,0,146.825,0,128c0-19.985,17.707-36.113,37.615-33.946
		c6.63-15.343,21.939-25.788,39.185-25.788s32.555,10.445,39.177,25.788C135.97,91.913,153.6,108.015,153.6,128
		C153.6,146.825,138.291,162.133,119.467,162.133z M34.133,110.933c-9.412,0-17.067,7.654-17.067,17.067
		c0,9.412,7.654,17.067,17.067,17.067h85.333c9.412,0,17.067-7.654,17.067-17.067c0-11.418-11.443-20.429-23.202-15.863
		c-2.355,0.905-4.975,0.725-7.185-0.478c-2.21-1.212-3.763-3.337-4.267-5.803C99.499,93.969,88.943,85.333,76.8,85.333
		s-22.699,8.636-25.088,20.531c-0.495,2.466-2.057,4.591-4.267,5.803c-2.202,1.203-4.83,1.382-7.185,0.478
		C38.204,111.334,36.139,110.933,34.133,110.933z"/>
</g>
<g>
</g>
<g>
</g>
<g>
</g>
<g>
</g>
<g>
</g>
<g>
</g>
<g>
</g>
<g>
</g>
<g>
</g>
<g>
</g>
<g>
</g>
<g>
</g>
<g>
</g>
<g>
</g>
<g>
</g>
</svg>
