<svg height="512pt" viewBox="0 0 512 512" width="512pt" xmlns="http://www.w3.org/2000/svg"><path d="m59.734375 435.199219c-28.28125 0-51.199219-22.917969-51.199219-51.199219v-196.265625c0-28.28125 22.917969-51.199219 51.199219-51.199219 28.277344 0 51.199219 22.917969 51.199219 51.199219v196.265625c0 28.28125-22.921875 51.199219-51.199219 51.199219zm0 0" fill="#61b872"/><path d="m426.667969 307.199219c-28.28125 0-51.203125-22.917969-51.203125-51.199219v-196.265625c0-28.28125 22.921875-51.199219 51.203125-51.199219 28.277343 0 51.199219 22.917969 51.199219 51.199219v196.265625c0 28.28125-22.921876 51.199219-51.199219 51.199219zm0 0" fill="#61b872"/><path d="m187.734375 341.332031-85.335937 162.132813h196.269531zm0 0" fill="#1f436d"/><path d="m503.464844 503.464844h-230.398438l-85.332031-162.132813h213.332031zm0 0" fill="#366db6"/><path d="m435.199219 469.332031h-128l-51.199219-93.867187h119.464844zm0 0" fill="#1f436d"/><path d="m307.199219 93.867188c-3.257813 0-6.347657.664062-9.214844 1.773437-3.132813-15.605469-16.914063-27.375-33.449219-27.375-16.539062 0-30.320312 11.769531-33.453125 27.375-2.867187-1.109375-5.957031-1.773437-9.214843-1.773437-14.140626 0-25.601563 11.460937-25.601563 25.597656 0 14.140625 11.460937 25.601562 25.601563 25.601562h85.332031c14.140625 0 25.601562-11.460937 25.601562-25.601562 0-14.136719-11.460937-25.597656-25.601562-25.597656zm0 0" fill="#e7eced"/><path d="m116.003906 8.789062c2.21875 5.164063 3.460938 10.835938 3.460938 16.8125 0 23.558594-19.105469 42.664063-42.664063 42.664063-5.972656 0-11.648437-1.246094-16.8125-3.464844 2.550781 25.898438 24.378907 46.132813 50.945313 46.132813 28.277344 0 51.199218-22.921875 51.199218-51.199219 0-26.566406-20.230468-48.402344-46.128906-50.945313zm0 0" fill="#efce4a"/><g fill="#4d007e"><path d="m59.734375 366.933594c-2.1875 0-4.371094-.835938-6.035156-2.5-3.335938-3.335938-3.335938-8.730469 0-12.066406l17.066406-17.066407c3.328125-3.335937 8.738281-3.335937 12.066406 0 3.335938 3.335938 3.335938 8.730469 0 12.066407l-17.066406 17.066406c-1.664063 1.664062-3.847656 2.5-6.03125 2.5zm0 0"/><path d="m59.734375 264.535156c-2.1875 0-4.371094-.839844-6.035156-2.503906-3.335938-3.335938-3.335938-8.726562 0-12.0625l17.066406-17.070312c3.328125-3.335938 8.738281-3.335938 12.066406 0 3.335938 3.339843 3.335938 8.730468 0 12.066406l-17.066406 17.066406c-1.664063 1.664062-3.847656 2.503906-6.03125 2.503906zm0 0"/><path d="m59.734375 409.601562c-2.1875 0-4.371094-.835937-6.035156-2.5l-17.066407-17.070312c-3.335937-3.335938-3.335937-8.726562 0-12.0625 3.328126-3.339844 8.738282-3.339844 12.066407 0l17.066406 17.066406c3.335937 3.335938 3.335937 8.726563 0 12.066406-1.664063 1.664063-3.847656 2.5-6.03125 2.5zm0 0"/><path d="m59.734375 512c-4.710937 0-8.535156-3.8125-8.535156-8.535156v-315.730469c0-4.71875 3.824219-8.535156 8.535156-8.535156s8.53125 3.816406 8.53125 8.535156v315.730469c0 4.722656-3.820313 8.535156-8.53125 8.535156zm0 0"/><path d="m59.734375 443.734375c-32.941406 0-59.734375-26.804687-59.734375-59.734375v-196.265625c0-32.929687 26.792969-59.734375 59.734375-59.734375 32.9375 0 59.730469 26.804688 59.730469 59.734375v196.265625c0 32.929688-26.792969 59.734375-59.730469 59.734375zm0-298.667969c-23.527344 0-42.667969 19.140625-42.667969 42.667969v196.265625c0 23.527344 19.140625 42.667969 42.667969 42.667969 23.523437 0 42.664063-19.140625 42.664063-42.667969v-196.265625c0-23.527344-19.140626-42.667969-42.664063-42.667969zm0 0"/><path d="m59.734375 307.199219c-2.1875 0-4.371094-.835938-6.035156-2.5l-17.066407-17.066407c-3.335937-3.335937-3.335937-8.730468 0-12.066406 3.328126-3.335937 8.738282-3.335937 12.066407 0l17.066406 17.066406c3.335937 3.335938 3.335937 8.730469 0 12.066407-1.664063 1.664062-3.847656 2.5-6.03125 2.5zm0 0"/><path d="m426.667969 238.933594c-2.1875 0-4.371094-.835938-6.035157-2.5-3.335937-3.335938-3.335937-8.730469 0-12.066406l17.066407-17.066407c3.328125-3.335937 8.738281-3.335937 12.066406 0 3.335937 3.335938 3.335937 8.730469 0 12.066407l-17.066406 17.066406c-1.664063 1.664062-3.847657 2.5-6.03125 2.5zm0 0"/><path d="m426.667969 136.535156c-2.1875 0-4.371094-.839844-6.035157-2.503906-3.335937-3.335938-3.335937-8.726562 0-12.0625l17.066407-17.070312c3.328125-3.335938 8.738281-3.335938 12.066406 0 3.335937 3.339843 3.335937 8.730468 0 12.066406l-17.066406 17.066406c-1.664063 1.664062-3.847657 2.503906-6.03125 2.503906zm0 0"/><path d="m426.667969 281.601562c-2.1875 0-4.371094-.835937-6.035157-2.5l-17.066406-17.070312c-3.335937-3.335938-3.335937-8.726562 0-12.0625 3.328125-3.339844 8.738282-3.339844 12.066406 0l17.066407 17.066406c3.335937 3.335938 3.335937 8.726563 0 12.066406-1.664063 1.664063-3.847657 2.5-6.03125 2.5zm0 0"/><path d="m426.667969 390.398438c-4.710938 0-8.535157-3.8125-8.535157-8.53125v-322.132813c0-4.71875 3.824219-8.535156 8.535157-8.535156 4.710937 0 8.53125 3.816406 8.53125 8.535156v322.132813c0 4.71875-3.820313 8.53125-8.53125 8.53125zm0 0"/><path d="m426.667969 315.734375c-32.941407 0-59.734375-26.804687-59.734375-59.734375v-196.265625c0-32.929687 26.792968-59.734375 59.734375-59.734375 32.9375 0 59.730469 26.804688 59.730469 59.734375v196.265625c0 32.929688-26.792969 59.734375-59.730469 59.734375zm0-298.667969c-23.527344 0-42.667969 19.140625-42.667969 42.667969v196.265625c0 23.527344 19.140625 42.667969 42.667969 42.667969 23.523437 0 42.664062-19.140625 42.664062-42.667969v-196.265625c0-23.527344-19.140625-42.667969-42.664062-42.667969zm0 0"/><path d="m426.667969 179.199219c-2.1875 0-4.371094-.835938-6.035157-2.5l-17.066406-17.066407c-3.335937-3.335937-3.335937-8.730468 0-12.066406 3.328125-3.335937 8.738282-3.335937 12.066406 0l17.066407 17.066406c3.335937 3.335938 3.335937 8.730469 0 12.066407-1.664063 1.664062-3.847657 2.5-6.03125 2.5zm0 0"/><path d="m273.066406 512h-170.667968c-2.984376 0-5.757813-1.570312-7.304688-4.121094-1.542969-2.558594-1.636719-5.742187-.246094-8.378906l85.332032-162.132812c2.953124-5.601563 12.152343-5.601563 15.105468 0l85.332032 162.132812c1.390624 2.644531 1.296874 5.828125-.246094 8.378906-1.542969 2.550782-4.316406 4.121094-7.304688 4.121094zm-156.535156-17.066406h142.402344l-71.199219-135.277344zm0 0"/><path d="m503.464844 512h-230.398438c-3.164062 0-6.074218-1.757812-7.550781-4.558594l-85.335937-162.132812c-1.390626-2.644532-1.296876-5.828125.25-8.378906 1.542968-2.558594 4.316406-4.128907 7.304687-4.128907h213.332031c2.925782 0 5.648438 1.5 7.210938 3.976563l102.398437 162.132812c1.664063 2.636719 1.757813 5.957032.257813 8.679688-1.492188 2.71875-4.359375 4.410156-7.46875 4.410156zm-225.242188-17.066406h209.765625l-91.625-145.066406h-194.5zm0 0"/><path d="m187.734375 512c-4.710937 0-8.535156-3.8125-8.535156-8.535156v-162.132813c0-4.71875 3.824219-8.53125 8.535156-8.53125s8.53125 3.8125 8.53125 8.53125v162.132813c0 4.722656-3.820313 8.535156-8.53125 8.535156zm0 0"/><path d="m435.199219 477.867188h-128c-3.121094 0-6-1.707032-7.492188-4.445313l-51.199219-93.867187c-1.441406-2.644532-1.382812-5.855469.152344-8.441407 1.539063-2.585937 4.328125-4.179687 7.339844-4.179687h119.464844c2.921875 0 5.632812 1.492187 7.203125 3.949218l59.734375 93.867188c1.671875 2.636719 1.773437 5.957031.28125 8.695312-1.5 2.722657-4.367188 4.421876-7.484375 4.421876zm-122.929688-17.066407h107.382813l-48.871094-76.800781h-100.402344zm0 0"/><path d="m187.734375 264.535156c-4.710937 0-8.535156-3.816406-8.535156-8.535156 0-9.414062-7.652344-17.066406-17.066407-17.066406-4.710937 0-8.53125-3.816406-8.53125-8.535156s3.820313-8.53125 8.53125-8.53125c9.078126 0 17.339844 3.566406 23.46875 9.367187 8.738282-15.75 25.546876-26.433594 44.796876-26.433594 4.710937 0 8.535156 3.8125 8.535156 8.53125s-3.824219 8.535157-8.535156 8.535157c-18.824219 0-34.132813 15.308593-34.132813 34.132812 0 4.71875-3.820313 8.535156-8.53125 8.535156zm0 0"/><path d="m307.199219 153.601562h-85.332031c-18.824219 0-34.132813-15.308593-34.132813-34.136718 0-19.992188 17.65625-36.121094 37.621094-33.945313 6.625-15.339843 21.933593-25.785156 39.179687-25.785156 17.242188 0 32.554688 10.445313 39.175782 25.785156 19.941406-2.148437 37.621093 13.953125 37.621093 33.945313 0 18.828125-15.308593 34.136718-34.132812 34.136718zm-85.332031-51.203124c-9.414063 0-17.066407 7.65625-17.066407 17.066406 0 9.414062 7.652344 17.070312 17.066407 17.070312h85.332031c9.414062 0 17.066406-7.65625 17.066406-17.070312 0-11.414063-11.5625-20.351563-23.183594-15.863282-2.347656.933594-4.984375.761719-7.195312-.46875-2.207031-1.210937-3.769531-3.335937-4.265625-5.800781-2.390625-11.894531-12.9375-20.53125-25.085938-20.53125-12.152344 0-22.699218 8.636719-25.089844 20.53125-.496093 2.464844-2.054687 4.589844-4.265624 5.800781-2.210938 1.222657-4.839844 1.390626-7.195313.46875-2.046875-.792968-4.105469-1.203124-6.117187-1.203124zm0 0"/><path d="m110.933594 119.464844c-30.867188 0-56.414063-23.140625-59.433594-53.835938-.300781-2.996094 1.015625-5.9375 3.453125-7.714844 2.441406-1.78125 5.632813-2.148437 8.40625-.953124 4.285156 1.84375 8.808594 2.773437 13.441406 2.773437 18.824219 0 34.132813-15.308594 34.132813-34.132813 0-4.644531-.929688-9.167968-2.765625-13.441406-1.195313-2.765625-.828125-5.964844.957031-8.398437 1.773438-2.4375 4.710938-3.7265628 7.722656-3.453125 30.675782 3.003906 53.820313 28.550781 53.820313 59.425781 0 32.929687-26.796875 59.730469-59.734375 59.730469zm-39.253906-42.921875c6.519531 15.359375 21.683593 25.855469 39.253906 25.855469 23.527344 0 42.667968-19.140626 42.667968-42.664063 0-17.578125-10.496093-32.742187-25.859374-39.261719.171874 1.707032.257812 3.414063.257812 5.128906 0 28.234376-22.972656 51.199219-51.199219 51.199219-1.714843 0-3.429687-.085937-5.121093-.257812zm0 0"/></g></svg>