<?xml version="1.0" encoding="utf-8"?>
<!-- Generator: Adobe Illustrator 24.0.0, SVG Export Plug-In . SVG Version: 6.00 Build 0)  -->
<svg version="1.1" id="레이어_1" xmlns="http://www.w3.org/2000/svg" xmlns:xlink="http://www.w3.org/1999/xlink" x="0px"
	 y="0px" viewBox="0 0 512 512" style="enable-background:new 0 0 512 512;" xml:space="preserve">
<style type="text/css">
	.st0{fill:#AFB6BB;}
	.st1{fill:#6C4127;}
	.st2{fill:#556080;}
	.st3{fill:#28384C;}
	.st4{fill:#E7ECED;}
	.st5{fill:#7383BF;}
	.st6{fill:#BE7C6D;}
	.st7{fill:#C5411E;}
	.st8{fill:#EBBA16;}
	.st9{fill:#366DB6;}
	.st10{fill:#4D007E;}
</style>
<path class="st0" d="M230.4,42.6h136.5v34.1H230.4V42.6z"/>
<path class="st1" d="M452.3,349.8H145.1c-18.8,0-34.1-15.3-34.1-34.1V162.1c0-18.8,15.3-34.1,34.1-34.1h307.2
	c18.9,0,34.1,15.3,34.1,34.1v153.6C486.4,334.5,471.1,349.8,452.3,349.8z"/>
<path class="st2" d="M24.5,25.5c-11.2,0-18.9,11.1-15,21.6l24.6,51.2v260h34.1v-260L39.5,35.9C37.2,29.7,31.2,25.5,24.5,25.5z"/>
<path class="st3" d="M128,435.1c0,28.3-22.9,51.2-51.2,51.2s-51.2-22.9-51.2-51.2s22.9-51.2,51.2-51.2S128,406.9,128,435.1z"/>
<path class="st4" d="M59.7,418.1h34.1v34.1H59.7V418.1z"/>
<path class="st3" d="M486.4,435.1c0,28.3-22.9,51.2-51.2,51.2S384,463.4,384,435.1s22.9-51.2,51.2-51.2S486.4,406.9,486.4,435.1z"/>
<path class="st4" d="M418.1,418.1h34.1v34.1h-34.1V418.1z"/>
<path class="st5" d="M8.5,349.8h494.9v34.1H8.5V349.8z"/>
<path class="st6" d="M162.1,127.9h34.1v221.9h-34.1V127.9z"/>
<path class="st6" d="M401.1,127.9h34.1v221.9h-34.1V127.9z"/>
<path class="st7" d="M264.5,179.1v68.3c7.2,2.6,12.9-7.2,15.5,0l10.3,15.5c7.1-5.3,15.8-8.5,25.4-8.5c6.1,0,11.8,1.3,17.1,3.6v-78.8
	H264.5z"/>
<path class="st8" d="M358.4,255.9c0,23.6-19.1,42.7-42.7,42.7c-23.6,0-42.7-19.1-42.7-42.7s19.1-42.7,42.7-42.7
	C339.3,213.3,358.4,232.4,358.4,255.9z"/>
<path class="st9" d="M281.6,230.6c0-0.1,0-0.2,0-0.3c0-14.1-11.5-25.6-25.6-25.6s-25.6,11.5-25.6,25.6c0,14.1,11.5,25.6,25.6,25.6
	c6.9,0,13.2-2.8,17.8-7.2C275,242,277.7,235.9,281.6,230.6z"/>
<g>
	<path class="st10" d="M76.8,494.9c-32.9,0-59.7-26.8-59.7-59.7s26.8-59.7,59.7-59.7s59.7,26.8,59.7,59.7S109.7,494.9,76.8,494.9z
		 M76.8,392.5c-23.5,0-42.7,19.1-42.7,42.7s19.1,42.7,42.7,42.7s42.7-19.1,42.7-42.7S100.3,392.5,76.8,392.5z"/>
	<path class="st10" d="M93.9,460.7H59.7c-4.7,0-8.5-3.8-8.5-8.5v-34.1c0-4.7,3.8-8.5,8.5-8.5h34.1c4.7,0,8.5,3.8,8.5,8.5v34.1
		C102.4,456.9,98.6,460.7,93.9,460.7z M68.3,443.7h17.1v-17.1H68.3V443.7z"/>
	<path class="st10" d="M435.2,494.9c-32.9,0-59.7-26.8-59.7-59.7s26.8-59.7,59.7-59.7s59.7,26.8,59.7,59.7S468.1,494.9,435.2,494.9z
		 M435.2,392.5c-23.5,0-42.7,19.1-42.7,42.7s19.1,42.7,42.7,42.7s42.7-19.1,42.7-42.7S458.7,392.5,435.2,392.5z"/>
	<path class="st10" d="M452.3,460.7h-34.1c-4.7,0-8.5-3.8-8.5-8.5v-34.1c0-4.7,3.8-8.5,8.5-8.5h34.1c4.7,0,8.5,3.8,8.5,8.5v34.1
		C460.8,456.9,457,460.7,452.3,460.7z M426.7,443.7h17.1v-17.1h-17.1V443.7z"/>
	<path class="st10" d="M503.5,392.5H8.5c-4.7,0-8.5-3.8-8.5-8.5v-34.1c0-4.7,3.8-8.5,8.5-8.5h494.9c4.7,0,8.5,3.8,8.5,8.5v34.1
		C512,388.6,508.2,392.5,503.5,392.5z M17.1,375.4h477.9v-17.1H17.1V375.4z"/>
	<path class="st10" d="M68.3,358.3H34.1c-4.7,0-8.5-3.8-8.5-8.5V100.3L1.9,50.8c-3.1-8.2-2.1-16.7,2.5-23.3C9,20.9,16.5,17,24.5,17
		c10.2,0,19.4,6.4,23,15.9L76,94.8c0.5,1.1,0.8,2.3,0.8,3.6v251.5C76.8,354.5,73,358.3,68.3,358.3z M42.7,341.3h17.1V100.2l-28-60.7
		c-2.4-6.3-10.2-6.8-13.3-2.2c-1.4,2-1.7,4.5-0.9,6.9l24.3,50.5c0.6,1.2,0.8,2.4,0.8,3.7V341.3z"/>
	<path class="st10" d="M162.1,136.5c-4.7,0-8.5-3.8-8.5-8.5s3.8-8.5,8.5-8.5c14.1,0,25.6-11.5,25.6-25.6c0-23.5,19.1-42.7,42.7-42.7
		c4.7,0,8.5,3.8,8.5,8.5s-3.8,8.5-8.5,8.5c-14.1,0-25.6,11.5-25.6,25.6C204.8,117.3,185.7,136.5,162.1,136.5z"/>
	<path class="st10" d="M196.3,358.3h-34.1c-4.7,0-8.5-3.8-8.5-8.5V127.9c0-4.7,3.8-8.5,8.5-8.5h34.1c4.7,0,8.5,3.8,8.5,8.5v221.9
		C204.8,354.5,201,358.3,196.3,358.3z M170.7,341.3h17.1V136.5h-17.1V341.3z"/>
	<path class="st10" d="M435.2,358.3h-34.1c-4.7,0-8.5-3.8-8.5-8.5V127.9c0-4.7,3.8-8.5,8.5-8.5h34.1c4.7,0,8.5,3.8,8.5,8.5v221.9
		C443.7,354.5,439.9,358.3,435.2,358.3z M409.6,341.3h17.1V136.5h-17.1V341.3z"/>
	<path class="st10" d="M452.3,358.3H145.1c-23.5,0-42.7-19.1-42.7-42.7V162.1c0-23.5,19.1-42.7,42.7-42.7h307.2
		c23.5,0,42.7,19.1,42.7,42.7v153.6C494.9,339.2,475.8,358.3,452.3,358.3z M145.1,136.5c-14.1,0-25.6,11.5-25.6,25.6v153.6
		c0,14.1,11.5,25.6,25.6,25.6h307.2c14.1,0,25.6-11.5,25.6-25.6V162.1c0-14.1-11.5-25.6-25.6-25.6H145.1z"/>
	<path class="st10" d="M366.9,85.3H230.4c-4.7,0-8.5-3.8-8.5-8.5V42.6c0-4.7,3.8-8.5,8.5-8.5h136.5c4.7,0,8.5,3.8,8.5,8.5v34.1
		C375.5,81.4,371.6,85.3,366.9,85.3z M238.9,68.2h119.5V51.1H238.9V68.2z"/>
	<path class="st10" d="M435.2,136.5c-23.5,0-42.7-19.1-42.7-42.7c0-14.1-11.5-25.6-25.6-25.6c-4.7,0-8.5-3.8-8.5-8.5
		s3.8-8.5,8.5-8.5c23.5,0,42.7,19.1,42.7,42.7c0,14.1,11.5,25.6,25.6,25.6c4.7,0,8.5,3.8,8.5,8.5S439.9,136.5,435.2,136.5z"/>
	<path class="st10" d="M315.7,307.1c-28.2,0-51.2-23-51.2-51.2s23-51.2,51.2-51.2c28.2,0,51.2,23,51.2,51.2S344,307.1,315.7,307.1z
		 M315.7,221.8c-18.8,0-34.1,15.3-34.1,34.1s15.3,34.1,34.1,34.1s34.1-15.3,34.1-34.1S334.6,221.8,315.7,221.8z"/>
	<path class="st10" d="M256,264.5c-18.8,0-34.1-15.3-34.1-34.1s15.3-34.1,34.1-34.1s34.1,15.3,34.1,34.1c0,0.3,0,0.7-0.1,1.1
		c-0.1,1.5-0.7,3-1.6,4.3c-3.2,4.3-5.3,9.2-6.2,14.4c-0.3,1.8-1.2,3.4-2.5,4.7C273.3,261,264.9,264.5,256,264.5z M256,213.3
		c-9.4,0-17.1,7.7-17.1,17.1c0,9.4,7.7,17.1,17.1,17.1c3.6,0,7.1-1.2,10-3.3c1.3-5.7,3.7-11.1,6.9-16
		C271.8,219.7,264.7,213.3,256,213.3z M281.6,230.6L281.6,230.6L281.6,230.6z"/>
	<path class="st10" d="M290.4,230.3H280c-3.6,0-6.8-2.3-8-5.7c-1.7-4.8-5.5-8.6-10.3-10.3c-3.4-1.2-5.7-4.4-5.7-8v-27.2
		c0-4.7,3.8-8.5,8.5-8.5h68.3c4.7,0,8.5,3.8,8.5,8.5v37.7c0,2.9-1.4,5.6-3.9,7.1c-2.4,1.6-5.5,1.8-8.1,0.7c-11.2-4.9-24-3.4-33.9,4
		C294,229.7,292.2,230.3,290.4,230.3z M285.5,213.3h2.2c10.9-7.2,24-10,36.6-7.8v-17.8h-51.2v13.2
		C278.2,203.9,282.5,208.1,285.5,213.3z"/>
</g>
</svg>
