<?xml version="1.0" encoding="utf-8"?>
<!-- Generator: Adobe Illustrator 24.0.0, SVG Export Plug-In . SVG Version: 6.00 Build 0)  -->
<svg version="1.1" id="Layer_1" xmlns="http://www.w3.org/2000/svg" xmlns:xlink="http://www.w3.org/1999/xlink" x="0px" y="0px"
	 viewBox="0 0 512 512" style="enable-background:new 0 0 512 512;" xml:space="preserve">
<style type="text/css">
	.st0{fill:#366DB6;}
	.st1{fill:#1F436D;}
	.st2{fill:#4D007E;}
	.st3{fill:#61B872;}
	.st4{fill:#E7ECED;}
	.st5{fill:#EFCE4A;}
</style>
<g>
	<path class="st0" d="M373.2,483.7l69.2-31.4c6-3,9.7-9.3,9.4-16.1l-1.7-41.6h-78.4L373.2,483.7z"/>
	<path class="st0" d="M138.8,483.7l-69.2-31.4c-6-3-9.7-9.3-9.4-16.1l1.7-41.6h78.4L138.8,483.7z"/>
</g>
<g>
	<path class="st1" d="M139.1,466.7c-16.1-6.4-27.1-22.4-27.1-40.9c0-9.4,1.7-22.3,3-31.2H89c-1.3,9.4-2.7,21.5-2.7,31.2
		c0,14.7,4.5,28.4,12.2,39.7l40.3,18.2L139.1,466.7z"/>
	<path class="st1" d="M136.3,461.2v34.2c0,4.7,3.8,8.6,8.6,8.6h222.3c4.7,0,8.6-3.8,8.6-8.6v-34.2L136.3,461.2L136.3,461.2z"/>
</g>
<path class="st0" d="M456.7,213.2c8.2-43.8,4.5-94.6-10.8-112.3c-18.4-21.4-78.8-41.6-78.8-41.6H144.8c0,0-60.4,20.2-78.8,41.6
	c-15.3,17.7-19,68.5-10.8,112.3c0,0-13,51.3-3.2,94.1c0,0-3.3,48.4-2.2,64.5c1.2,18.5,9.9,34.1,26.3,40.9l35.9,14.6
	c0.8,23.4,19,42.5,42.6,42.5h202.7c23.6,0,41.8-19.1,42.6-42.5l35.9-14.6c16.4-6.8,25.1-22.4,26.3-40.9c1.1-16.1-2.2-64.5-2.2-64.5
	C469.8,264.6,456.7,213.2,456.7,213.2z"/>
<g>
	<path class="st0" d="M144.8,59.3c0,0,59.9,51.3,111.2,59.9c51.3-8.6,111.2-59.9,111.2-59.9l-20.9-41.9c-2.9-5.8-8.8-9.5-15.3-9.5
		H181.1c-6.5,0-12.4,3.7-15.3,9.5L144.8,59.3z"/>
	<path class="st0" d="M52.1,307.3c0,0-3.3,48.4-2.2,64.5c1.2,18.5,9.9,34.1,26.3,40.9l35.9,14.6c0-0.5-0.2-1-0.2-1.6
		c0-15.8,4.7-41.5,4.7-41.5c-14.6-42.8,2.5-85.5,2.5-85.5s-17.1-42.8,0-85.5V179c0,0-7.7-45.7-51.7-79.6c-0.5,0.5-1,1-1.5,1.5
		c-15.3,17.7-19,68.5-10.8,112.3C55.3,213.2,42.2,264.6,52.1,307.3z"/>
	<path class="st0" d="M459.9,307.3c0,0,3.3,48.4,2.2,64.5c-1.2,18.5-9.9,34.1-26.3,40.9l-35.9,14.6c0-0.5,0.1-1,0.1-1.6
		c0-15.8-4.7-41.5-4.7-41.5c14.6-42.8-2.5-85.5-2.5-85.5s17.1-42.8,0-85.5V179c0,0,7.7-45.7,51.7-79.6c0.5,0.5,1,1,1.5,1.5
		c15.3,17.7,19,68.5,10.8,112.3C456.7,213.2,469.8,264.6,459.9,307.3z"/>
</g>
<g>
	<path class="st1" d="M256,85c0,0,46.2-27.8,84.2-74.2c-2.7-1.8-5.9-2.8-9.3-2.8H181.1c-3.4,0-6.6,1-9.3,2.8
		C209.8,57.2,256,85,256,85z"/>
	<path class="st1" d="M112.1,427.3c0-0.5-0.2-1-0.2-1.6c0-3,0.2-6.3,0.4-9.7c1.2-14.9,4.3-31.8,4.3-31.8c-2.7-8-4.4-16-5.2-23.8
		c-3.6-33.5,7.7-61.7,7.7-61.7s-17.1-42.8,0-85.5c0,0,0-15.5,0-25.7h-8.6c-9.4,0-17.1,7.7-17.1,17.1v3.9
		c-13.2,37.3-6.1,73.4-1.3,90.1c-4.8,16.2-12.1,51-1.9,87.3c-1.2,7.4-3,19.7-3.7,31L112.1,427.3z"/>
</g>
<path class="st1" d="M372.9,466.7c16.1-6.4,27.1-22.4,27.1-40.9c0-9.4-1.7-22.3-3-31.2H423c1.3,9.4,2.7,21.5,2.7,31.2
	c0,14.7-4.5,28.4-12.2,39.7l-40.3,18.2L372.9,466.7z"/>
<path class="st1" d="M399.9,427.3c0-0.5,0.1-1,0.1-1.6c0-3-0.2-6.3-0.4-9.7c-1.2-14.9-4.3-31.8-4.3-31.8c2.7-8,4.4-16,5.2-23.8
	c3.6-33.5-7.7-61.7-7.7-61.7s17.1-42.8,0-85.5c0,0,0-15.5,0-25.7h8.6c9.4,0,17.1,7.7,17.1,17.1v3.9c13.2,37.3,6.1,73.4,1.3,90.1
	c4.8,16.2,12.1,51,1.9,87.3c1.2,7.4,3,19.7,3.7,31L399.9,427.3z"/>
<path class="st2" d="M464.9,213c7.4-41.4,5.5-96-12.9-117.3c-17.3-20.1-66.1-38.3-79.2-42.9l-19.5-38.9C349.1,5.3,340.5,0,330.9,0
	H181.1c-9.6,0-18.2,5.3-22.5,13.9l-19.5,38.9c-13,4.6-61.8,22.8-79.2,42.9C41.6,117,39.6,171.6,47.1,213c-2.2,9.6-11.9,55-3.1,94.9
	c-0.5,7.7-3.1,49.2-2.1,64.4c0.9,12.7,4.8,23.7,11.2,32.3l-1,31.3c-0.4,9.9,5,19.1,13.8,23.6c0.1,0.1,0.2,0.1,0.3,0.1l62,27.9v7.9
	c0,9.1,7.4,16.6,16.6,16.6h222.3c9.1,0,16.6-7.4,16.6-16.6v-7.9l62-27.9c0.1,0,0.2-0.1,0.3-0.1c8.9-4.5,14.3-13.7,13.8-23.7
	l-1.6-30.5c6.8-8.7,10.9-20,11.8-33c1-15.2-1.6-56.7-2.1-64.4C476.8,268,467.2,222.6,464.9,213z M454.1,371.3
	c-0.6,9.7-4.3,27-21.4,34.1l-25.1,10.4c-1-12.3-3.2-25.8-4.1-30.9c5.3-16.6,6.3-32.9,5.4-47l43.7-18.2
	C453.5,334.9,454.8,360.7,454.1,371.3z M392.1,425.8c0,20.2-15.3,36-34.7,36H264v-69.5h124.6C389.9,400.7,392.1,415.6,392.1,425.8z
	 M119.9,425.8c0-10.2,2.1-25,3.5-33.5H248v69.5h-93.3C135.2,461.8,119.9,446,119.9,425.8z M79.3,405.3
	c-17.1-7.1-20.8-24.4-21.4-34.1c-0.7-10.6,0.6-36.3,1.5-51.5l43.7,18.2c-0.9,14.1,0.1,30.4,5.4,47c-0.9,5.1-3.1,18.6-4.1,30.9
	L79.3,405.3z M103.9,244.2c-2,25.6,4.1,46.9,6.7,54.6c-1.4,4.1-3.9,12.1-5.7,22.6l-45.8-19c-5.6-28.1-1.4-59.7,1.5-76.1L103.9,244.2
	z M143.2,68.4c13.3,10.8,60.4,47.2,104.8,57.4v79.5H127.2V179c0-1.8-0.6-43.8-48.4-79.1C95.4,87,127,74.1,143.2,68.4z M368.8,68.4
	c16.2,5.7,47.8,18.6,64.4,31.6c-47.8,35.3-48.4,77.2-48.4,79.1v26.2H264v-79.5C308.4,115.6,355.6,79.2,368.8,68.4z M451.3,226.2
	c3,16.3,7.2,48,1.5,76.1l-45.8,19c-1.8-10.5-4.3-18.5-5.7-22.6c2.6-7.7,8.7-29,6.7-54.6L451.3,226.2z M264,376.3v-69.5h123.1
	c3.5,11.3,10.4,40,2.3,69.5H264z M122.6,376.3c-8.1-29.3-1.2-58.2,2.3-69.5H248v69.5H122.6z M387.2,221.3
	c9.8,29.3,3.2,58.1-0.2,69.5H264v-69.5L387.2,221.3L387.2,221.3z M248,290.7H125c-3.4-11.3-9.9-40.2-0.2-69.5H248V290.7z M256,75.5
	c-10.8-7.1-41-28.3-67-59.4H323C297,47.1,266.8,68.3,256,75.5z M449.2,209.7l-43.6,18.1c-1.2-5.3-2.7-10.7-4.8-16.1v-32.6
	c0-1.5,0.9-36.5,42.9-67C453.3,131.1,455.9,172.4,449.2,209.7z M357.1,57.2c-13.8,11-55,42.1-93.1,52.1V89.4
	c11.5-7.5,46.1-31.5,75.2-67.8c0,0,0-0.1,0.1-0.1L357.1,57.2z M172.7,21.5C172.7,21.5,172.8,21.5,172.7,21.5
	c29.1,36.4,63.8,60.5,75.3,67.9v19.9c-38-10-79.3-41-93.1-52.1L172.7,21.5z M68.3,112.1c42,30.4,42.9,65.4,42.9,66.9v32.7
	c-2.1,5.4-3.6,10.8-4.8,16.1l-43.6-18.1C56.1,172.4,58.7,131.1,68.3,112.1z M68.1,436.6c0,0,0-0.1,0-0.1l0.6-18.5
	c1.4,0.8,2.9,1.5,4.4,2.1l31.3,13c1.5,11,6.4,21.2,14.1,29.2c2.5,2.6,5.1,4.8,8,6.8l-53.4-24C69.9,443.4,68,440.1,68.1,436.6z
	 M144.3,495.4v-18.7c3.4,0.7,6.8,1.1,10.4,1.1H248V496H144.8C144.5,496,144.3,495.7,144.3,495.4z M367.2,496H264v-18.2h93.3
	c3.5,0,7-0.4,10.4-1.1v18.7C367.7,495.7,367.5,496,367.2,496z M439,445.1l-53.4,24c2.8-1.9,5.5-4.2,8-6.8c7.7-8,12.6-18.2,14.1-29.2
	l31.3-13c1.4-0.6,2.7-1.2,4.1-1.9l0.9,18.4C444,440.1,442.1,443.4,439,445.1z"/>
<path class="st3" d="M684.9,384.4c-28.3,0-51.2-22.9-51.2-51.2V137c0-28.3,22.9-51.2,51.2-51.2c28.3,0,51.2,22.9,51.2,51.2v196.3
	C736.1,361.5,713.2,384.4,684.9,384.4z"/>
<path class="st3" d="M1051.9,256.4c-28.3,0-51.2-22.9-51.2-51.2V9c0-28.3,22.9-51.2,51.2-51.2c28.3,0,51.2,22.9,51.2,51.2v196.3
	C1103.1,233.5,1080.1,256.4,1051.9,256.4z"/>
<path class="st1" d="M812.9,290.6l-85.3,162.1h196.3L812.9,290.6z"/>
<path class="st0" d="M1128.6,452.7H898.2l-85.3-162.1h213.3L1128.6,452.7z"/>
<path class="st1" d="M1060.4,418.6h-128l-51.2-93.9h119.5L1060.4,418.6z"/>
<path class="st4" d="M932.4,43.1c-3.3,0-6.3,0.7-9.2,1.8c-3.1-15.6-16.9-27.4-33.4-27.4c-16.5,0-30.3,11.8-33.5,27.4
	c-2.9-1.1-6-1.8-9.2-1.8c-14.1,0-25.6,11.5-25.6,25.6c0,14.1,11.5,25.6,25.6,25.6h85.3c14.1,0,25.6-11.5,25.6-25.6
	C958,54.6,946.5,43.1,932.4,43.1z"/>
<path class="st5" d="M741.2-42c2.2,5.2,3.5,10.8,3.5,16.8c0,23.6-19.1,42.7-42.7,42.7c-6,0-11.6-1.2-16.8-3.5
	c2.6,25.9,24.4,46.1,50.9,46.1c28.3,0,51.2-22.9,51.2-51.2C787.3-17.6,767.1-39.4,741.2-42z"/>
<g>
	<path class="st2" d="M684.9,316.2c-2.2,0-4.4-0.8-6-2.5c-3.3-3.3-3.3-8.7,0-12.1l17.1-17.1c3.3-3.3,8.7-3.3,12.1,0
		c3.3,3.3,3.3,8.7,0,12.1l-17.1,17.1C689.3,315.3,687.1,316.2,684.9,316.2z"/>
	<path class="st2" d="M684.9,213.8c-2.2,0-4.4-0.8-6-2.5c-3.3-3.3-3.3-8.7,0-12.1l17.1-17.1c3.3-3.3,8.7-3.3,12.1,0
		c3.3,3.3,3.3,8.7,0,12.1l-17.1,17.1C689.3,212.9,687.1,213.8,684.9,213.8z"/>
	<path class="st2" d="M684.9,358.8c-2.2,0-4.4-0.8-6-2.5l-17.1-17.1c-3.3-3.3-3.3-8.7,0-12.1c3.3-3.3,8.7-3.3,12.1,0l17.1,17.1
		c3.3,3.3,3.3,8.7,0,12.1C689.3,358,687.1,358.8,684.9,358.8z"/>
	<path class="st2" d="M684.9,461.2c-4.7,0-8.5-3.8-8.5-8.5V137c0-4.7,3.8-8.5,8.5-8.5s8.5,3.8,8.5,8.5v315.7
		C693.4,457.4,689.6,461.2,684.9,461.2z"/>
	<path class="st2" d="M684.9,393c-32.9,0-59.7-26.8-59.7-59.7V137c0-32.9,26.8-59.7,59.7-59.7c32.9,0,59.7,26.8,59.7,59.7v196.3
		C744.6,366.2,717.9,393,684.9,393z M684.9,94.3c-23.5,0-42.7,19.1-42.7,42.7v196.3c0,23.5,19.1,42.7,42.7,42.7
		c23.5,0,42.7-19.1,42.7-42.7V137C727.6,113.4,708.4,94.3,684.9,94.3z"/>
	<path class="st2" d="M684.9,256.4c-2.2,0-4.4-0.8-6-2.5l-17.1-17.1c-3.3-3.3-3.3-8.7,0-12.1c3.3-3.3,8.7-3.3,12.1,0l17.1,17.1
		c3.3,3.3,3.3,8.7,0,12.1C689.3,255.6,687.1,256.4,684.9,256.4z"/>
	<path class="st2" d="M1051.9,188.2c-2.2,0-4.4-0.8-6-2.5c-3.3-3.3-3.3-8.7,0-12.1l17.1-17.1c3.3-3.3,8.7-3.3,12.1,0
		c3.3,3.3,3.3,8.7,0,12.1l-17.1,17.1C1056.2,187.3,1054,188.2,1051.9,188.2z"/>
	<path class="st2" d="M1051.9,85.8c-2.2,0-4.4-0.8-6-2.5c-3.3-3.3-3.3-8.7,0-12.1l17.1-17.1c3.3-3.3,8.7-3.3,12.1,0
		c3.3,3.3,3.3,8.7,0,12.1l-17.1,17.1C1056.2,84.9,1054,85.8,1051.9,85.8z"/>
	<path class="st2" d="M1051.9,230.8c-2.2,0-4.4-0.8-6-2.5l-17.1-17.1c-3.3-3.3-3.3-8.7,0-12.1c3.3-3.3,8.7-3.3,12.1,0l17.1,17.1
		c3.3,3.3,3.3,8.7,0,12.1C1056.2,230,1054,230.8,1051.9,230.8z"/>
	<path class="st2" d="M1051.9,339.6c-4.7,0-8.5-3.8-8.5-8.5V9c0-4.7,3.8-8.5,8.5-8.5s8.5,3.8,8.5,8.5v322.1
		C1060.4,335.8,1056.6,339.6,1051.9,339.6z"/>
	<path class="st2" d="M1051.9,265c-32.9,0-59.7-26.8-59.7-59.7V9c0-32.9,26.8-59.7,59.7-59.7c32.9,0,59.7,26.8,59.7,59.7v196.3
		C1111.6,238.2,1084.8,265,1051.9,265z M1051.9-33.7c-23.5,0-42.7,19.1-42.7,42.7v196.3c0,23.5,19.1,42.7,42.7,42.7
		c23.5,0,42.7-19.1,42.7-42.7V9C1094.5-14.6,1075.4-33.7,1051.9-33.7z"/>
	<path class="st2" d="M1051.9,128.4c-2.2,0-4.4-0.8-6-2.5l-17.1-17.1c-3.3-3.3-3.3-8.7,0-12.1c3.3-3.3,8.7-3.3,12.1,0l17.1,17.1
		c3.3,3.3,3.3,8.7,0,12.1C1056.2,127.6,1054,128.4,1051.9,128.4z"/>
	<path class="st2" d="M898.2,461.2H727.6c-3,0-5.8-1.6-7.3-4.1c-1.5-2.6-1.6-5.7-0.2-8.4l85.3-162.1c3-5.6,12.2-5.6,15.1,0
		l85.3,162.1c1.4,2.6,1.3,5.8-0.2,8.4S901.2,461.2,898.2,461.2z M741.7,444.2h142.4l-71.2-135.3L741.7,444.2z"/>
	<path class="st2" d="M1128.6,461.2H898.2c-3.2,0-6.1-1.8-7.6-4.6l-85.3-162.1c-1.4-2.6-1.3-5.8,0.3-8.4c1.5-2.6,4.3-4.1,7.3-4.1
		h213.3c2.9,0,5.6,1.5,7.2,4l102.4,162.1c1.7,2.6,1.8,6,0.3,8.7C1134.6,459.5,1131.8,461.2,1128.6,461.2z M903.4,444.2h209.8
		l-91.6-145.1H827L903.4,444.2z"/>
	<path class="st2" d="M812.9,461.2c-4.7,0-8.5-3.8-8.5-8.5V290.6c0-4.7,3.8-8.5,8.5-8.5s8.5,3.8,8.5,8.5v162.1
		C821.4,457.4,817.6,461.2,812.9,461.2z"/>
	<path class="st2" d="M1060.4,427.1h-128c-3.1,0-6-1.7-7.5-4.4l-51.2-93.9c-1.4-2.6-1.4-5.9,0.2-8.4c1.5-2.6,4.3-4.2,7.3-4.2h119.5
		c2.9,0,5.6,1.5,7.2,3.9l59.7,93.9c1.7,2.6,1.8,6,0.3,8.7C1066.4,425.4,1063.5,427.1,1060.4,427.1z M937.5,410h107.4L996,333.2
		H895.6L937.5,410z"/>
	<path class="st2" d="M812.9,213.8c-4.7,0-8.5-3.8-8.5-8.5c0-9.4-7.7-17.1-17.1-17.1c-4.7,0-8.5-3.8-8.5-8.5s3.8-8.5,8.5-8.5
		c9.1,0,17.3,3.6,23.5,9.4c8.7-15.8,25.5-26.4,44.8-26.4c4.7,0,8.5,3.8,8.5,8.5s-3.8,8.5-8.5,8.5c-18.8,0-34.1,15.3-34.1,34.1
		C821.4,209.9,817.6,213.8,812.9,213.8z"/>
	<path class="st2" d="M932.4,102.8h-85.3c-18.8,0-34.1-15.3-34.1-34.1c0-20,17.7-36.1,37.6-33.9C857.2,19.4,872.5,9,889.7,9
		c17.2,0,32.6,10.4,39.2,25.8c19.9-2.1,37.6,14,37.6,33.9C966.5,87.5,951.2,102.8,932.4,102.8z M847.1,51.6
		c-9.4,0-17.1,7.7-17.1,17.1c0,9.4,7.7,17.1,17.1,17.1h85.3c9.4,0,17.1-7.7,17.1-17.1c0-11.4-11.6-20.4-23.2-15.9
		c-2.3,0.9-5,0.8-7.2-0.5c-2.2-1.2-3.8-3.3-4.3-5.8C912.4,34.7,901.9,26,889.7,26c-12.2,0-22.7,8.6-25.1,20.5
		c-0.5,2.5-2.1,4.6-4.3,5.8c-2.2,1.2-4.8,1.4-7.2,0.5C851.1,52,849.1,51.6,847.1,51.6z"/>
	<path class="st2" d="M736.1,68.7c-30.9,0-56.4-23.1-59.4-53.8c-0.3-3,1-5.9,3.5-7.7c2.4-1.8,5.6-2.1,8.4-1C692.8,8,697.4,9,702,9
		c18.8,0,34.1-15.3,34.1-34.1c0-4.6-0.9-9.2-2.8-13.4c-1.2-2.8-0.8-6,1-8.4c1.8-2.4,4.7-3.7,7.7-3.5c30.7,3,53.8,28.6,53.8,59.4
		C795.9,41.9,769.1,68.7,736.1,68.7z M696.9,25.8c6.5,15.4,21.7,25.9,39.3,25.9c23.5,0,42.7-19.1,42.7-42.7
		c0-17.6-10.5-32.7-25.9-39.3c0.2,1.7,0.3,3.4,0.3,5.1c0,28.2-23,51.2-51.2,51.2C700.3,26,698.6,25.9,696.9,25.8z"/>
</g>
</svg>
