<?xml version="1.0" encoding="iso-8859-1"?>
<!-- Generator: Adobe Illustrator 19.0.0, SVG Export Plug-In . SVG Version: 6.00 Build 0)  -->
<svg version="1.1" id="Capa_1" xmlns="http://www.w3.org/2000/svg" xmlns:xlink="http://www.w3.org/1999/xlink" x="0px" y="0px"
	 viewBox="0 0 512.002 512.002" style="enable-background:new 0 0 512.002 512.002;" xml:space="preserve">
<path style="fill:#C6E2F7;" d="M443.736,294.188V59.743c0-28.279-22.921-51.2-51.2-51.2l0,0c-28.279,0-51.2,22.921-51.2,51.2
	v234.445c-38.699,20.19-64.043,62.447-59.127,110.131c5.274,51.149,46.549,92.791,97.664,98.458
	c66.935,7.407,123.597-44.791,123.597-110.234C503.469,349.757,479.209,312.697,443.736,294.188z"/>
<path style="fill:#366DB6;" d="M409.602,326.512v-61.969c0-9.429-7.646-17.067-17.067-17.067s-17.067,7.637-17.067,17.067v61.969
	c-29.431,7.586-51.2,34.227-51.2,66.031c0,37.7,30.566,68.267,68.267,68.267s68.267-30.566,68.267-68.267
	C460.802,360.748,439.034,334.107,409.602,326.512z"/>
<path style="fill:#E7ECED;" d="M136.535,273.076c-0.009,0-0.017,0-0.017,0c-2.953-0.009-5.632-1.707-6.903-4.369l-15.164-31.71
	l-38.298,5.291c-2.935,0.427-5.828-0.905-7.458-3.379c-1.63-2.466-1.698-5.649-0.179-8.183l20.659-34.449l-20.668-34.449
	c-1.579-2.628-1.442-5.931,0.341-8.422s4.855-3.695,7.859-3.038l37.743,8.115l15.181-34.423c1.22-2.79,3.977-4.582,7.023-4.582
	s5.803,1.792,7.031,4.582l15.172,34.415l37.495-8.107c3.004-0.649,6.084,0.555,7.868,3.038c1.783,2.492,1.92,5.803,0.341,8.422
	l-20.668,34.449l20.668,34.449c1.519,2.543,1.451,5.726-0.179,8.183c-1.63,2.475-4.514,3.78-7.467,3.379l-38.084-5.291
	l-15.386,31.744C142.159,271.395,139.479,273.076,136.535,273.076z"/>
<g>
	<path style="fill:#4D007E;" d="M392.245,511.993c-4.429,0-8.866-0.239-13.312-0.734c-55.253-6.118-99.499-50.722-105.207-106.061
		c-4.898-47.462,18.176-92.442,59.076-116.053V59.743c0-32.939,26.795-59.733,59.733-59.733s59.733,26.795,59.733,59.733v229.402
		c36.975,21.359,59.733,60.51,59.733,103.398c0,33.929-14.507,66.381-39.799,89.028
		C450.229,501.241,421.668,511.993,392.245,511.993z M392.535,17.076c-23.526,0-42.667,19.14-42.667,42.667v234.445
		c0,3.183-1.766,6.093-4.582,7.569c-37.513,19.567-58.94,59.486-54.588,101.692c4.89,47.403,42.786,85.606,90.112,90.846
		c29.602,3.277,58.027-5.751,80-25.429c21.692-19.43,34.125-47.241,34.125-76.322c0-38.255-21.129-73.045-55.151-90.786
		c-2.816-1.476-4.582-4.386-4.582-7.569V59.743C435.202,36.217,416.062,17.076,392.535,17.076z"/>
	<path style="fill:#4D007E;" d="M392.535,426.676c-18.825,0-34.133-15.309-34.133-34.133s15.309-34.133,34.133-34.133
		c4.71,0,8.533,3.823,8.533,8.533s-3.823,8.533-8.533,8.533c-9.412,0-17.067,7.654-17.067,17.067
		c0,9.412,7.654,17.067,17.067,17.067c9.412,0,17.067-7.654,17.067-17.067c0-4.71,3.823-8.533,8.533-8.533s8.533,3.823,8.533,8.533
		C426.669,411.367,411.36,426.676,392.535,426.676z"/>
	<path style="fill:#4D007E;" d="M392.535,469.343c-42.351,0-76.8-34.458-76.8-76.8c0-32.751,20.745-61.611,51.2-72.346v-55.654
		c0-14.114,11.486-25.6,25.6-25.6s25.6,11.486,25.6,25.6v55.654c30.455,10.735,51.2,39.595,51.2,72.346
		C469.335,434.885,434.886,469.343,392.535,469.343z M392.535,256.01c-4.71,0-8.533,3.831-8.533,8.533v61.969
		c0,3.891-2.637,7.287-6.4,8.26c-26.377,6.801-44.8,30.558-44.8,57.771c0,32.939,26.795,59.733,59.733,59.733
		s59.733-26.795,59.733-59.733c0-27.213-18.423-50.97-44.8-57.771c-3.763-0.964-6.4-4.369-6.4-8.26v-61.969
		C401.069,259.841,397.246,256.01,392.535,256.01z"/>
	<path style="fill:#4D007E;" d="M136.535,281.61c-0.009,0-0.017,0-0.026,0c-3.277-0.009-6.263-1.894-7.671-4.855l-16.845-35.234
		l-42.556,5.871c-3.268,0.469-6.477-1.007-8.286-3.746c-1.809-2.739-1.886-6.281-0.196-9.097l22.963-38.272l-22.963-38.272
		c-1.749-2.918-1.604-6.588,0.375-9.361c1.98-2.765,5.393-4.105,8.73-3.379l41.933,9.011l16.862-38.246
		c1.365-3.089,4.429-5.086,7.817-5.086s6.443,1.997,7.808,5.094l16.862,38.238l41.66-9.003c3.337-0.717,6.758,0.614,8.738,3.371
		c1.98,2.765,2.133,6.443,0.375,9.361l-22.963,38.272l22.963,38.272c1.69,2.825,1.613,6.357-0.196,9.097
		c-1.809,2.748-5.018,4.198-8.294,3.746l-42.317-5.871l-17.092,35.277C142.79,279.741,139.804,281.61,136.535,281.61z
		 M117.003,223.685c3.251,0,6.263,1.86,7.697,4.855l11.887,24.866l12.075-24.9c1.613-3.328,5.18-5.265,8.849-4.736l30.797,4.275
		l-16.427-27.375c-1.621-2.705-1.621-6.076,0-8.781l15.462-25.771l-29.21,6.315c-3.959,0.828-7.979-1.195-9.609-4.898
		l-11.861-26.897l-11.861,26.897c-1.63,3.712-5.649,5.751-9.6,4.898l-29.5-6.34l15.479,25.796c1.621,2.705,1.621,6.076,0,8.781
		l-16.435,27.383l31.078-4.292C116.226,223.711,116.619,223.685,117.003,223.685z"/>
	<path style="fill:#4D007E;" d="M136.535,128.01c-4.71,0-8.533-3.823-8.533-8.533V34.143c0-4.71,3.823-8.533,8.533-8.533
		s8.533,3.823,8.533,8.533v85.333C145.069,124.187,141.246,128.01,136.535,128.01z"/>
	<path style="fill:#4D007E;" d="M136.535,93.876c-2.185,0-4.369-0.836-6.033-2.5c-3.337-3.337-3.337-8.73,0-12.066l25.6-25.6
		c3.328-3.337,8.738-3.337,12.066,0c3.337,3.337,3.337,8.73,0,12.066l-25.6,25.6C140.905,93.04,138.72,93.876,136.535,93.876z"/>
	<path style="fill:#4D007E;" d="M136.535,93.876c-2.185,0-4.369-0.836-6.033-2.5l-25.6-25.6c-3.337-3.337-3.337-8.73,0-12.066
		c3.328-3.337,8.738-3.337,12.066,0l25.6,25.6c3.337,3.337,3.337,8.73,0,12.066C140.905,93.04,138.72,93.876,136.535,93.876z"/>
	<path style="fill:#4D007E;" d="M136.535,366.943c-4.71,0-8.533-3.823-8.533-8.533v-85.333c0-4.71,3.823-8.533,8.533-8.533
		s8.533,3.823,8.533,8.533v85.333C145.069,363.12,141.246,366.943,136.535,366.943z"/>
	<path style="fill:#4D007E;" d="M110.935,341.343c-2.185,0-4.369-0.836-6.033-2.5c-3.337-3.337-3.337-8.73,0-12.066l25.6-25.6
		c3.328-3.337,8.738-3.337,12.066,0c3.337,3.337,3.337,8.73,0,12.066l-25.6,25.6C115.305,340.507,113.12,341.343,110.935,341.343z"
		/>
	<path style="fill:#4D007E;" d="M162.135,341.343c-2.185,0-4.369-0.836-6.033-2.5l-25.6-25.6c-3.337-3.337-3.337-8.73,0-12.066
		c3.328-3.337,8.738-3.337,12.066,0l25.6,25.6c3.337,3.337,3.337,8.73,0,12.066C166.505,340.507,164.32,341.343,162.135,341.343z"/>
	<path style="fill:#4D007E;" d="M264.535,204.81h-85.333c-4.71,0-8.533-3.823-8.533-8.533s3.823-8.533,8.533-8.533h85.333
		c4.71,0,8.533,3.823,8.533,8.533S269.246,204.81,264.535,204.81z"/>
	<path style="fill:#4D007E;" d="M238.935,230.41c-2.185,0-4.369-0.836-6.033-2.5l-25.6-25.6c-3.337-3.337-3.337-8.73,0-12.066
		c3.328-3.337,8.738-3.337,12.066,0l25.6,25.6c3.337,3.337,3.337,8.73,0,12.066C243.305,229.573,241.12,230.41,238.935,230.41z"/>
	<path style="fill:#4D007E;" d="M213.335,204.81c-2.185,0-4.369-0.836-6.033-2.5c-3.337-3.337-3.337-8.73,0-12.066l25.6-25.6
		c3.328-3.337,8.738-3.337,12.066,0c3.337,3.337,3.337,8.73,0,12.066l-25.6,25.6C217.705,203.973,215.52,204.81,213.335,204.81z"/>
	<path style="fill:#4D007E;" d="M8.535,307.21c-2.185,0-4.369-0.836-6.033-2.5c-3.337-3.337-3.337-8.73,0-12.066l59.733-59.733
		c3.328-3.337,8.738-3.337,12.066,0c3.337,3.337,3.337,8.73,0,12.066l-59.733,59.733C12.905,306.373,10.72,307.21,8.535,307.21z"/>
	<path style="fill:#4D007E;" d="M42.669,273.076H8.535c-4.71,0-8.533-3.823-8.533-8.533c0-4.71,3.823-8.533,8.533-8.533h34.133
		c4.71,0,8.533,3.823,8.533,8.533C51.202,269.253,47.379,273.076,42.669,273.076z"/>
	<path style="fill:#4D007E;" d="M42.669,307.21c-4.71,0-8.533-3.823-8.533-8.533v-34.133c0-4.71,3.823-8.533,8.533-8.533
		s8.533,3.823,8.533,8.533v34.133C51.202,303.387,47.379,307.21,42.669,307.21z"/>
	<path style="fill:#4D007E;" d="M264.535,307.21c-2.185,0-4.369-0.836-6.033-2.5l-59.733-59.733c-3.337-3.337-3.337-8.73,0-12.066
		c3.328-3.337,8.738-3.337,12.066,0l59.733,59.733c3.337,3.337,3.337,8.73,0,12.066C268.905,306.373,266.72,307.21,264.535,307.21z"
		/>
	<path style="fill:#4D007E;" d="M264.535,273.076h-34.133c-4.71,0-8.533-3.823-8.533-8.533c0-4.71,3.823-8.533,8.533-8.533h34.133
		c4.71,0,8.533,3.823,8.533,8.533C273.069,269.253,269.246,273.076,264.535,273.076z"/>
	<path style="fill:#4D007E;" d="M230.402,307.21c-4.71,0-8.533-3.823-8.533-8.533v-34.133c0-4.71,3.823-8.533,8.533-8.533
		s8.533,3.823,8.533,8.533v34.133C238.935,303.387,235.113,307.21,230.402,307.21z"/>
	<path style="fill:#4D007E;" d="M204.802,162.143c-2.185,0-4.369-0.836-6.033-2.5c-3.337-3.337-3.337-8.73,0-12.066l59.733-59.733
		c3.328-3.337,8.738-3.337,12.066,0c3.337,3.337,3.337,8.73,0,12.066l-59.733,59.733
		C209.171,161.307,206.987,162.143,204.802,162.143z"/>
	<path style="fill:#4D007E;" d="M264.535,136.543h-34.133c-4.71,0-8.533-3.823-8.533-8.533c0-4.71,3.823-8.533,8.533-8.533h34.133
		c4.71,0,8.533,3.823,8.533,8.533C273.069,132.72,269.246,136.543,264.535,136.543z"/>
	<path style="fill:#4D007E;" d="M230.402,136.543c-4.71,0-8.533-3.823-8.533-8.533V93.876c0-4.71,3.823-8.533,8.533-8.533
		s8.533,3.823,8.533,8.533v34.133C238.935,132.72,235.113,136.543,230.402,136.543z"/>
	<path style="fill:#4D007E;" d="M68.269,162.143c-2.185,0-4.369-0.836-6.033-2.5L2.502,99.909c-3.337-3.337-3.337-8.73,0-12.066
		c3.328-3.337,8.738-3.337,12.066,0l59.733,59.733c3.337,3.337,3.337,8.73,0,12.066C72.638,161.307,70.453,162.143,68.269,162.143z"
		/>
	<path style="fill:#4D007E;" d="M42.669,136.543H8.535c-4.71,0-8.533-3.823-8.533-8.533c0-4.71,3.823-8.533,8.533-8.533h34.133
		c4.71,0,8.533,3.823,8.533,8.533C51.202,132.72,47.379,136.543,42.669,136.543z"/>
	<path style="fill:#4D007E;" d="M42.669,136.543c-4.71,0-8.533-3.823-8.533-8.533V93.876c0-4.71,3.823-8.533,8.533-8.533
		s8.533,3.823,8.533,8.533v34.133C51.202,132.72,47.379,136.543,42.669,136.543z"/>
	<path style="fill:#4D007E;" d="M93.869,204.81H8.535c-4.71,0-8.533-3.823-8.533-8.533s3.823-8.533,8.533-8.533h85.333
		c4.71,0,8.533,3.823,8.533,8.533S98.579,204.81,93.869,204.81z"/>
	<path style="fill:#4D007E;" d="M59.735,204.81c-2.185,0-4.369-0.836-6.033-2.5l-25.6-25.6c-3.337-3.337-3.337-8.73,0-12.066
		c3.328-3.337,8.738-3.337,12.066,0l25.6,25.6c3.337,3.337,3.337,8.73,0,12.066C64.105,203.973,61.92,204.81,59.735,204.81z"/>
	<path style="fill:#4D007E;" d="M34.135,230.41c-2.185,0-4.369-0.836-6.033-2.5c-3.337-3.337-3.337-8.73,0-12.066l25.6-25.6
		c3.328-3.337,8.738-3.337,12.066,0c3.337,3.337,3.337,8.73,0,12.066l-25.6,25.6C38.505,229.573,36.32,230.41,34.135,230.41z"/>
	<path style="fill:#4D007E;" d="M443.736,76.81h-51.2c-4.71,0-8.533-3.823-8.533-8.533c0-4.71,3.823-8.533,8.533-8.533h51.2
		c4.71,0,8.533,3.823,8.533,8.533C452.269,72.987,448.446,76.81,443.736,76.81z"/>
	<path style="fill:#4D007E;" d="M443.736,162.143h-51.2c-4.71,0-8.533-3.823-8.533-8.533s3.823-8.533,8.533-8.533h51.2
		c4.71,0,8.533,3.823,8.533,8.533S448.446,162.143,443.736,162.143z"/>
	<path style="fill:#4D007E;" d="M443.736,119.476h-34.133c-4.71,0-8.533-3.823-8.533-8.533c0-4.71,3.823-8.533,8.533-8.533h34.133
		c4.71,0,8.533,3.823,8.533,8.533C452.269,115.653,448.446,119.476,443.736,119.476z"/>
	<path style="fill:#4D007E;" d="M443.736,204.81h-34.133c-4.71,0-8.533-3.823-8.533-8.533s3.823-8.533,8.533-8.533h34.133
		c4.71,0,8.533,3.823,8.533,8.533S448.446,204.81,443.736,204.81z"/>
</g>
<g>
</g>
<g>
</g>
<g>
</g>
<g>
</g>
<g>
</g>
<g>
</g>
<g>
</g>
<g>
</g>
<g>
</g>
<g>
</g>
<g>
</g>
<g>
</g>
<g>
</g>
<g>
</g>
<g>
</g>
</svg>
