<?xml version="1.0" encoding="utf-8"?>
<!-- Generator: Adobe Illustrator 24.0.0, SVG Export Plug-In . SVG Version: 6.00 Build 0)  -->
<svg version="1.1" id="Layer_1" xmlns="http://www.w3.org/2000/svg" xmlns:xlink="http://www.w3.org/1999/xlink" x="0px" y="0px"
	 viewBox="0 0 512 512" style="enable-background:new 0 0 512 512;" xml:space="preserve">
<style type="text/css">
	.st0{fill:#61B872;}
	.st1{fill:#1F436D;}
	.st2{fill:#366DB6;}
	.st3{fill:#E7ECED;}
	.st4{fill:#EFCE4A;}
	.st5{fill:#4D007E;}
	.st6{fill:#61B872;stroke:#4D007E;stroke-width:16;stroke-miterlimit:10;}
</style>
<path class="st0" d="M1140.2,1157.2c-28.3,0-51.2-22.9-51.2-51.2V909.8c0-28.3,22.9-51.2,51.2-51.2c28.3,0,51.2,22.9,51.2,51.2V1106
	C1191.4,1134.3,1168.5,1157.2,1140.2,1157.2z"/>
<path class="st0" d="M1507.2,1029.2c-28.3,0-51.2-22.9-51.2-51.2V781.8c0-28.3,22.9-51.2,51.2-51.2c28.3,0,51.2,22.9,51.2,51.2V978
	C1558.4,1006.3,1535.4,1029.2,1507.2,1029.2z"/>
<path class="st1" d="M1268.2,1063.4l-85.3,162.1h196.3L1268.2,1063.4z"/>
<path class="st2" d="M1584,1225.5h-230.4l-85.3-162.1h213.3L1584,1225.5z"/>
<path class="st1" d="M1515.7,1191.4h-128l-51.2-93.9H1456L1515.7,1191.4z"/>
<path class="st3" d="M1387.7,815.9c-3.3,0-6.3,0.7-9.2,1.8c-3.1-15.6-16.9-27.4-33.4-27.4c-16.5,0-30.3,11.8-33.5,27.4
	c-2.9-1.1-6-1.8-9.2-1.8c-14.1,0-25.6,11.5-25.6,25.6c0,14.1,11.5,25.6,25.6,25.6h85.3c14.1,0,25.6-11.5,25.6-25.6
	C1413.3,827.4,1401.8,815.9,1387.7,815.9z"/>
<path class="st4" d="M1196.5,730.8c2.2,5.2,3.5,10.8,3.5,16.8c0,23.6-19.1,42.7-42.7,42.7c-6,0-11.6-1.2-16.8-3.5
	c2.6,25.9,24.4,46.1,50.9,46.1c28.3,0,51.2-22.9,51.2-51.2C1242.6,755.2,1222.4,733.4,1196.5,730.8z"/>
<path class="st5" d="M1140.2,1089c-2.2,0-4.4-0.8-6-2.5c-3.3-3.3-3.3-8.7,0-12.1l17.1-17.1c3.3-3.3,8.7-3.3,12.1,0
	c3.3,3.3,3.3,8.7,0,12.1l-17.1,17.1C1144.6,1088.1,1142.4,1089,1140.2,1089z"/>
<path class="st5" d="M1140.2,986.6c-2.2,0-4.4-0.8-6-2.5c-3.3-3.3-3.3-8.7,0-12.1l17.1-17.1c3.3-3.3,8.7-3.3,12.1,0
	c3.3,3.3,3.3,8.7,0,12.1l-17.1,17.1C1144.6,985.7,1142.4,986.6,1140.2,986.6z"/>
<path class="st5" d="M1140.2,1131.6c-2.2,0-4.4-0.8-6-2.5l-17.1-17.1c-3.3-3.3-3.3-8.7,0-12.1c3.3-3.3,8.7-3.3,12.1,0l17.1,17.1
	c3.3,3.3,3.3,8.7,0,12.1C1144.6,1130.8,1142.4,1131.6,1140.2,1131.6z"/>
<path class="st5" d="M1140.2,1234c-4.7,0-8.5-3.8-8.5-8.5V909.8c0-4.7,3.8-8.5,8.5-8.5s8.5,3.8,8.5,8.5v315.7
	C1148.8,1230.2,1144.9,1234,1140.2,1234z"/>
<path class="st5" d="M1140.2,1165.8c-32.9,0-59.7-26.8-59.7-59.7V909.8c0-32.9,26.8-59.7,59.7-59.7c32.9,0,59.7,26.8,59.7,59.7V1106
	C1200,1139,1173.2,1165.8,1140.2,1165.8z M1140.2,867.1c-23.5,0-42.7,19.1-42.7,42.7V1106c0,23.5,19.1,42.7,42.7,42.7
	c23.5,0,42.7-19.1,42.7-42.7V909.8C1182.9,886.2,1163.8,867.1,1140.2,867.1z"/>
<path class="st5" d="M1140.2,1029.2c-2.2,0-4.4-0.8-6-2.5l-17.1-17.1c-3.3-3.3-3.3-8.7,0-12.1c3.3-3.3,8.7-3.3,12.1,0l17.1,17.1
	c3.3,3.3,3.3,8.7,0,12.1C1144.6,1028.4,1142.4,1029.2,1140.2,1029.2z"/>
<path class="st5" d="M1507.2,961c-2.2,0-4.4-0.8-6-2.5c-3.3-3.3-3.3-8.7,0-12.1l17.1-17.1c3.3-3.3,8.7-3.3,12.1,0
	c3.3,3.3,3.3,8.7,0,12.1l-17.1,17.1C1511.5,960.1,1509.3,961,1507.2,961z"/>
<path class="st5" d="M1507.2,858.6c-2.2,0-4.4-0.8-6-2.5c-3.3-3.3-3.3-8.7,0-12.1l17.1-17.1c3.3-3.3,8.7-3.3,12.1,0
	c3.3,3.3,3.3,8.7,0,12.1l-17.1,17.1C1511.5,857.7,1509.3,858.6,1507.2,858.6z"/>
<path class="st5" d="M1507.2,1003.6c-2.2,0-4.4-0.8-6-2.5l-17.1-17.1c-3.3-3.3-3.3-8.7,0-12.1c3.3-3.3,8.7-3.3,12.1,0l17.1,17.1
	c3.3,3.3,3.3,8.7,0,12.1C1511.5,1002.8,1509.3,1003.6,1507.2,1003.6z"/>
<path class="st5" d="M1507.2,1112.4c-4.7,0-8.5-3.8-8.5-8.5V781.8c0-4.7,3.8-8.5,8.5-8.5s8.5,3.8,8.5,8.5v322.1
	C1515.7,1108.6,1511.9,1112.4,1507.2,1112.4z"/>
<path class="st5" d="M1507.2,1037.8c-32.9,0-59.7-26.8-59.7-59.7V781.8c0-32.9,26.8-59.7,59.7-59.7c32.9,0,59.7,26.8,59.7,59.7V978
	C1566.9,1011,1540.1,1037.8,1507.2,1037.8z M1507.2,739.1c-23.5,0-42.7,19.1-42.7,42.7V978c0,23.5,19.1,42.7,42.7,42.7
	c23.5,0,42.7-19.1,42.7-42.7V781.8C1549.8,758.2,1530.7,739.1,1507.2,739.1z"/>
<path class="st5" d="M1507.2,901.2c-2.2,0-4.4-0.8-6-2.5l-17.1-17.1c-3.3-3.3-3.3-8.7,0-12.1c3.3-3.3,8.7-3.3,12.1,0l17.1,17.1
	c3.3,3.3,3.3,8.7,0,12.1C1511.5,900.4,1509.3,901.2,1507.2,901.2z"/>
<path class="st5" d="M1353.6,1234h-170.7c-3,0-5.8-1.6-7.3-4.1c-1.5-2.6-1.6-5.7-0.2-8.4l85.3-162.1c3-5.6,12.2-5.6,15.1,0
	l85.3,162.1c1.4,2.6,1.3,5.8-0.2,8.4S1356.6,1234,1353.6,1234z M1197,1217h142.4l-71.2-135.3L1197,1217z"/>
<path class="st5" d="M1584,1234h-230.4c-3.2,0-6.1-1.8-7.6-4.6l-85.3-162.1c-1.4-2.6-1.3-5.8,0.3-8.4c1.5-2.6,4.3-4.1,7.3-4.1h213.3
	c2.9,0,5.6,1.5,7.2,4l102.4,162.1c1.7,2.6,1.8,6,0.3,8.7C1589.9,1232.3,1587.1,1234,1584,1234z M1358.7,1217h209.8l-91.6-145.1
	h-194.5L1358.7,1217z"/>
<path class="st5" d="M1268.2,1234c-4.7,0-8.5-3.8-8.5-8.5v-162.1c0-4.7,3.8-8.5,8.5-8.5s8.5,3.8,8.5,8.5v162.1
	C1276.8,1230.2,1272.9,1234,1268.2,1234z"/>
<path class="st5" d="M1515.7,1199.9h-128c-3.1,0-6-1.7-7.5-4.4l-51.2-93.9c-1.4-2.6-1.4-5.9,0.2-8.4c1.5-2.6,4.3-4.2,7.3-4.2H1456
	c2.9,0,5.6,1.5,7.2,3.9l59.7,93.9c1.7,2.6,1.8,6,0.3,8.7C1521.7,1198.2,1518.8,1199.9,1515.7,1199.9z M1392.8,1182.8h107.4
	l-48.9-76.8h-100.4L1392.8,1182.8z"/>
<path class="st5" d="M1268.2,986.6c-4.7,0-8.5-3.8-8.5-8.5c0-9.4-7.7-17.1-17.1-17.1c-4.7,0-8.5-3.8-8.5-8.5s3.8-8.5,8.5-8.5
	c9.1,0,17.3,3.6,23.5,9.4c8.7-15.8,25.5-26.4,44.8-26.4c4.7,0,8.5,3.8,8.5,8.5s-3.8,8.5-8.5,8.5c-18.8,0-34.1,15.3-34.1,34.1
	C1276.8,982.7,1272.9,986.6,1268.2,986.6z"/>
<path class="st5" d="M1387.7,875.6h-85.3c-18.8,0-34.1-15.3-34.1-34.1c0-20,17.7-36.1,37.6-33.9c6.6-15.3,21.9-25.8,39.2-25.8
	c17.2,0,32.6,10.4,39.2,25.8c19.9-2.1,37.6,14,37.6,33.9C1421.8,860.3,1406.5,875.6,1387.7,875.6z M1302.4,824.4
	c-9.4,0-17.1,7.7-17.1,17.1c0,9.4,7.7,17.1,17.1,17.1h85.3c9.4,0,17.1-7.7,17.1-17.1c0-11.4-11.6-20.4-23.2-15.9
	c-2.3,0.9-5,0.8-7.2-0.5c-2.2-1.2-3.8-3.3-4.3-5.8c-2.4-11.9-12.9-20.5-25.1-20.5c-12.2,0-22.7,8.6-25.1,20.5
	c-0.5,2.5-2.1,4.6-4.3,5.8c-2.2,1.2-4.8,1.4-7.2,0.5C1306.4,824.8,1304.4,824.4,1302.4,824.4z"/>
<path class="st5" d="M1191.4,841.5c-30.9,0-56.4-23.1-59.4-53.8c-0.3-3,1-5.9,3.5-7.7c2.4-1.8,5.6-2.1,8.4-1
	c4.3,1.8,8.8,2.8,13.4,2.8c18.8,0,34.1-15.3,34.1-34.1c0-4.6-0.9-9.2-2.8-13.4c-1.2-2.8-0.8-6,1-8.4c1.8-2.4,4.7-3.7,7.7-3.5
	c30.7,3,53.8,28.6,53.8,59.4C1251.2,814.7,1224.4,841.5,1191.4,841.5z M1152.2,798.6c6.5,15.4,21.7,25.9,39.3,25.9
	c23.5,0,42.7-19.1,42.7-42.7c0-17.6-10.5-32.7-25.9-39.3c0.2,1.7,0.3,3.4,0.3,5.1c0,28.2-23,51.2-51.2,51.2
	C1155.6,798.8,1153.9,798.7,1152.2,798.6z"/>
<circle class="st6" cx="256" cy="256" r="22.3"/>
<circle class="st6" cx="135.2" cy="256" r="22.3"/>
<circle class="st6" cx="376.8" cy="256" r="22.3"/>
<g>
	<path class="st5" d="M415.1,170.4c44.6,0,80.9,36.3,80.9,80.9v9.6c0,44.6-36.3,80.9-80.9,80.9H96.9c-44.6,0-80.9-36.3-80.9-80.9
		v-9.6c0-44.6,36.3-80.9,80.9-80.9H415.1 M415.1,154.4H96.9C43.4,154.4,0,197.7,0,251.2v9.6c0,53.5,43.4,96.9,96.9,96.9h318.3
		c53.5,0,96.9-43.4,96.9-96.9v-9.6C512,197.7,468.6,154.4,415.1,154.4L415.1,154.4z"/>
</g>
</svg>
