<?xml version="1.0" encoding="iso-8859-1"?>
<!-- Generator: Adobe Illustrator 19.0.0, SVG Export Plug-In . SVG Version: 6.00 Build 0)  -->
<svg version="1.1" id="Capa_1" xmlns="http://www.w3.org/2000/svg" xmlns:xlink="http://www.w3.org/1999/xlink" x="0px" y="0px"
	 viewBox="0 0 512 512" style="enable-background:new 0 0 512 512;" xml:space="preserve">
<rect x="230.399" y="375.485" style="fill:#556080;" width="51.203" height="127.981"/>
<path style="fill:#7383BF;" d="M256,315.749c-18.066,0-35.381-3.081-51.612-8.534h-8.124v59.736c0,9.413,7.629,17.042,17.042,17.042
	h85.397c9.404,0,17.033-7.629,17.033-17.042v-59.736h-8.124C291.381,312.668,274.066,315.749,256,315.749z"/>
<g>
	<path style="fill:#23A24D;" d="M118.683,476.073c2.466,0,4.805,0.742,7.049,1.792c7.749-18.68,21.147-25.601,36.396-25.601
		s28.639,6.921,36.396,25.601c2.244-1.05,4.583-1.792,7.049-1.792c13.714,0,24.825,5.846,24.825,27.393H93.859
		C93.859,481.918,104.97,476.073,118.683,476.073z"/>
	<path style="fill:#23A24D;" d="M306.426,476.073c2.466,0,4.805,0.742,7.049,1.792c7.749-18.68,21.147-25.601,36.396-25.601
		s28.639,6.921,36.396,25.601c2.244-1.05,4.583-1.792,7.049-1.792c13.714,0,24.825,5.846,24.825,27.393h-136.54
		C281.601,481.918,292.712,476.073,306.426,476.073z"/>
</g>
<circle style="fill:#E7ECED;" cx="256" cy="170.675" r="162.141"/>
<g>
	<path style="fill:#4D007E;" d="M230.399,512H93.859c-4.711,0-8.534-3.823-8.534-8.534c0-23.169,11.845-35.927,33.358-35.927
		c0.836,0,1.673,0.051,2.509,0.154c8.824-15.719,22.845-23.963,40.936-23.963s32.113,8.244,40.936,23.963
		c0.836-0.102,1.673-0.154,2.509-0.154c21.514,0,33.358,12.758,33.358,35.927C238.932,508.177,235.109,512,230.399,512z
		 M103.246,494.932h117.766c-2.022-8.389-7.561-10.326-15.438-10.326c-0.896,0-2.014,0.324-3.422,0.981
		c-2.108,0.99-4.523,1.075-6.708,0.23c-2.176-0.845-3.908-2.535-4.796-4.685c-5.76-13.876-14.823-20.336-28.511-20.336
		s-22.751,6.46-28.511,20.336c-0.888,2.151-2.628,3.849-4.796,4.685c-2.176,0.836-4.6,0.751-6.708-0.23
		c-1.408-0.666-2.526-0.981-3.422-0.981C110.807,484.607,105.268,486.544,103.246,494.932z"/>
	<path style="fill:#4D007E;" d="M418.141,512h-136.54c-4.711,0-8.534-3.823-8.534-8.534c0-23.169,11.845-35.927,33.358-35.927
		c0.836,0,1.673,0.051,2.509,0.154c8.824-15.711,22.845-23.963,40.936-23.963s32.113,8.244,40.936,23.963
		c0.836-0.102,1.673-0.154,2.509-0.154c21.514,0,33.358,12.758,33.358,35.927C426.675,508.177,422.852,512,418.141,512z
		 M290.988,494.932h117.766c-2.022-8.389-7.561-10.326-15.438-10.326c-0.896,0-2.014,0.324-3.422,0.981
		c-2.108,0.99-4.531,1.075-6.708,0.23c-2.176-0.845-3.908-2.535-4.796-4.685c-5.76-13.876-14.823-20.336-28.511-20.336
		c-13.688,0-22.751,6.46-28.511,20.336c-0.888,2.151-2.628,3.849-4.796,4.685c-2.176,0.836-4.6,0.751-6.708-0.23
		c-1.408-0.666-2.526-0.981-3.422-0.981C298.549,484.607,293.011,486.544,290.988,494.932z"/>
	<path style="fill:#4D007E;" d="M281.601,512h-51.203c-4.711,0-8.534-3.823-8.534-8.534V383.994c0-4.711,3.823-8.534,8.534-8.534
		h51.203c4.711,0,8.534,3.823,8.534,8.534v119.473C290.135,508.177,286.312,512,281.601,512z M238.932,494.932h34.135V392.527
		h-34.135V494.932z"/>
	<path style="fill:#4D007E;" d="M256,341.35c-94.11,0-170.675-76.565-170.675-170.675S161.89,0,256,0
		s170.675,76.565,170.675,170.675S350.11,341.35,256,341.35z M256,17.068c-84.698,0-153.608,68.91-153.608,153.608
		S171.302,324.283,256,324.283s153.608-68.91,153.608-153.608S340.698,17.068,256,17.068z"/>
	<path style="fill:#4D007E;" d="M298.694,392.527h-85.389c-14.106,0-25.576-11.478-25.576-25.576v-42.669
		c0-4.711,3.823-8.534,8.534-8.534h8.124c0.922,0,1.843,0.154,2.714,0.444c31.942,10.735,65.855,10.735,97.797,0
		c0.879-0.29,1.792-0.444,2.714-0.444h8.124c4.711,0,8.534,3.823,8.534,8.534v42.669
		C324.27,381.049,312.801,392.527,298.694,392.527z M204.797,333.388v33.563c0,4.685,3.815,8.508,8.508,8.508h85.397
		c4.685,0,8.5-3.823,8.5-8.508v-33.563C273.708,343.962,238.292,343.962,204.797,333.388z"/>
	<path style="fill:#4D007E;" d="M273.068,281.614c-4.711,0-8.534-3.823-8.534-8.534s3.823-8.534,8.534-8.534
		c9.413,0,17.068-7.655,17.068-17.068c0-4.711,3.823-8.534,8.534-8.534c4.711,0,8.534,3.823,8.534,8.534
		C307.203,266.305,291.893,281.614,273.068,281.614z"/>
	<path style="fill:#4D007E;" d="M341.338,247.479c-4.711,0-8.534-3.823-8.534-8.534s3.823-8.534,8.534-8.534
		c9.413,0,17.068-7.655,17.068-17.068c0-4.711,3.823-8.534,8.534-8.534c4.711,0,8.534,3.823,8.534,8.534
		C375.473,232.169,360.163,247.479,341.338,247.479z"/>
	<path style="fill:#4D007E;" d="M273.068,221.878c-4.711,0-8.534-3.823-8.534-8.534c0-4.711,3.823-8.534,8.534-8.534
		c9.413,0,17.068-7.655,17.068-17.068c0-4.711,3.823-8.534,8.534-8.534c4.711,0,8.534,3.823,8.534,8.534
		C307.203,206.568,291.893,221.878,273.068,221.878z"/>
	<path style="fill:#4D007E;" d="M341.338,187.743c-4.711,0-8.534-3.823-8.534-8.534c0-4.711,3.823-8.534,8.534-8.534
		c9.413,0,17.068-7.655,17.068-17.068c0-4.711,3.823-8.534,8.534-8.534c4.711,0,8.534,3.823,8.534,8.534
		C375.473,172.433,360.163,187.743,341.338,187.743z"/>
	<path style="fill:#4D007E;" d="M187.738,68.27c-2.953,0-5.829-1.536-7.407-4.275c-2.347-4.088-0.947-9.302,3.14-11.649
		C202.997,41.107,230.783,34.135,256,34.135c4.711,0,8.534,3.823,8.534,8.534s-3.823,8.534-8.534,8.534
		c-22.401,0-46.936,6.102-64.012,15.933C190.64,67.903,189.181,68.27,187.738,68.27z"/>
	<path style="fill:#4D007E;" d="M127.994,179.209L127.994,179.209c-4.711,0-8.534-3.823-8.534-8.534
		c0-29.399,6.016-53.225,18.382-72.827c2.509-3.985,7.774-5.18,11.768-2.663c3.985,2.517,5.189,7.783,2.671,11.777
		c-10.599,16.786-15.753,37.634-15.753,63.713C136.527,175.386,132.704,179.209,127.994,179.209z"/>
</g>
<g>
</g>
<g>
</g>
<g>
</g>
<g>
</g>
<g>
</g>
<g>
</g>
<g>
</g>
<g>
</g>
<g>
</g>
<g>
</g>
<g>
</g>
<g>
</g>
<g>
</g>
<g>
</g>
<g>
</g>
</svg>
