<svg id="Layer_1" enable-background="new 0 0 496.059 496.059" height="512" viewBox="0 0 496.059 496.059" width="512" xmlns="http://www.w3.org/2000/svg"><path d="m480.029 136.059v230c0 8.827-7.154 16-16 16v38c0 8.837-7.163 16-16 16h-59v28c0 8.837-7.163 16-16 16h-250c-8.837 0-16-7.163-16-16v-28h-59c-8.837 0-16-7.163-16-16v-38c-8.827 0-16-7.154-16-16v-230c0-33.137 26.863-60 60-60h61c43.916-57.282 43.379-60 53.894-60 123.164 0 120.344-2.298 126.909 6.265l41.197 53.735h61c33.137 0 60 26.862 60 60z" fill="#b9dcff"/><path d="m248.029 104.059-137 2c-33.137 0-60 26.863-60 60v216h-19c-8.837 0-16-7.163-16-16v-230c0-33.137 26.863-60 60-60h92z" fill="#d1e7ff"/><path d="m123.029 480.059c-8.837 0-16-7.163-16-16 0-6.333 0-268.057 0-261 0-10.493 8.507-19 19-19 10.486 0 19 8.499 19 19v179c0 22.091 17.909 40 40 40h204v42c0 8.837-7.163 16-16 16z" fill="#a2d0ff"/><path d="m389.029 382.059v-184c0-18.495 28-18.527 28 0v140c0 8.837 7.163 16 16 16h47v12c0 8.837-7.163 16-16 16z" fill="#a2d0ff"/><path d="m464.029 382.059v38c0 8.837-7.163 16-16 16h-59v-54z" fill="#d1e7ff"/><path d="m107.029 382.059v54h-59c-8.837 0-16-7.163-16-16v-38z" fill="#d1e7ff"/><path d="m78.029 436.059h-30c-8.84 0-16-7.16-16-16v-38h30v38c0 8.839 7.16 16 16 16z" fill="#e8f3ff"/><path d="m323.029 356.686v43.373c0 8.837-7.163 16-16 16h-118c-8.837 0-16-7.163-16-16 0-46.375-1.4-48.6 4.686-54.686 21.927-21.927 23.869-25.814 32.441-25.814 81.614 0 80.81-1.562 87.059 4.686 21.928 21.927 25.814 23.869 25.814 32.441z" fill="#d1e7ff"/><path d="m305.135 16.059h-114.211c-10.524 0-10.089 2.862-53.894 60l111 28 111-28c-43.917-57.283-43.38-60-53.895-60z" fill="#e8f3ff"/><path d="m311.909 17.568-63.88 86.49-63.88-86.49c4.527-2.113-3.521-1.51 120.99-1.51 2.37.001 4.67.53 6.77 1.51z" fill="#d1e7ff"/><g fill="#2e58ff"><path d="m420.029 60.059c-8.837 0-16 7.163-16 16s7.163 16 16 16c24.262 0 44 19.738 44 44v230h-59v-182c0-8.837-7.163-16-16-16s-16 7.163-16 16v280h-250c0-11.013 0-268.925 0-280 0-8.837-7.164-16-16-16s-16 7.163-16 16v182h-59v-230c0-24.262 19.738-44 44-44h59.014l54.969 13.866v113.134c0 8.837 7.164 16 16 16s16-7.163 16-16v-105.062c24.346 6.141 23.087 5.929 25.182 6.037 3.249.172 2.762.04 26.853-6.038v105.063c0 8.837 7.163 16 16 16s16-7.163 16-16v-113.135l56.896-14.352c11.152-2.812 15.767-16.141 8.784-25.249-50.126-65.38-47.13-62.965-53.025-65.211-3.937-1.486 4.355-1.054-135.672-1.054-3.428 0-7.14 1.176-10.153 3.635-2.045 1.682.608-1.483-43.742 56.365h-53.106c-41.907 0-76 34.094-76 76v246c0 8.837 7.164 16 16 16v38c0 8.837 7.164 16 16 16h59v28c0 8.837 7.164 16 16 16h282c8.837 0 16-7.163 16-16v-28h59c8.837 0 16-7.163 16-16v-38c8.837 0 16-7.163 16-16v-246c0-41.906-34.093-75.999-76-75.999zm-172 17.07-33.291-45.07h66.581zm39.426.483 25.813-34.946 18.267 23.827zm-104.664-34.946 25.813 34.946-44.08-11.119zm-134.762 377.393v-22h43v22zm400 0h-43v-22h43z"/><path d="m292.529 303.559h-89c-4.244 0-8.313 1.686-11.313 4.687l-30.5 30.5c-3.001 3-4.687 7.07-4.687 11.313v66c0 8.837 7.164 16 16 16h150c8.837 0 16-7.163 16-16v-66c0-4.243-1.686-8.313-4.687-11.313l-30.5-30.5c-2.999-3.002-7.07-4.687-11.313-4.687zm14.5 96.5h-118v-43.373l21.127-21.127h75.746l21.127 21.127z"/></g></svg>