<svg height="511pt" viewBox="0 -128 511.99799 511" width="511pt" xmlns="http://www.w3.org/2000/svg"><path d="m354.96875 81.320312c19.046875 4.523438 39.167969-.519531 54.609375-12.558593 12.894531-10.054688 22.519531-37.5625 32.179687-47.648438-30.34375 5.664063-99.230468 16.851563-141.066406 24.054688 15.136719 13.34375 41.015625 33.003906 54.277344 36.152343zm0 0" fill="#b02721"/><path d="m455.777344 10.054688c-11.09375 3.539062-28.234375 30.1875-48.261719 45.796874-15.4375 12.039063-35.558594 17.082032-54.613281 12.558594-13.546875-3.214844-37.738282-10.144531-53.191406-24.0625-7.714844-6.945312-17.699219-10.84375-28.074219-10.410156-14.660157.621094-35.105469 4.222656-49.875 17.757812l-76.738281 53.714844c-5.597657 3.914063-12.25 6.015625-19.085938 6.015625h-40.695312s-76.710938-2.132812-76.710938 51.195313v-1.75c0 6.820312 2.742188 13.289062 7.671875 17.996094 1.765625 1.691406 3.839844 16.042968 6.160156 17.886718 24.644531 19.589844 55.515625 34.132813 86.996094 34.132813h351.632813c11.355468 0 22.644531-9.335938 30.957031-17.066407 5.699219-5.300781 11.484375-24.175781 11.484375-34.132812v-76.796875s1.722656-55.003906-25.191406-86.625c-5.460938-6.417969-14.425782-8.78125-22.464844-6.210937zm0 0" fill="#dd352e"/><path d="m110.84375 158.363281c0-16.40625-2.355469-32.160156-6.546875-46.929687h-19.054687s-75.777344-2.046875-76.710938 50.277344c.222656 6.5 2.902344 12.652343 7.628906 17.167968 1.765625 1.6875 3.867188 3.480469 6.1875 5.324219 22.636719 17.996094 50.566406 27.824219 79.375 29.316406 5.816406-17.082031 9.121094-35.648437 9.121094-55.15625zm0 0" fill="#b02721"/><path d="m443.625 137.03125c0 23.5625-19.101562 42.664062-42.664062 42.664062s-42.664063-19.101562-42.664063-42.664062 19.101563-42.664062 42.664063-42.664062 42.664062 19.101562 42.664062 42.664062zm0 0" fill="#f7e6a1"/><path d="m491.957031 202.316406c-8.320312 7.730469-19.609375 11.511719-30.957031 11.511719h-351.640625c-18.867187 0-37.488281-3.675781-54.699219-10.777344-.722656-.296875-1.484375-.539062-2.199218-.84375-1.261719-.554687-2.476563-1.222656-3.722657-1.808593-9.300781-4.363282-18.171875-9.675782-26.324219-16.144532-2.34375-1.859375-4.460937-3.671875-6.253906-5.386718-2.4375-2.335938-4.308594-5.117188-5.605468-8.148438-.101563-.238281-.144532-.492188-.238282-.734375-.503906-1.253906-.929687-2.542969-1.210937-3.871094-.101563-.488281-.121094-1-.195313-1.496093-.128906-.84375-.335937-1.132813-.378906-1.988282v32.382813c0 6.820312 2.742188 13.285156 7.671875 17.996093 1.765625 1.691407 3.839844 3.484376 6.160156 5.324219 24.644531 19.59375 55.515625 29.628907 86.996094 29.628907h351.632813c11.355468 0 22.644531-3.78125 30.957031-11.511719 5.707031-5.289063 11.492187-12.671875 11.492187-22.621094v-34.132813c0 9.949219-5.785156 17.332032-11.484375 22.621094zm0 0" fill="#e7eced"/><g fill="#4d007e"><path d="m366.8125 78.554688c-5.339844 0-10.675781-.605469-15.871094-1.832032-24.855468-5.90625-43.664062-14.363281-55.898437-25.140625-2.464844-2.175781-3.464844-5.5625-2.570313-8.726562.898438-3.167969 3.523438-5.53125 6.757813-6.085938 15.378906-2.652343 34.414062-5.835937 53.84375-9.085937 33.421875-5.589844 67.992187-11.375 87.105469-14.941406 3.640624-.707032 7.304687 1.066406 9.070312 4.324218 1.765625 3.261719 1.21875 7.289063-1.339844 9.960938-2.628906 2.746094-5.410156 5.828125-8.320312 9.058594-7.9375 8.808593-16.929688 18.78125-26.828125 26.496093-13.335938 10.402344-29.71875 15.972657-45.949219 15.972657zm-11.929688-18.445313c15.992188 3.820313 33.707032-.308594 47.390626-10.984375 5.558593-4.324219 11-9.710938 16.15625-15.179688-18.261719 3.15625-40.636719 6.902344-62.53125 10.5625-10.957032 1.835938-21.777344 3.644532-31.894532 5.351563 8.539063 3.96875 18.855469 7.398437 30.878906 10.25zm0 0"/><path d="m101.722656 222.054688c-.15625 0-.300781 0-.445312-.007813-31.53125-1.640625-60.652344-12.417969-84.238282-31.164063-2.542968-2.023437-4.835937-3.984374-6.773437-5.84375-6.316406-6.042968-9.957031-14.226562-10.2578125-23.046874.2578125-15.019532 5.5039065-27.308594 15.5898435-36.949219 24.175782-23.105469 68.015625-22.160157 69.886719-22.144531h18.820313c3.816406 0 7.167968 2.535156 8.210937 6.207031 4.554687 16.058593 6.867187 32.628906 6.867187 49.257812 0 19.789063-3.222656 39.277344-9.582031 57.914063-1.195312 3.472656-4.453125 5.777344-8.078125 5.777344zm-17.339844-102.097657c-5.828124 0-39.585937.734375-57.027343 17.457031-6.75 6.46875-10.109375 14.464844-10.289063 24.441407.144532 3.898437 1.917969 7.910156 4.992188 10.84375 1.601562 1.527343 3.496094 3.148437 5.597656 4.8125 19.15625 15.230469 42.542969 24.5 67.980469 26.988281 4.4375-14.949219 6.679687-30.445312 6.679687-46.152344 0-12.917968-1.542968-25.804687-4.589844-38.398437h-12.484374c-.050782.015625-.339844.007812-.859376.007812zm0 0"/><path d="m204.703125 145.566406c-2.183594 0-4.367187-.835937-6.03125-2.5l-43.167969-43.167968c-3.335937-3.339844-3.335937-8.730469 0-12.066407 3.328125-3.335937 8.730469-3.335937 12.066406 0l43.167969 43.167969c3.335938 3.335938 3.335938 8.726562 0 12.066406-1.664062 1.664063-3.847656 2.5-6.035156 2.5zm0 0"/><path d="m238.835938 119.964844c-2.183594 0-4.367188-.835938-6.03125-2.5l-42.164063-42.160156c-3.335937-3.335938-3.335937-8.730469 0-12.066407 3.328125-3.335937 8.738281-3.335937 12.066406 0l42.160157 42.164063c3.339843 3.335937 3.339843 8.726562 0 12.0625-1.664063 1.664062-3.847657 2.5-6.03125 2.5zm0 0"/><path d="m272.96875 94.367188c-2.183594 0-4.371094-.835938-6.035156-2.5l-41.347656-41.351563c-3.335938-3.335937-3.335938-8.726563 0-12.0625 3.328124-3.339844 8.734374-3.339844 12.0625 0l41.351562 41.347656c3.335938 3.335938 3.335938 8.730469 0 12.066407-1.664062 1.664062-3.847656 2.5-6.03125 2.5zm0 0"/><path d="m400.960938 188.230469c-28.226563 0-51.195313-22.964844-51.195313-51.199219s22.96875-51.195312 51.195313-51.195312c28.226562 0 51.199218 22.960937 51.199218 51.195312s-22.972656 51.199219-51.199218 51.199219zm0-85.332031c-18.824219 0-34.132813 15.308593-34.132813 34.132812s15.308594 34.132812 34.132813 34.132812c18.824218 0 34.132812-15.308593 34.132812-34.132812s-15.308594-34.132812-34.132812-34.132812zm0 0"/><path d="m460.992188 222.359375h-351.625c-33.996094 0-66.78125-11.175781-92.308594-31.476563-2.542969-2.023437-4.8125-3.984374-6.75-5.84375-5.804688-5.539062-9.328125-12.785156-10.128906-20.675781-.1210942-.554687-.179688-1.144531-.179688-1.734375v-1.757812c0-.347656.015625-.6875.0585938-1.023438.6054682-13.683594 5.7109372-25.289062 15.1992182-34.523437 24.097657-23.429688 68.355469-22.492188 70.226563-22.425781h40.46875c5.105469 0 10.011719-1.542969 14.191406-4.46875l76.292969-53.398438c16.628906-14.96875 38.96875-18.925781 54.839844-19.601562 12.40625-.570313 24.550781 3.949218 34.148437 12.59375 7.125 6.417968 21.496094 15.460937 49.457031 22.101562 15.992188 3.824219 33.707032-.308594 47.390626-10.980469 8.714843-6.792969 17.179687-16.1875 24.636718-24.472656 10.128906-11.238281 18.132813-20.121094 26.273438-22.722656 11.492187-3.679688 23.882812-.214844 31.5625 8.8125 28.714844 33.738281 27.296875 90.046875 27.21875 92.429687v76.53125c0 10.539063-4.648438 19.984375-14.207032 28.875-9.566406 8.867188-22.621093 13.761719-36.765624 13.761719zm-443.910157-60.828125c.164063 4.273438 1.9375 8.214844 5.019531 11.167969 1.601563 1.535156 3.472657 3.148437 5.578126 4.820312 22.527343 17.910157 51.539062 27.765625 81.6875 27.765625h351.632812c9.820312 0 18.753906-3.273437 25.152344-9.222656 5.972656-5.554688 8.757812-10.75 8.757812-16.367188v-76.796874c.015625-.773438 1.253906-52.414063-23.160156-81.09375-3.15625-3.703126-8.53125-5.164063-13.378906-3.609376-3.738282 1.195313-12.082032 10.453126-18.78125 17.890626-7.9375 8.808593-16.929688 18.792968-26.828125 26.503906-17.730469 13.832031-40.847657 19.097656-61.820313 14.132812-25.265625-6-44.421875-14.753906-56.929687-26.027344-6.265625-5.632812-14.082031-8.507812-22.007813-8.226562-13.175781.566406-31.582031 3.714844-44.464844 15.523438-.273437.246093-.5625.484374-.871093.699218l-76.734375 53.714844c-7.066406 4.949219-15.359375 7.558594-23.980469 7.558594h-40.710937c-.621094-.015625-39.234376-.785156-58.117188 17.628906-6.527344 6.359375-9.820312 14.199219-10.042969 23.9375zm438.695313-151.476562h.085937zm0 0"/><path d="m460.992188 256.492188h-351.625c-33.996094 0-66.78125-11.175782-92.308594-31.476563-2.542969-2.023437-4.8125-3.984375-6.75-5.847656-6.648438-6.339844-10.308594-14.921875-10.308594-24.164063 0 0 0-32.28125 0-32.46875.0507812-4.613281 3.753906-8.351562 8.371094-8.4375 4.90625.042969 8.464844 3.507813 8.6875 8.113282.074218-.066407.179687.417968.289062 1.144531.015625.136719.109375.871093.121094 1.007812.167969.863281.457031 1.699219.792969 2.523438.09375.242187.28125.820312.355469 1.058593.667968 1.496094 1.894531 3.285157 3.441406 4.761719 1.621094 1.554688 3.539062 3.183594 5.664062 4.875 7.246094 5.75 15.539063 10.828125 24.636719 15.101563l1.722656.84375c.589844.300781 1.175781.597656 1.773438.863281l2.058593.785156c16.304688 6.722657 33.617188 10.136719 51.445313 10.136719h351.632813c9.820312 0 18.753906-3.277344 25.152343-9.222656 5.980469-5.574219 8.765625-10.777344 8.765625-16.394532 0-4.710937 3.820313-8.53125 8.53125-8.53125 4.710938 0 8.53125 3.820313 8.53125 8.53125v34.132813c0 10.546875-4.648437 19.992187-14.214844 28.875-9.566406 8.890625-22.621093 13.789063-36.765624 13.789063zm-443.925782-65.582032v4.09375c0 4.53125 1.78125 8.730469 5.035156 11.828125 1.601563 1.535157 3.480469 3.148438 5.578126 4.820313 22.519531 17.910156 51.53125 27.765625 81.6875 27.765625h351.632812c9.820312 0 18.753906-3.277344 25.152344-9.222657 5.972656-5.546874 8.757812-10.753906 8.757812-16.367187v-2.808594c-9.234375 7.339844-21.136718 11.339844-33.917968 11.339844h-351.566407c-20.136719 0-39.636719-3.839844-58.015625-11.425781-1.246094-.457032-1.78125-.664063-2.304687-.886719-.9375-.410156-1.816407-.84375-2.6875-1.277344l-1.304688-.648437c-10.289062-4.824219-19.710937-10.609375-27.996093-17.179688-.027344-.007812-.035157-.023437-.050782-.03125zm0 0"/></g></svg>