<?xml version="1.0" encoding="utf-8"?>
<!-- Generator: Adobe Illustrator 24.0.0, SVG Export Plug-In . SVG Version: 6.00 Build 0)  -->
<svg version="1.1" id="레이어_1" xmlns="http://www.w3.org/2000/svg" xmlns:xlink="http://www.w3.org/1999/xlink" x="0px"
	 y="0px" viewBox="0 0 511 511" style="enable-background:new 0 0 511 511;" xml:space="preserve">
<style type="text/css">
	.st0{fill:#C5411E;}
	.st1{fill:#BE7C6D;}
	.st2{fill:#1F436D;}
	.st3{fill:#366DB6;}
	.st4{fill:#D8D7DA;}
	.st5{fill:#EFCE4A;}
	.st6{fill:#4D007E;stroke:#4D007E;stroke-width:3.5;stroke-miterlimit:10;}
</style>
<path class="st0" d="M320.3,319.4c36.3-36.2,106.1-95.4,148.7-130.7c36.6-30.4,46.5-83.2,22.1-124c-5.4-9-11.8-17.2-19.2-24.6
	c-7.4-7.4-15.6-13.8-24.6-19.2C406.4-3.5,353.6,6.3,323.2,42.9c-35.3,42.5-94.5,112.4-130.7,148.6c-38,38-106.6,95.8-148.5,130.5
	c-37.5,31-46.7,85.2-20.9,126.4c5.1,8.1,11.1,15.6,17.8,22.4c7.4,7.4,15.7,13.9,24.7,19.2c40.9,24.4,93.7,14.5,124.1-22.2
	C224.4,426,282.3,357.4,320.3,319.4z"/>
<path class="st1" d="M344.8,131.9c51.1-66.5,98-88,123.9-94.9c-6.5-6.1-13.7-11.5-21.5-16.1C406.4-3.5,353.6,6.3,323.2,42.9
	c-35.4,42.5-94.5,112.4-130.7,148.6c-38,38-106.6,95.8-148.5,130.5c-27.6,22.8-39.8,58.1-34.2,91.5C128.1,375,280.3,216,344.8,131.9
	z"/>
<path class="st2" d="M491.1,64.7c-5.4-9-11.8-17.2-19.2-24.6c-7.4-7.4-15.6-13.8-24.6-19.2C406.4-3.5,353.6,6.3,323.2,42.9
	c-5.4,6.4-11.3,13.5-17.5,21c21.5,24.9,53,49.9,92.8,49.6c56.4-0.5,86.3,23,98.8,36.5C508.3,122.8,506.9,91.3,491.1,64.7z"/>
<path class="st2" d="M114.3,397.5c-52.7,0.4-84.9-21.9-99.1-35.9c-11,27.8-9,60.1,7.8,86.9c5.1,8.1,11.1,15.6,17.8,22.4
	c7.4,7.4,15.7,13.9,24.7,19.2c40.9,24.4,93.7,14.5,124.1-22.2c5.3-6.4,11.1-13.4,17.4-20.9C185.6,422.1,154.1,397.2,114.3,397.5z"/>
<path class="st3" d="M63,389.8c-23.2-7.7-38.9-19.5-47.7-28.2c-6.5,16.5-8.4,34.5-5.5,52C26.9,408,44.8,399.9,63,389.8z"/>
<path class="st4" d="M300.7,247.9l-38.9-38.9c-13.4-13.4-13.4-35.2,0-48.6c13.4-13.4,35.2-13.4,48.6,0l38.9,38.9
	c13.4,13.4,13.4,35.2,0,48.6C336,261.3,314.1,261.3,300.7,247.9z"/>
<path class="st5" d="M349.3,247.9c13.4-13.4,13.4-35.2,0-48.6l-11.7-11.7c-13.4-13.4-35.2-13.4-48.6,0c-13.4,13.4-13.4,35.2,0,48.6
	l11.7,11.7C314.1,261.3,336,261.3,349.3,247.9z"/>
<path class="st4" d="M200.2,348.4l-38.9-38.9c-13.4-13.4-13.4-35.2,0-48.6c13.4-13.4,35.2-13.4,48.6,0l38.9,38.9
	c13.4,13.4,13.4,35.2,0,48.6C235.5,361.8,213.6,361.8,200.2,348.4z"/>
<path class="st5" d="M248.8,348.4c13.4-13.4,13.4-35.2,0-48.6l-11.7-11.7c-13.4-13.4-35.2-13.4-48.6,0c-13.4,13.4-13.4,35.2,0,48.6
	l11.7,11.7C213.6,361.8,235.5,361.8,248.8,348.4z"/>
<path class="st3" d="M468.7,37c-6.5-6.1-13.7-11.5-21.5-16.1C406.4-3.5,353.6,6.3,323.2,42.9c-5.4,6.4-11.3,13.5-17.5,21
	c15.1,17.5,35.1,34.9,59.3,43.7C408,59.9,446.2,43,468.7,37z"/>
<path class="st6" d="M324.1,324.1c36.3-36.3,107.7-96.5,147-129.2c19-15.8,31.8-37.8,36.2-62c4.4-24.4-0.1-49.4-12.7-70.5
	c-5.6-9.4-12.4-18.1-20.2-25.8c0,0,0,0,0,0c-7.8-7.8-16.5-14.5-25.9-20.2C427.4,3.8,402.4-0.7,378,3.7c-24.2,4.4-46.3,17.2-62,36.2
	C283.3,79.2,223,150.6,186.7,186.8C148.6,225,78.4,284,40,315.8C-0.2,349-9.7,407.1,17.7,450.9c2.2,3.5,6.8,4.5,10.2,2.3
	c3.5-2.2,4.5-6.8,2.3-10.2c-13.3-21.2-16.4-46.3-10.5-69.2c16.2,12.8,47.2,30.4,94.7,30c28.8-0.2,56.4,13.9,82.2,41.9
	c-4.7,5.7-9.1,11-13.1,15.8c-13.5,16.3-32.4,27.4-53.3,31.2c-20.9,3.8-42.3,0-60.4-10.8c-8.4-5-16.1-11-23-18
	c-2.9-2.9-7.6-2.9-10.5,0s-2.9,7.6,0,10.5c7.8,7.8,16.5,14.6,25.9,20.2c21.1,12.6,46.2,17.1,70.6,12.7c24.3-4.4,46.3-17.3,62-36.3
	C226.9,432.5,286,362.3,324.1,324.1z M114.5,388.9c-47.5,0.4-76.5-18.7-89.3-30c5.5-11.9,13.6-22.8,24.3-31.6
	c38.7-32,109.3-91.4,147.8-129.9c29.3-29.3,73.8-80.8,107.2-120.6c28.4,30.7,61.4,45.5,91.9,45.3c7.9-0.1,15.6,0.4,23,1.3
	c4.1,0.5,7.8-2.4,8.3-6.4c0.5-4.1-2.4-7.8-6.4-8.3c-8-1-16.4-1.5-25-1.4c-28.8,0.2-56.4-13.9-82.2-41.9c4.8-5.7,9.2-11.1,13.3-15.9
	c13.5-16.3,32.5-27.3,53.3-31.1c20.9-3.8,42.3,0.1,60.3,10.8c8.3,5,16.1,11,23,17.9c0,0,0,0,0,0c6.9,6.9,12.9,14.7,17.9,23
	c18.3,30,9.9,65.1,9.2,67.4c-9.4-7.9-22.8-16.5-41.2-22.5c-3.9-1.3-8.1,0.9-9.4,4.8c-0.9,2.7,0.1,7.5,4.8,9.4
	c18.9,7.5,32.3,15.7,40.4,23.4c-5.6,11.9-13.8,22.5-24,31c-39.5,32.8-111.3,93.4-148,130.1c-30.6,30.6-74.5,81.5-107.2,120.5
	C178.3,404.3,146.6,388.7,114.5,388.9z"/>
<path class="st6" d="M354.6,194.1L354.6,194.1L354.6,194.1l-38.9-38.9c-16.3-16.3-42.9-16.3-59.2,0c-7.9,7.9-12.2,18.4-12.2,29.6
	c0,11.2,4.3,21.7,12.2,29.6c0,0,0,0,0,0l38.7,38.7l0.2,0.2c16.3,16.3,42.9,16.3,59.2,0c7.9-7.9,12.2-18.4,12.2-29.6
	C366.8,212.4,362.5,201.9,354.6,194.1z M267.1,165.8c21-21,42.5,4.5,42.5,4.5c-9.5,0.8-18.7,4.8-25.9,12.1c-7,7-11.2,16.1-12.1,26
	C271.7,208.3,246.1,186.8,267.1,165.8z M306,242.6l-0.2-0.2L294.3,231c-14.5-14.5-5-33,0-38c10.5-10.5,27.5-10.5,38,0l11.7,11.7h0
	c5,5,7.8,11.8,7.8,19c0,7.2-2.8,13.9-7.8,19C333.6,253.1,316.5,253.1,306,242.6z"/>
<path class="st6" d="M254.1,294.5C254.1,294.5,254.1,294.5,254.1,294.5L254.1,294.5l-38.9-38.9c-16.3-16.3-42.9-16.3-59.2,0
	c-7.9,7.9-12.2,18.4-12.2,29.6c0,11.2,4.3,21.7,12.2,29.6c0,0,0,0,0,0l38.7,38.7l0.2,0.2c16.3,16.3,42.9,16.3,59.2,0
	c7.9-7.9,12.2-18.4,12.2-29.6C266.3,312.9,262,302.4,254.1,294.5z M166.7,266.3c22.2-22.2,42.5,4.5,42.5,4.5
	c-9.5,0.8-18.7,4.8-25.9,12.1c-7,7-11.2,16.1-12.1,26C171.2,308.8,144.4,288.5,166.7,266.3z M205.5,343.1l-0.2-0.2l-11.5-11.5
	c-5-5-7.8-11.8-7.8-19c0-7.2,2.8-14,7.8-19c10.5-10.5,27.5-10.5,38,0l11.7,11.7v0c5,5,7.8,11.8,7.8,19c0,7.2-2.8,13.9-7.8,19
	C233.1,353.6,216,353.6,205.5,343.1z"/>
</svg>
