<svg id="Layer_1" enable-background="new 0 0 501 501" height="512" viewBox="0 0 501 501" width="512" xmlns="http://www.w3.org/2000/svg"><path d="m147.59 132.85c28.762 48.577 44.975 81.843 87.69 118.58 68.737 59.11 134.863 64.493 185.55 72.41 35.63 5.57 62.23 35.37 64.06 71.02.18 2.954.11 38.641.11 37.64 0 8.837-7.163 16-16 16h-235.27c-14.51 0-27.74-8.3-34.05-21.37-70.968-146.98-72.438-155.206-95.79-180.86l-31.652 188.874c-1.292 7.709-7.964 13.356-15.78 13.356h-19.458c-8.837 0-16-7.163-16-16v-293.064c0-8.811 7.124-15.964 15.936-16 7.968-.032 83.383-.236 84.086-.308 9.244-.94 18.481 1.751 25.099 8.274z" fill="#b9dcff"/><path d="m147.59 132.85c28.762 48.577 44.975 81.843 87.69 118.58 40.34 34.69 89.57 57.42 142.14 65.63l43.41 6.78c35.63 5.57 62.23 35.37 64.06 71.02-6.459.379-300.225-.039-300.69.21l-50.7-104.98c-26.57-54.957-65.026-73.999-112.5-104.59v-46.064c0-8.811 7.124-15.964 15.936-16 7.502-.03 82.376-.241 83.039-.304 9.523-.912 19.041 1.68 26.02 8.222z" fill="#b9dcff"/><path d="m75.22 123.28-34.14 325.22h-4.08c-8.84 0-16-7.16-16-16v-293.06c0-8.82 7.12-15.97 15.94-16z" fill="#d1e7ff"/><path d="m75.22 123.28-9.55 91-44.67-28.78v-46.06c0-8.82 7.12-15.97 15.94-16z" fill="#d1e7ff"/><path d="m485 432.5c0 8.84-7.16 16-16 16h-121.64c-22.62-75.403-62.889-144.509-118.5-202.76 71.106 65.027 143.219 70.486 191.97 78.1 35.63 5.57 62.23 35.37 64.06 71.02.152 2.484.11 1.048.11 37.64z" fill="#8bc4ff"/><path d="m484.89 394.86c-3.553.208 9.556.14-156.99.14-24.099-55.259-56.246-104.435-99.04-149.26 71.106 65.027 143.219 70.486 191.97 78.1 35.63 5.57 62.23 35.37 64.06 71.02z" fill="#a2d0ff"/><path d="m423.294 308.03c-48.668-7.6-111.902-12.258-177.58-68.731-40.137-34.514-55.218-65.386-83.469-113.091l-15.563-76.883c-1.51-7.461-8.069-12.825-15.682-12.825h-115c-8.837 0-16 7.163-16 16s7.163 16 16 16h101.914l7.895 39h-104.809c-8.837 0-16 7.163-16 16v325c0 8.837 7.163 16 16 16h49c7.816 0 14.488-5.647 15.78-13.355l27.623-164.844c4.333 7.53-.013-1.057 71.871 147.789 8.921 18.474 27.94 30.41 48.455 30.41h251.271c8.837 0 16-7.163 16-16v-49.686c0-45.289-33.028-83.806-77.706-90.784zm-366.836 124.47h-19.458v-217.654c22.881 14.745 34.38 21.229 49.784 36.677zm412.542 0h-235.271c-8.314 0-16.023-4.838-19.639-12.325l-4.432-9.177h189.342c8.837 0 16-7.163 16-16s-7.163-16-16-16h-204.796l-46.298-95.868c-28.559-59.139-71.593-81.019-110.906-106.354v-37.276c103.45 0 95.729-.337 96.333.687 30.037 50.721 47.054 85.142 91.518 123.376 72.364 62.224 142.152 68.065 193.506 76.085 29.344 4.582 50.643 29.466 50.643 59.166z" fill="#2e58ff"/></svg>