<?xml version="1.0" encoding="utf-8"?>
<!-- Generator: Adobe Illustrator 24.0.0, SVG Export Plug-In . SVG Version: 6.00 Build 0)  -->
<svg version="1.1" id="Capa_1" xmlns="http://www.w3.org/2000/svg" xmlns:xlink="http://www.w3.org/1999/xlink" x="0px" y="0px"
	 viewBox="0 0 512 512" style="enable-background:new 0 0 512 512;" xml:space="preserve">
<style type="text/css">
	.st0{fill:#E7ECED;}
	.st1{fill:#ED8A19;}
	.st2{fill:#7383BF;}
	.st3{fill:#C5411E;}
	.st4{fill:#4D007E;}
	.st5{fill:#AFB6BB;}
	.st6{fill:#6C4127;}
	.st7{fill:#556080;}
	.st8{fill:#28384C;}
	.st9{fill:#BE7C6D;}
	.st10{fill:#EBBA16;}
	.st11{fill:#366DB6;}
	.st12{fill:#61B872;}
	.st13{fill:#CB465F;}
</style>
<g>
	<path class="st0" d="M117.7,298.5l-49,111.4L10,396.3v-54.7c0-123.3,66.4-237,173.8-297.6l0,0h144.5l0,0
		C435.6,104.6,502,218.4,502,341.6v54.7l-58.7,13.6l-49-111.4H117.7z"/>
	<polygon class="st0" points="393.7,229.5 393.7,453.3 117.7,452.9 117.7,229.2 	"/>
</g>
<path class="st1" d="M371.8,430.9H139.7c-12.1,0-21.9,9.8-21.9,21.9l0,0c0,12.1,9.8,21.9,21.9,21.9h232.1c12.1,0,21.9-9.8,21.9-21.9
	l0,0C393.7,440.7,383.9,430.9,371.8,430.9z"/>
<g>
	<polygon class="st2" points="13.2,397.2 13.2,433 56.9,437.8 56.9,407 	"/>
	<polygon class="st2" points="498.8,397.2 498.8,433 455.1,437.8 455.1,407 	"/>
</g>
<polygon class="st3" points="117.7,348.8 152.2,307.8 186.7,348.8 221.2,307.8 221.2,307.8 255.6,348.8 290.2,307.8 324.7,348.8 
	324.7,348.8 359.2,307.8 393.7,348.8 393.7,283.9 359.2,242.9 324.7,283.9 324.7,283.9 290.2,242.9 255.6,283.9 221.2,242.9 
	221.2,242.9 186.7,283.9 152.2,242.9 117.7,283.9 "/>
<g>
	<path class="st2" d="M117.7,452.8c0-12.1,9.8-21.9,21.9-21.9h232.1c12.1,0,21.9,9.8,21.9,21.9v-38c0-12.1-9.8-21.9-21.9-21.9H139.7
		c-12.1,0-21.9,9.8-21.9,21.9C117.7,414.8,117.7,452.8,117.7,452.8z"/>
	<path class="st2" d="M311.7,37.2H199.6c-12.1,0-21.9,9.8-21.9,21.9l0,0c0,12.1,9.8,21.9,21.9,21.9h112.1c12.1,0,21.9-9.8,21.9-21.9
		l0,0C333.6,47.1,323.8,37.2,311.7,37.2z"/>
</g>
<path class="st4" d="M333.2,35.3c-0.2-0.1-0.5-0.2-0.7-0.4c-5.6-4.8-12.8-7.7-20.8-7.7H199.6c-8.5,0-16.2,3.3-21.9,8.7
	C68.1,98.4,0,215.4,0,341.6v54.7c0,2.9,1.2,5.5,3.2,7.3V433c0,5.1,3.8,9.4,8.9,9.9l43.7,4.8c0.4,0,0.7,0.1,1.1,0.1
	c2.4,0,4.8-0.9,6.7-2.5c2.1-1.9,3.3-4.6,3.3-7.4v-18.1c0.6,0.1,1.2,0.2,1.8,0.2c3.9,0,7.5-2.3,9.1-6l29.9-67.9v106.9
	c0,0,0,0.1,0,0.1c0.1,17.5,14.4,31.7,31.9,31.7h232.1c17.3,0,31.4-13.8,31.9-31c0-0.2,0-0.3,0-0.5V344.7l30.5,69.2
	c1.6,3.7,5.3,6,9.1,6c0.6,0,1.2-0.1,1.8-0.2v18.1c0,2.8,1.2,5.5,3.3,7.4c1.8,1.6,4.2,2.5,6.7,2.5c0.4,0,0.7,0,1.1-0.1l43.7-4.8
	c5.1-0.6,8.9-4.8,8.9-9.9v-29.3c2-1.8,3.2-4.5,3.2-7.3v-54.7C512,215,443.5,97.6,333.2,35.3z M311.7,47.2c6.6,0,11.9,5.4,11.9,11.9
	s-5.4,11.9-11.9,11.9H199.6c-6.6,0-11.9-5.4-11.9-11.9s5.4-11.9,11.9-11.9H311.7z M23.2,424v-14.4l23.8,5.5v11.5L23.2,424z
	 M127.7,414.8c0-6.6,5.4-11.9,11.9-11.9h18.2v18.1h-18.2c-4.2,0-8.2,0.8-11.9,2.3C127.7,423.2,127.7,414.8,127.7,414.8z
	 M177.8,402.8h24v18.1h-24L177.8,402.8L177.8,402.8z M221.7,402.8h24v18.1h-24V402.8z M265.7,402.8h24v18.1h-24V402.8z M309.6,402.8
	h24v18.1h-24V402.8z M353.6,402.8h18.2c6.6,0,11.9,5.4,11.9,11.9v8.5c-3.7-1.5-7.7-2.3-11.9-2.3h-18.2V402.8z M371.8,382.9H139.7
	c-4.2,0-8.2,0.8-11.9,2.3v-32.8l24.5-29.1l26.8,31.9c1.9,2.3,4.7,3.6,7.6,3.6c0,0,0,0,0,0c2.9,0,5.7-1.3,7.6-3.6l26.9-31.9
	l26.8,31.9c1.9,2.3,4.7,3.6,7.6,3.6c0,0,0,0,0,0c2.9,0,5.7-1.3,7.6-3.6l26.9-31.9l26.6,31.6c1.1,1.4,2.7,2.6,4.5,3.2
	c1.1,0.4,2.3,0.6,3.4,0.6c2.9,0,5.7-1.3,7.6-3.6l26.9-31.9l24.5,29.1v32.8C380,383.7,376,382.9,371.8,382.9z M383.7,321.4l-16.8-20
	c-1.9-2.3-4.7-3.6-7.6-3.6c0,0,0,0,0,0c-2.9,0-5.7,1.3-7.6,3.6l-26.9,31.9l-26.8-31.9c-1.9-2.3-4.7-3.6-7.6-3.6c0,0,0,0,0,0
	c-2.9,0-5.7,1.3-7.6,3.6l-26.9,31.9l-26.8-31.9c-1.9-2.3-4.7-3.6-7.6-3.6c0,0,0,0,0,0c-2.9,0-5.7,1.3-7.6,3.6l-26.9,31.9l-26.8-31.9
	c-1.9-2.3-4.7-3.6-7.6-3.6c0,0,0,0,0,0c-2.9,0-5.7,1.3-7.6,3.6l-16.9,20v-22.7c0,0,0,0,0-0.1v-11.1l24.5-29.1l26.8,31.9
	c1.9,2.3,4.7,3.6,7.6,3.6c0,0,0,0,0,0c2.9,0,5.7-1.3,7.6-3.6l26.9-31.9l26.8,31.9c1.9,2.3,4.7,3.6,7.6,3.6c0,0,0,0,0,0
	c2.9,0,5.7-1.3,7.6-3.6l26.9-31.9l26.6,31.6c1.1,1.4,2.7,2.6,4.5,3.2c1.1,0.4,2.3,0.6,3.4,0.6c2.9,0,5.7-1.3,7.6-3.6l26.9-31.9
	l24.5,29.1V321.4L383.7,321.4L383.7,321.4z M371.8,464.8H139.7c-6.6,0-11.9-5.4-11.9-11.9c0-6.6,5.4-11.9,11.9-11.9h232.1
	c6.6,0,11.9,5.4,11.9,11.9S378.4,464.8,371.8,464.8z M403.7,295.1v-65.6c0-5.5-4.5-10-10-10s-10,4.5-10,10v26.9l-16.8-20
	c-1.9-2.3-4.7-3.6-7.6-3.6c0,0,0,0,0,0c-2.9,0-5.7,1.3-7.6,3.6l-26.9,31.9l-26.8-31.9c-1.9-2.3-4.7-3.6-7.6-3.6c0,0,0,0,0,0
	c-2.9,0-5.7,1.3-7.6,3.6l-26.9,31.9l-26.8-31.9c-1.9-2.3-4.7-3.6-7.6-3.6c0,0,0,0,0,0c-2.9,0-5.7,1.3-7.6,3.6l-26.9,31.9l-26.8-31.9
	c-1.9-2.3-4.7-3.6-7.6-3.6c0,0,0,0,0,0c-2.9,0-5.7,1.3-7.6,3.6l-16.9,20v-27.3c0-5.5-4.5-10-10-10s-10,4.5-10,10v67.2L62.9,398.3
	L20,388.4v-46.7c0-111.5,56.3-215.3,148.3-276.4c2.8,14.7,15.8,25.9,31.3,25.9h108.8c25,15.9,47.5,35.3,67,57.5
	c2,2.2,4.7,3.4,7.5,3.4c2.3,0,4.7-0.8,6.6-2.5c4.1-3.6,4.6-10,0.9-14.1c-17.2-19.6-36.6-37.1-57.9-52.1c5.4-4.7,9.2-11.1,10.5-18.5
	C435.5,125.9,492,229.9,492,341.6v46.7l-42.9,9.9L403.7,295.1z M465.1,426.6v-11.5l23.8-5.5V424L465.1,426.6z"/>
<path class="st4" d="M410.9,161.2c-3.3-4.5-9.5-5.4-13.9-2.2c-4.5,3.3-5.4,9.5-2.2,14c0,0,0.1,0.1,0.1,0.1c1.9,2.7,5,4.1,8.1,4.1
	c2,0,4.1-0.6,5.8-1.9c4.5-3.2,5.5-9.5,2.3-14L410.9,161.2z"/>
<path class="st4" d="M119.6,145.9c-4.4-3.4-10.7-2.5-14,1.9c-22.9,29.9-40.1,63.2-51.3,98.9c-1.6,5.3,1.3,10.9,6.5,12.5
	c1,0.3,2,0.5,3,0.5c4.3,0,8.2-2.7,9.5-7c10.5-33.5,26.7-64.7,48.1-92.8C124.8,155.5,124,149.3,119.6,145.9z"/>
<path class="st4" d="M134.7,114.7l-0.3,0.3c-3.9,3.9-4,10.2-0.1,14.1c2,2,4.5,3,7.1,3c2.5,0,5.1-1,7-2.9l0.3-0.3
	c3.9-3.9,4-10.2,0.1-14.1C145,110.8,138.6,110.8,134.7,114.7z"/>
<path class="st5" d="M814.9,29.5h136.5v34.1H814.9V29.5z"/>
<path class="st6" d="M1036.7,336.7H729.5c-18.8,0-34.1-15.3-34.1-34.1V149c0-18.8,15.3-34.1,34.1-34.1h307.2
	c18.9,0,34.1,15.3,34.1,34.1v153.6C1070.9,321.4,1055.6,336.7,1036.7,336.7z"/>
<path class="st7" d="M609,12.5c-11.2,0-18.9,11.1-15,21.6l24.6,51.2v260h34.1v-260L624,22.8C621.6,16.6,615.7,12.5,609,12.5z"/>
<path class="st8" d="M712.5,422.1c0,28.3-22.9,51.2-51.2,51.2s-51.2-22.9-51.2-51.2s22.9-51.2,51.2-51.2S712.5,393.8,712.5,422.1z"
	/>
<path class="st0" d="M644.2,405h34.1v34.1h-34.1V405z"/>
<path class="st8" d="M1070.9,422.1c0,28.3-22.9,51.2-51.2,51.2c-28.3,0-51.2-22.9-51.2-51.2s22.9-51.2,51.2-51.2
	C1048,370.9,1070.9,393.8,1070.9,422.1z"/>
<path class="st0" d="M1002.6,405h34.1v34.1h-34.1V405z"/>
<path class="st2" d="M593,336.7h494.9v34.1H593V336.7z"/>
<path class="st9" d="M746.6,114.9h34.1v221.9h-34.1V114.9z"/>
<path class="st9" d="M985.5,114.9h34.1v221.9h-34.1V114.9z"/>
<path class="st3" d="M849,166.1v68.3c7.2,2.6,12.9-7.2,15.5,0l10.3,15.5c7.1-5.3,15.8-8.5,25.4-8.5c6.1,0,11.8,1.3,17.1,3.6v-78.8
	H849z"/>
<path class="st10" d="M942.9,242.9c0,23.6-19.1,42.7-42.7,42.7c-23.6,0-42.7-19.1-42.7-42.7s19.1-42.7,42.7-42.7
	C923.8,200.2,942.9,219.3,942.9,242.9z"/>
<path class="st11" d="M866,217.5c0-0.1,0-0.2,0-0.3c0-14.1-11.5-25.6-25.6-25.6s-25.6,11.5-25.6,25.6c0,14.1,11.5,25.6,25.6,25.6
	c6.9,0,13.2-2.8,17.8-7.2C859.4,228.9,862.1,222.8,866,217.5z"/>
<g>
	<path class="st4" d="M661.3,481.8c-32.9,0-59.7-26.8-59.7-59.7s26.8-59.7,59.7-59.7s59.7,26.8,59.7,59.7S694.2,481.8,661.3,481.8z
		 M661.3,379.4c-23.5,0-42.7,19.1-42.7,42.7s19.1,42.7,42.7,42.7s42.7-19.1,42.7-42.7S684.8,379.4,661.3,379.4z"/>
	<path class="st4" d="M678.3,447.7h-34.1c-4.7,0-8.5-3.8-8.5-8.5V405c0-4.7,3.8-8.5,8.5-8.5h34.1c4.7,0,8.5,3.8,8.5,8.5v34.1
		C686.9,443.8,683.1,447.7,678.3,447.7z M652.7,430.6h17.1v-17.1h-17.1V430.6z"/>
	<path class="st4" d="M1019.7,481.8c-32.9,0-59.7-26.8-59.7-59.7s26.8-59.7,59.7-59.7c32.9,0,59.7,26.8,59.7,59.7
		S1052.6,481.8,1019.7,481.8z M1019.7,379.4c-23.5,0-42.7,19.1-42.7,42.7s19.1,42.7,42.7,42.7c23.5,0,42.7-19.1,42.7-42.7
		S1043.2,379.4,1019.7,379.4z"/>
	<path class="st4" d="M1036.7,447.7h-34.1c-4.7,0-8.5-3.8-8.5-8.5V405c0-4.7,3.8-8.5,8.5-8.5h34.1c4.7,0,8.5,3.8,8.5,8.5v34.1
		C1045.3,443.8,1041.5,447.7,1036.7,447.7z M1011.1,430.6h17.1v-17.1h-17.1V430.6z"/>
	<path class="st4" d="M1087.9,379.4H593c-4.7,0-8.5-3.8-8.5-8.5v-34.1c0-4.7,3.8-8.5,8.5-8.5h494.9c4.7,0,8.5,3.8,8.5,8.5v34.1
		C1096.5,375.6,1092.6,379.4,1087.9,379.4z M601.5,362.3h477.9v-17.1H601.5V362.3z"/>
	<path class="st4" d="M652.7,345.3h-34.1c-4.7,0-8.5-3.8-8.5-8.5V87.2l-23.7-49.5c-3.1-8.2-2.1-16.7,2.5-23.3
		C593.4,7.9,601,3.9,609,3.9c10.2,0,19.4,6.4,23,15.9l28.5,61.8c0.5,1.1,0.8,2.3,0.8,3.6v251.5C661.3,341.4,657.5,345.3,652.7,345.3
		z M627.1,328.2h17.1V87.1l-28-60.7c-2.4-6.3-10.2-6.8-13.3-2.2c-1.4,2-1.7,4.5-0.9,6.9l24.3,50.5c0.6,1.2,0.8,2.4,0.8,3.7V328.2z"
		/>
	<path class="st4" d="M746.6,123.4c-4.7,0-8.5-3.8-8.5-8.5s3.8-8.5,8.5-8.5c14.1,0,25.6-11.5,25.6-25.6c0-23.5,19.1-42.7,42.7-42.7
		c4.7,0,8.5,3.8,8.5,8.5s-3.8,8.5-8.5,8.5c-14.1,0-25.6,11.5-25.6,25.6C789.3,104.3,770.1,123.4,746.6,123.4z"/>
	<path class="st4" d="M780.7,345.3h-34.1c-4.7,0-8.5-3.8-8.5-8.5V114.9c0-4.7,3.8-8.5,8.5-8.5h34.1c4.7,0,8.5,3.8,8.5,8.5v221.9
		C789.3,341.4,785.5,345.3,780.7,345.3z M755.1,328.2h17.1V123.4h-17.1V328.2z"/>
	<path class="st4" d="M1019.7,345.3h-34.1c-4.7,0-8.5-3.8-8.5-8.5V114.9c0-4.7,3.8-8.5,8.5-8.5h34.1c4.7,0,8.5,3.8,8.5,8.5v221.9
		C1028.2,341.4,1024.4,345.3,1019.7,345.3z M994.1,328.2h17.1V123.4h-17.1V328.2z"/>
	<path class="st4" d="M1036.7,345.3H729.5c-23.5,0-42.7-19.1-42.7-42.7V149c0-23.5,19.1-42.7,42.7-42.7h307.2
		c23.5,0,42.7,19.1,42.7,42.7v153.6C1079.4,326.1,1060.3,345.3,1036.7,345.3z M729.5,123.4c-14.1,0-25.6,11.5-25.6,25.6v153.6
		c0,14.1,11.5,25.6,25.6,25.6h307.2c14.1,0,25.6-11.5,25.6-25.6V149c0-14.1-11.5-25.6-25.6-25.6H729.5z"/>
	<path class="st4" d="M951.4,72.2H814.9c-4.7,0-8.5-3.8-8.5-8.5V29.5c0-4.7,3.8-8.5,8.5-8.5h136.5c4.7,0,8.5,3.8,8.5,8.5v34.1
		C959.9,68.4,956.1,72.2,951.4,72.2z M823.4,55.1h119.5V38.1H823.4V55.1z"/>
	<path class="st4" d="M1019.7,123.4c-23.5,0-42.7-19.1-42.7-42.7c0-14.1-11.5-25.6-25.6-25.6c-4.7,0-8.5-3.8-8.5-8.5
		s3.8-8.5,8.5-8.5c23.5,0,42.7,19.1,42.7,42.7c0,14.1,11.5,25.6,25.6,25.6c4.7,0,8.5,3.8,8.5,8.5S1024.4,123.4,1019.7,123.4z"/>
	<path class="st4" d="M900.2,294.1c-28.2,0-51.2-23-51.2-51.2s23-51.2,51.2-51.2c28.2,0,51.2,23,51.2,51.2S928.4,294.1,900.2,294.1z
		 M900.2,208.7c-18.8,0-34.1,15.3-34.1,34.1s15.3,34.1,34.1,34.1s34.1-15.3,34.1-34.1S919,208.7,900.2,208.7z"/>
	<path class="st4" d="M840.5,251.4c-18.8,0-34.1-15.3-34.1-34.1s15.3-34.1,34.1-34.1s34.1,15.3,34.1,34.1c0,0.3,0,0.7-0.1,1.1
		c-0.1,1.5-0.7,3-1.6,4.3c-3.2,4.3-5.3,9.2-6.2,14.4c-0.3,1.8-1.2,3.4-2.5,4.7C857.8,248,849.4,251.4,840.5,251.4z M840.5,200.2
		c-9.4,0-17.1,7.7-17.1,17.1c0,9.4,7.7,17.1,17.1,17.1c3.6,0,7.1-1.2,10-3.3c1.3-5.7,3.7-11.1,6.9-16
		C856.3,206.7,849.1,200.2,840.5,200.2z M866,217.5L866,217.5L866,217.5z"/>
	<path class="st4" d="M874.8,217.3h-10.3c-3.6,0-6.8-2.3-8-5.7c-1.7-4.8-5.5-8.6-10.3-10.3c-3.4-1.2-5.7-4.4-5.7-8v-27.2
		c0-4.7,3.8-8.5,8.5-8.5h68.3c4.7,0,8.5,3.8,8.5,8.5v37.7c0,2.9-1.4,5.6-3.9,7.1c-2.4,1.6-5.5,1.8-8.1,0.7c-11.2-4.9-24-3.4-33.9,4
		C878.5,216.7,876.7,217.3,874.8,217.3z M869.9,200.2h2.2c10.9-7.2,24-10,36.6-7.8v-17.8h-51.2v13.2
		C862.7,190.8,867,195,869.9,200.2z"/>
</g>
<rect x="1135.2" y="357.7" class="st0" width="494.9" height="51.2"/>
<g>
	<rect x="1561.9" y="408.9" class="st5" width="34.1" height="34.1"/>
	<rect x="1169.4" y="408.9" class="st5" width="34.1" height="34.1"/>
</g>
<path class="st2" d="M1382.7,84.6h110.9c28.3,0,51.2-22.9,51.2-51.2l0,0c0-28.3-22.9-51.2-51.2-51.2h-110.9h-136.5
	c-14.1,0-25.6,11.5-25.6,25.6s11.5,25.6,25.6,25.6c-14.1,0-25.6,11.5-25.6,25.6s11.5,25.6,25.6,25.6
	C1246.2,84.6,1382.7,84.6,1382.7,84.6z"/>
<path class="st7" d="M1399.8,42h-153.6c-4.7,0-8.5-3.8-8.5-8.5s3.8-8.5,8.5-8.5h153.6c4.7,0,8.5,3.8,8.5,8.5
	C1408.3,38.1,1404.5,42,1399.8,42z"/>
<path class="st12" d="M1382.7,289.4h110.9c28.3,0,51.2-22.9,51.2-51.2l0,0c0-28.3-22.9-51.2-51.2-51.2h-110.9h-136.5
	c-14.1,0-25.6,11.5-25.6,25.6s11.5,25.6,25.6,25.6c-14.1,0-25.6,11.5-25.6,25.6s11.5,25.6,25.6,25.6H1382.7z"/>
<path class="st1" d="M1382.7,84.6h-110.9c-28.3,0-51.2,22.9-51.2,51.2l0,0c0,28.3,22.9,51.2,51.2,51.2h110.9h136.5
	c14.1,0,25.6-11.5,25.6-25.6s-11.5-25.6-25.6-25.6c14.1,0,25.6-11.5,25.6-25.6s-11.5-25.6-25.6-25.6L1382.7,84.6L1382.7,84.6z"/>
<path class="st13" d="M1544.8,357.7h-324.3c-18.8,0-34.1-15.3-34.1-34.1l0,0c0-18.9,15.3-34.1,34.1-34.1h324.3
	c18.8,0,34.1,15.3,34.1,34.1l0,0C1579,342.4,1563.7,357.7,1544.8,357.7z"/>
<g>
	<path class="st4" d="M1630.2,417.4h-494.9c-4.7,0-8.5-3.8-8.5-8.5v-51.2c0-4.7,3.8-8.5,8.5-8.5h494.9c4.7,0,8.5,3.8,8.5,8.5v51.2
		C1638.7,413.6,1634.9,417.4,1630.2,417.4z M1143.8,400.4h477.9v-34.1h-477.9V400.4z"/>
	<path class="st4" d="M1596,451.6h-34.1c-4.7,0-8.5-3.8-8.5-8.5v-34.1c0-4.7,3.8-8.5,8.5-8.5h34.1c4.7,0,8.5,3.8,8.5,8.5V443
		C1604.6,447.7,1600.8,451.6,1596,451.6z M1570.4,434.5h17.1v-17.1h-17.1V434.5z"/>
	<path class="st4" d="M1579,485.7c-4.7,0-8.5-3.8-8.5-8.5V443c0-4.7,3.8-8.5,8.5-8.5s8.5,3.8,8.5,8.5v34.1
		C1587.5,481.9,1583.7,485.7,1579,485.7z"/>
	<path class="st4" d="M1596,485.7h-34.1c-4.7,0-8.5-3.8-8.5-8.5s3.8-8.5,8.5-8.5h34.1c4.7,0,8.5,3.8,8.5,8.5
		C1604.6,481.9,1600.8,485.7,1596,485.7z"/>
	<path class="st4" d="M1203.5,451.6h-34.1c-4.7,0-8.5-3.8-8.5-8.5v-34.1c0-4.7,3.8-8.5,8.5-8.5h34.1c4.7,0,8.5,3.8,8.5,8.5V443
		C1212,447.7,1208.2,451.6,1203.5,451.6z M1177.9,434.5h17.1v-17.1h-17.1V434.5z"/>
	<path class="st4" d="M1186.4,485.7c-4.7,0-8.5-3.8-8.5-8.5V443c0-4.7,3.8-8.5,8.5-8.5s8.5,3.8,8.5,8.5v34.1
		C1195,481.9,1191.1,485.7,1186.4,485.7z"/>
	<path class="st4" d="M1203.5,485.7h-34.1c-4.7,0-8.5-3.8-8.5-8.5s3.8-8.5,8.5-8.5h34.1c4.7,0,8.5,3.8,8.5,8.5
		S1208.2,485.7,1203.5,485.7z"/>
	<path class="st4" d="M1493.6,93.2h-247.5c-18.8,0-34.1-15.3-34.1-34.1c0-10.2,4.5-19.3,11.6-25.6c-7.1-6.3-11.6-15.4-11.6-25.6
		c0-18.8,15.3-34.1,34.1-34.1h247.5c32.9,0,59.7,26.8,59.7,59.7S1526.6,93.2,1493.6,93.2z M1246.2,42c-9.4,0-17.1,7.7-17.1,17.1
		s7.7,17.1,17.1,17.1h247.5c23.5,0,42.7-19.1,42.7-42.7s-19.1-42.7-42.7-42.7h-247.5c-9.4,0-17.1,7.7-17.1,17.1s7.7,17.1,17.1,17.1
		c4.7,0,8.5,3.8,8.5,8.5S1250.9,42,1246.2,42z"/>
	<path class="st4" d="M1399.8,42h-153.6c-4.7,0-8.5-3.8-8.5-8.5s3.8-8.5,8.5-8.5h153.6c4.7,0,8.5,3.8,8.5,8.5S1404.5,42,1399.8,42z"
		/>
	<path class="st4" d="M1493.6,59H1468c-4.7,0-8.5-3.8-8.5-8.5s3.8-8.5,8.5-8.5h25.6c4.7,0,8.5-3.8,8.5-8.5s-3.8-8.5-8.5-8.5H1468
		c-4.7,0-8.5-3.8-8.5-8.5s3.8-8.5,8.5-8.5h25.6c14.1,0,25.6,11.5,25.6,25.6S1507.7,59,1493.6,59z"/>
	<path class="st4" d="M1493.6,298h-247.5c-18.8,0-34.1-15.3-34.1-34.1c0-10.2,4.5-19.3,11.6-25.6c-7.1-6.3-11.6-15.4-11.6-25.6
		c0-18.8,15.3-34.1,34.1-34.1h247.5c32.9,0,59.7,26.8,59.7,59.7C1553.4,271.2,1526.6,298,1493.6,298z M1246.2,246.8
		c-9.4,0-17.1,7.7-17.1,17.1c0,9.4,7.7,17.1,17.1,17.1h247.5c23.5,0,42.7-19.1,42.7-42.7s-19.1-42.7-42.7-42.7h-247.5
		c-9.4,0-17.1,7.7-17.1,17.1c0,9.4,7.7,17.1,17.1,17.1c4.7,0,8.5,3.8,8.5,8.5S1250.9,246.8,1246.2,246.8z"/>
	<path class="st4" d="M1399.8,246.8h-153.6c-4.7,0-8.5-3.8-8.5-8.5s3.8-8.5,8.5-8.5h153.6c4.7,0,8.5,3.8,8.5,8.5
		S1404.5,246.8,1399.8,246.8z"/>
	<path class="st4" d="M1493.6,263.8H1468c-4.7,0-8.5-3.8-8.5-8.5s3.8-8.5,8.5-8.5h25.6c4.7,0,8.5-3.8,8.5-8.5s-3.8-8.5-8.5-8.5H1468
		c-4.7,0-8.5-3.8-8.5-8.5s3.8-8.5,8.5-8.5h25.6c14.1,0,25.6,11.5,25.6,25.6C1519.2,252.3,1507.7,263.8,1493.6,263.8z"/>
	<path class="st4" d="M1519.2,195.6h-247.5c-32.9,0-59.7-26.8-59.7-59.7s26.8-59.7,59.7-59.7h247.5c18.8,0,34.1,15.3,34.1,34.1
		c0,10.2-4.5,19.3-11.6,25.6c7.1,6.3,11.6,15.4,11.6,25.6C1553.4,180.2,1538.1,195.6,1519.2,195.6z M1271.8,93.2
		c-23.5,0-42.7,19.1-42.7,42.7s19.1,42.7,42.7,42.7h247.5c9.4,0,17.1-7.7,17.1-17.1c0-9.4-7.7-17.1-17.1-17.1
		c-4.7,0-8.5-3.8-8.5-8.5s3.8-8.5,8.5-8.5c9.4,0,17.1-7.7,17.1-17.1s-7.7-17.1-17.1-17.1L1271.8,93.2L1271.8,93.2z"/>
	<path class="st4" d="M1519.2,144.4h-153.6c-4.7,0-8.5-3.8-8.5-8.5s3.8-8.5,8.5-8.5h153.6c4.7,0,8.5,3.8,8.5,8.5
		S1524,144.4,1519.2,144.4z"/>
	<path class="st4" d="M1297.4,161.4h-25.6c-14.1,0-25.6-11.5-25.6-25.6c0-14.1,11.5-25.6,25.6-25.6h25.6c4.7,0,8.5,3.8,8.5,8.5
		s-3.8,8.5-8.5,8.5h-25.6c-4.7,0-8.5,3.8-8.5,8.5s3.8,8.5,8.5,8.5h25.6c4.7,0,8.5,3.8,8.5,8.5S1302.1,161.4,1297.4,161.4z"/>
	<path class="st4" d="M1544.8,366.2h-324.3c-23.5,0-42.7-19.1-42.7-42.7c0-23.5,19.1-42.7,42.7-42.7h324.3
		c23.5,0,42.7,19.1,42.7,42.7C1587.5,347.1,1568.4,366.2,1544.8,366.2z M1220.6,298c-14.1,0-25.6,11.5-25.6,25.6
		s11.5,25.6,25.6,25.6h324.3c14.1,0,25.6-11.5,25.6-25.6s-11.5-25.6-25.6-25.6H1220.6z"/>
	<path class="st4" d="M1544.8,332.1h-324.3c-4.7,0-8.5-3.8-8.5-8.5s3.8-8.5,8.5-8.5h324.3c4.7,0,8.5,3.8,8.5,8.5
		S1549.6,332.1,1544.8,332.1z"/>
</g>
</svg>
