<?xml version="1.0" encoding="utf-8"?>
<!-- Generator: Adobe Illustrator 27.3.1, SVG Export Plug-In . SVG Version: 6.00 Build 0)  -->
<svg version="1.1" id="레이어_1" xmlns="http://www.w3.org/2000/svg" xmlns:xlink="http://www.w3.org/1999/xlink" x="0px"
	 y="0px" viewBox="0 0 220.34 54.67" style="enable-background:new 0 0 220.34 54.67;" xml:space="preserve">
<style type="text/css">
	.st0{opacity:0.5;fill:#FF7575;}
	.st1{opacity:0.5;fill:#ABD7FF;}
</style>
<circle class="st0" cx="20.67" cy="20.67" r="20.67"/>
<circle class="st1" cx="204.82" cy="39.75" r="14.51"/>
<polygon points="31.94,47.13 18.51,47.13 18.51,19.12 18.51,19.12 18.51,16.44 13.14,16.44 13.14,19.12 15.84,19.12 15.84,47.13 
	13.14,47.13 13.14,49.77 34.62,49.77 34.62,43.13 31.94,43.13 "/>
<polygon points="43.43,10.16 38.27,10.16 38.27,12.84 40.72,12.84 40.72,31.83 38.27,31.83 38.27,34.46 43.43,34.46 43.43,31.83 
	43.43,31.83 "/>
<rect x="40.72" width="2.72" height="7.35"/>
<path d="M80.2,26.33c0-2.62,0-8.76-6.82-8.76c-2.3,0-5.01,0.85-7.42,2.29c-1.12-1.54-2.92-2.29-5.48-2.29
	c-1.83,0-3.91,0.59-6.08,1.72v-1.13h-5.16v2.67h2.45v19h-2.36v2.63h5.08v-2.63h0V22.26c2.32-1.32,4.41-2.02,6.08-2.02
	c3.3,0,4.1,1.19,4.1,6.08v16.14h2.72V26.33c0-1.71-0.1-2.95-0.34-3.98c2.27-1.38,4.48-2.1,6.43-2.1c3.1,0,4.1,1.48,4.1,6.08v16.14
	h-2.22v-2.63h4.94V26.33z"/>
<rect x="87.1" y="24.07" width="12.12" height="2.72"/>
<rect x="172.43" y="35.75" width="5.38" height="2.72"/>
<rect x="75.26" y="39.75" width="4.94" height="2.72"/>
<polygon points="126.73,9.81 126.73,9.81 126.73,21.22 108.96,21.22 108.96,9.81 111.66,9.81 111.66,7.14 106.28,7.14 106.28,9.81 
	106.28,9.81 106.28,37.83 103.63,37.83 103.63,40.46 108.96,40.46 108.96,37.83 108.96,37.83 108.96,23.89 126.73,23.89 
	126.73,37.83 124.03,37.83 124.03,40.46 129.41,40.46 129.41,37.83 129.41,37.83 129.41,9.81 132.06,9.81 132.06,7.14 126.73,7.14 
	"/>
<path d="M152.51,37.27c0-6.44-2.2-8.5-9.05-8.5c-1.03,0-2.33,0.03-5.88,0.38l-0.9,0.09v3.56h2.63v-1.18
	c1.66-0.12,3.02-0.18,4.14-0.18c5.63,0,6.38,1.17,6.38,5.83v1.45h-3.81c-6.99,0-11.03,1.25-11.03,7.62v0.17
	c0,5.08,2.61,7.66,7.75,7.66c2.73,0,5.19-0.86,7.09-1.74v1.24h5.12v-2.63h-2.45V37.27z M146.03,41.35h3.81v8.15
	c-1.6,0.86-4.27,2.03-7.01,2.03c-3.66,0-5.16-1.46-5.16-5.03v-0.17C137.67,42.65,138.93,41.35,146.03,41.35z"/>
<path d="M177.81,23.51c0-4.91-0.97-9.94-8.17-9.94c-2.77,0-5.26,0.88-7.31,1.86v-1.27h-5.08v2.67h2.36v19h-2.36v2.63h5.08v-2.63h0
	V18.38c2.74-1.41,5.19-2.13,7.31-2.13c3.62,0,5.45,1.12,5.45,7.26v14.96h2.72v-2.63h0V23.51z"/>
<path d="M192.54,2.83c-6.57,0-9.77,3.93-9.77,12v1.35c0,8.33,3.3,12.05,10.7,12.05c3.19,0,6.52-0.53,7.46-0.69l0.83-0.14v-2.58
	l-1.13,0.15c-1.31,0.17-4.63,0.58-7.16,0.58c-4.74,0-7.92-1.53-8.02-8.92h16.78v-1.76C202.23,6.78,199.06,2.83,192.54,2.83z
	 M192.54,5.51c4.73,0,6.85,2.54,7,8.46h-14.09C185.61,8.05,187.75,5.51,192.54,5.51z"/>
<polygon points="214.04,42.83 214.04,11 208.88,11 208.88,13.67 211.32,13.67 211.32,42.83 208.88,42.83 208.88,45.46 214.04,45.47 
	214.04,42.83 "/>
</svg>
