<?xml version="1.0" encoding="utf-8"?>
<!-- Generator: Adobe Illustrator 24.0.0, SVG Export Plug-In . SVG Version: 6.00 Build 0)  -->
<svg version="1.1" id="Capa_1" xmlns="http://www.w3.org/2000/svg" xmlns:xlink="http://www.w3.org/1999/xlink" x="0px" y="0px"
	 viewBox="0 0 512 512" style="enable-background:new 0 0 512 512;" xml:space="preserve">
<style type="text/css">
	.st0{fill:#7383BF;}
	.st1{fill:#CB465F;}
	.st2{fill:#366DB6;}
	.st3{fill:#ED8A19;}
	.st4{fill:#4D007E;}
	.st5{fill:#AFB6BB;}
	.st6{fill:#6C4127;}
	.st7{fill:#556080;}
	.st8{fill:#28384C;}
	.st9{fill:#E7ECED;}
	.st10{fill:#BE7C6D;}
	.st11{fill:#C5411E;}
	.st12{fill:#EBBA16;}
	.st13{fill:#61B872;}
</style>
<polyline class="st0" points="34,157.7 34,487.8 478,487.8 478,157.7 "/>
<g>
	<polyline class="st1" points="478,157.7 478,110.6 34,110.6 34,157.7 178,157.7 	"/>
</g>
<rect x="10" y="24.2" class="st2" width="492" height="86.4"/>
<rect x="180.1" y="24.2" class="st1" width="151.8" height="86.4"/>
<polygon class="st3" points="180.1,110.6 180.1,270.4 218.1,244 256,270.3 293.9,244 331.9,270.4 331.9,110.6 "/>
<path class="st4" d="M425.8,167.7c-0.6,0-1.3-0.1-2-0.2c-0.6-0.1-1.3-0.3-1.9-0.6s-1.2-0.6-1.7-0.9c-0.5-0.4-1.1-0.8-1.5-1.2
	c-1.9-1.9-2.9-4.4-2.9-7.1c0-0.6,0.1-1.3,0.2-1.9s0.3-1.3,0.6-1.9c0.3-0.6,0.6-1.2,0.9-1.7c0.4-0.6,0.8-1.1,1.2-1.5s1-0.9,1.5-1.2
	c0.5-0.4,1.1-0.7,1.7-0.9s1.2-0.4,1.9-0.6c1.3-0.3,2.6-0.3,3.9,0c0.6,0.1,1.3,0.3,1.9,0.6s1.2,0.6,1.7,0.9c0.5,0.4,1,0.8,1.5,1.2
	c0.5,0.5,0.9,1,1.2,1.5c0.4,0.5,0.7,1.1,0.9,1.7c0.3,0.6,0.4,1.2,0.6,1.9s0.2,1.3,0.2,1.9c0,2.6-1.1,5.2-2.9,7.1
	c-0.5,0.5-1,0.9-1.5,1.2c-0.5,0.4-1.1,0.7-1.7,0.9s-1.2,0.4-1.9,0.6C427.1,167.6,426.5,167.7,425.8,167.7z"/>
<rect x="291.6" y="301.4" class="st2" width="186.4" height="186.4"/>
<path class="st4" d="M502,14.2H10c-5.5,0-10,4.5-10,10v86.5c0,5.5,4.5,10,10,10h14v367.2c0,5.5,4.5,10,10,10h444c5.5,0,10-4.5,10-10
	V120.6h14c5.5,0,10-4.5,10-10V24.2C512,18.7,507.5,14.2,502,14.2z M190.1,120.6h131.8v130.6l-22.3-15.5c-3.4-2.4-8-2.4-11.4,0
	L256,258.2l-32.2-22.4c-1.7-1.2-3.7-1.8-5.7-1.8c-2,0-4,0.6-5.7,1.8l-22.3,15.5L190.1,120.6L190.1,120.6z M321.9,34.2v66.5H190.1
	V34.2H321.9z M20,34.2h150.1v66.5H20V34.2z M170.1,120.6v27.1H44v-27.1H170.1z M468,477.8H301.6V311.4H468V477.8z M468,291.4H291.6
	c-5.5,0-10,4.5-10,10v176.4H44V167.7h126.1v102.7c0,3.7,2.1,7.1,5.4,8.9c3.3,1.7,7.3,1.5,10.3-0.6l32.3-22.4l32.2,22.4
	c3.4,2.4,8,2.4,11.4,0l32.2-22.4l32.3,22.4c1.7,1.2,3.7,1.8,5.7,1.8c1.6,0,3.2-0.4,4.6-1.1c3.3-1.7,5.4-5.1,5.4-8.9V167.7h43.9
	c5.5,0,10-4.5,10-10s-4.5-10-10-10h-43.9v-27.1H468L468,291.4L468,291.4L468,291.4z M492,100.6H341.9V34.2H492V100.6z"/>
<path class="st5" d="M1062.3,277.9h136.5v34.1h-136.5V277.9z"/>
<path class="st6" d="M1284.2,585.1H977c-18.8,0-34.1-15.3-34.1-34.1V397.4c0-18.8,15.3-34.1,34.1-34.1h307.2
	c18.9,0,34.1,15.3,34.1,34.1V551C1318.3,569.8,1303,585.1,1284.2,585.1z"/>
<path class="st7" d="M856.4,260.9c-11.2,0-18.9,11.1-15,21.6l24.6,51.2v260h34.1v-260l-28.8-62.4C869.1,265,863.1,260.9,856.4,260.9
	z"/>
<path class="st8" d="M959.9,670.5c0,28.3-22.9,51.2-51.2,51.2s-51.2-22.9-51.2-51.2s22.9-51.2,51.2-51.2S959.9,642.2,959.9,670.5z"
	/>
<path class="st9" d="M891.6,653.4h34.1v34.1h-34.1V653.4z"/>
<path class="st8" d="M1318.3,670.5c0,28.3-22.9,51.2-51.2,51.2s-51.2-22.9-51.2-51.2s22.9-51.2,51.2-51.2S1318.3,642.2,1318.3,670.5
	z"/>
<path class="st9" d="M1250,653.4h34.1v34.1H1250V653.4z"/>
<path class="st0" d="M840.4,585.1h494.9v34.1H840.4V585.1z"/>
<path class="st10" d="M994,363.3h34.1v221.9H994V363.3z"/>
<path class="st10" d="M1233,363.3h34.1v221.9H1233V363.3z"/>
<path class="st11" d="M1096.4,414.5v68.3c7.2,2.6,12.9-7.2,15.5,0l10.3,15.5c7.1-5.3,15.8-8.5,25.4-8.5c6.1,0,11.8,1.3,17.1,3.6
	v-78.8H1096.4z"/>
<path class="st12" d="M1190.3,491.3c0,23.6-19.1,42.7-42.7,42.7c-23.6,0-42.7-19.1-42.7-42.7c0-23.6,19.1-42.7,42.7-42.7
	C1171.2,448.6,1190.3,467.7,1190.3,491.3z"/>
<path class="st2" d="M1113.5,465.9c0-0.1,0-0.2,0-0.3c0-14.1-11.5-25.6-25.6-25.6s-25.6,11.5-25.6,25.6c0,14.1,11.5,25.6,25.6,25.6
	c6.9,0,13.2-2.8,17.8-7.2C1106.9,477.3,1109.6,471.2,1113.5,465.9z"/>
<g>
	<path class="st4" d="M908.7,730.2c-32.9,0-59.7-26.8-59.7-59.7s26.8-59.7,59.7-59.7s59.7,26.8,59.7,59.7S941.6,730.2,908.7,730.2z
		 M908.7,627.8c-23.5,0-42.7,19.1-42.7,42.7s19.1,42.7,42.7,42.7s42.7-19.1,42.7-42.7S932.2,627.8,908.7,627.8z"/>
	<path class="st4" d="M925.8,696.1h-34.1c-4.7,0-8.5-3.8-8.5-8.5v-34.1c0-4.7,3.8-8.5,8.5-8.5h34.1c4.7,0,8.5,3.8,8.5,8.5v34.1
		C934.3,692.2,930.5,696.1,925.8,696.1z M900.2,679h17.1v-17.1h-17.1V679z"/>
	<path class="st4" d="M1267.1,730.2c-32.9,0-59.7-26.8-59.7-59.7s26.8-59.7,59.7-59.7s59.7,26.8,59.7,59.7S1300,730.2,1267.1,730.2z
		 M1267.1,627.8c-23.5,0-42.7,19.1-42.7,42.7s19.1,42.7,42.7,42.7s42.7-19.1,42.7-42.7S1290.6,627.8,1267.1,627.8z"/>
	<path class="st4" d="M1284.2,696.1H1250c-4.7,0-8.5-3.8-8.5-8.5v-34.1c0-4.7,3.8-8.5,8.5-8.5h34.1c4.7,0,8.5,3.8,8.5,8.5v34.1
		C1292.7,692.2,1288.9,696.1,1284.2,696.1z M1258.6,679h17.1v-17.1h-17.1V679z"/>
	<path class="st4" d="M1335.4,627.8H840.4c-4.7,0-8.5-3.8-8.5-8.5v-34.1c0-4.7,3.8-8.5,8.5-8.5h494.9c4.7,0,8.5,3.8,8.5,8.5v34.1
		C1343.9,624,1340.1,627.8,1335.4,627.8z M849,610.7h477.9v-17.1H849V610.7z"/>
	<path class="st4" d="M900.2,593.7H866c-4.7,0-8.5-3.8-8.5-8.5V335.6l-23.7-49.5c-3.1-8.2-2.1-16.7,2.5-23.3
		c4.6-6.6,12.1-10.5,20.1-10.5c10.2,0,19.4,6.4,23,15.9l28.5,61.8c0.5,1.1,0.8,2.3,0.8,3.6v251.5
		C908.7,589.8,904.9,593.7,900.2,593.7z M874.6,576.6h17.1V335.5l-28-60.7c-2.4-6.3-10.2-6.8-13.3-2.2c-1.4,2-1.7,4.5-0.9,6.9
		l24.3,50.5c0.6,1.2,0.8,2.4,0.8,3.7V576.6z"/>
	<path class="st4" d="M994,371.8c-4.7,0-8.5-3.8-8.5-8.5s3.8-8.5,8.5-8.5c14.1,0,25.6-11.5,25.6-25.6c0-23.5,19.1-42.7,42.7-42.7
		c4.7,0,8.5,3.8,8.5,8.5s-3.8,8.5-8.5,8.5c-14.1,0-25.6,11.5-25.6,25.6C1036.7,352.7,1017.6,371.8,994,371.8z"/>
	<path class="st4" d="M1028.2,593.7H994c-4.7,0-8.5-3.8-8.5-8.5V363.3c0-4.7,3.8-8.5,8.5-8.5h34.1c4.7,0,8.5,3.8,8.5,8.5v221.9
		C1036.7,589.8,1032.9,593.7,1028.2,593.7z M1002.6,576.6h17.1V371.8h-17.1V576.6z"/>
	<path class="st4" d="M1267.1,593.7H1233c-4.7,0-8.5-3.8-8.5-8.5V363.3c0-4.7,3.8-8.5,8.5-8.5h34.1c4.7,0,8.5,3.8,8.5,8.5v221.9
		C1275.6,589.8,1271.8,593.7,1267.1,593.7z M1241.5,576.6h17.1V371.8h-17.1V576.6z"/>
	<path class="st4" d="M1284.2,593.7H977c-23.5,0-42.7-19.1-42.7-42.7V397.4c0-23.5,19.1-42.7,42.7-42.7h307.2
		c23.5,0,42.7,19.1,42.7,42.7V551C1326.8,574.5,1307.7,593.7,1284.2,593.7z M977,371.8c-14.1,0-25.6,11.5-25.6,25.6V551
		c0,14.1,11.5,25.6,25.6,25.6h307.2c14.1,0,25.6-11.5,25.6-25.6V397.4c0-14.1-11.5-25.6-25.6-25.6H977z"/>
	<path class="st4" d="M1198.8,320.6h-136.5c-4.7,0-8.5-3.8-8.5-8.5v-34.1c0-4.7,3.8-8.5,8.5-8.5h136.5c4.7,0,8.5,3.8,8.5,8.5v34.1
		C1207.4,316.8,1203.6,320.6,1198.8,320.6z M1070.8,303.5h119.5v-17.1h-119.5V303.5z"/>
	<path class="st4" d="M1267.1,371.8c-23.5,0-42.7-19.1-42.7-42.7c0-14.1-11.5-25.6-25.6-25.6c-4.7,0-8.5-3.8-8.5-8.5
		s3.8-8.5,8.5-8.5c23.5,0,42.7,19.1,42.7,42.7c0,14.1,11.5,25.6,25.6,25.6c4.7,0,8.5,3.8,8.5,8.5S1271.8,371.8,1267.1,371.8z"/>
	<path class="st4" d="M1147.6,542.5c-28.2,0-51.2-23-51.2-51.2c0-28.2,23-51.2,51.2-51.2c28.2,0,51.2,23,51.2,51.2
		C1198.8,519.5,1175.9,542.5,1147.6,542.5z M1147.6,457.1c-18.8,0-34.1,15.3-34.1,34.1s15.3,34.1,34.1,34.1s34.1-15.3,34.1-34.1
		S1166.5,457.1,1147.6,457.1z"/>
	<path class="st4" d="M1087.9,499.8c-18.8,0-34.1-15.3-34.1-34.1s15.3-34.1,34.1-34.1s34.1,15.3,34.1,34.1c0,0.3,0,0.7-0.1,1.1
		c-0.1,1.5-0.7,3-1.6,4.3c-3.2,4.3-5.3,9.2-6.2,14.4c-0.3,1.8-1.2,3.4-2.5,4.7C1105.2,496.4,1096.8,499.8,1087.9,499.8z
		 M1087.9,448.6c-9.4,0-17.1,7.7-17.1,17.1c0,9.4,7.7,17.1,17.1,17.1c3.6,0,7.1-1.2,10-3.3c1.3-5.7,3.7-11.1,6.9-16
		C1103.7,455.1,1096.6,448.6,1087.9,448.6z M1113.5,465.9L1113.5,465.9L1113.5,465.9z"/>
	<path class="st4" d="M1122.3,465.7h-10.3c-3.6,0-6.8-2.3-8-5.7c-1.7-4.8-5.5-8.6-10.3-10.3c-3.4-1.2-5.7-4.4-5.7-8v-27.2
		c0-4.7,3.8-8.5,8.5-8.5h68.3c4.7,0,8.5,3.8,8.5,8.5v37.7c0,2.9-1.4,5.6-3.9,7.1c-2.4,1.6-5.5,1.8-8.1,0.7c-11.2-4.9-24-3.4-33.9,4
		C1125.9,465.1,1124.1,465.7,1122.3,465.7z M1117.4,448.6h2.2c10.9-7.2,24-10,36.6-7.8V423H1105v13.2
		C1110.1,439.2,1114.4,443.4,1117.4,448.6z"/>
</g>
<rect x="1382.7" y="606.1" class="st9" width="494.9" height="51.2"/>
<g>
	<rect x="1809.3" y="657.3" class="st5" width="34.1" height="34.1"/>
	<rect x="1416.8" y="657.3" class="st5" width="34.1" height="34.1"/>
</g>
<path class="st0" d="M1630.1,333h110.9c28.3,0,51.2-22.9,51.2-51.2l0,0c0-28.3-22.9-51.2-51.2-51.2h-110.9h-136.5
	c-14.1,0-25.6,11.5-25.6,25.6c0,14.1,11.5,25.6,25.6,25.6c-14.1,0-25.6,11.5-25.6,25.6c0,14.1,11.5,25.6,25.6,25.6
	C1493.6,333,1630.1,333,1630.1,333z"/>
<path class="st7" d="M1647.2,290.4h-153.6c-4.7,0-8.5-3.8-8.5-8.5s3.8-8.5,8.5-8.5h153.6c4.7,0,8.5,3.8,8.5,8.5
	C1655.7,286.5,1651.9,290.4,1647.2,290.4z"/>
<path class="st13" d="M1630.1,537.8h110.9c28.3,0,51.2-22.9,51.2-51.2l0,0c0-28.3-22.9-51.2-51.2-51.2h-110.9h-136.5
	c-14.1,0-25.6,11.5-25.6,25.6c0,14.1,11.5,25.6,25.6,25.6c-14.1,0-25.6,11.5-25.6,25.6c0,14.1,11.5,25.6,25.6,25.6H1630.1z"/>
<path class="st3" d="M1630.1,333h-110.9c-28.3,0-51.2,22.9-51.2,51.2l0,0c0,28.3,22.9,51.2,51.2,51.2h110.9h136.5
	c14.1,0,25.6-11.5,25.6-25.6c0-14.1-11.5-25.6-25.6-25.6c14.1,0,25.6-11.5,25.6-25.6c0-14.1-11.5-25.6-25.6-25.6L1630.1,333
	L1630.1,333z"/>
<path class="st1" d="M1792.3,606.1H1468c-18.9,0-34.1-15.3-34.1-34.1l0,0c0-18.9,15.3-34.1,34.1-34.1h324.3
	c18.8,0,34.1,15.3,34.1,34.1l0,0C1826.4,590.8,1811.1,606.1,1792.3,606.1z"/>
<g>
	<path class="st4" d="M1877.6,665.8h-494.9c-4.7,0-8.5-3.8-8.5-8.5v-51.2c0-4.7,3.8-8.5,8.5-8.5h494.9c4.7,0,8.5,3.8,8.5,8.5v51.2
		C1886.1,662,1882.3,665.8,1877.6,665.8z M1391.2,648.8h477.9v-34.1h-477.9V648.8z"/>
	<path class="st4" d="M1843.5,700h-34.1c-4.7,0-8.5-3.8-8.5-8.5v-34.1c0-4.7,3.8-8.5,8.5-8.5h34.1c4.7,0,8.5,3.8,8.5,8.5v34.1
		C1852,696.1,1848.2,700,1843.5,700z M1817.9,682.9h17.1v-17.1h-17.1V682.9z"/>
	<path class="st4" d="M1826.4,734.1c-4.7,0-8.5-3.8-8.5-8.5v-34.1c0-4.7,3.8-8.5,8.5-8.5s8.5,3.8,8.5,8.5v34.1
		C1834.9,730.3,1831.1,734.1,1826.4,734.1z"/>
	<path class="st4" d="M1843.5,734.1h-34.1c-4.7,0-8.5-3.8-8.5-8.5s3.8-8.5,8.5-8.5h34.1c4.7,0,8.5,3.8,8.5,8.5
		C1852,730.3,1848.2,734.1,1843.5,734.1z"/>
	<path class="st4" d="M1450.9,700h-34.1c-4.7,0-8.5-3.8-8.5-8.5v-34.1c0-4.7,3.8-8.5,8.5-8.5h34.1c4.7,0,8.5,3.8,8.5,8.5v34.1
		C1459.5,696.1,1455.6,700,1450.9,700z M1425.3,682.9h17.1v-17.1h-17.1V682.9z"/>
	<path class="st4" d="M1433.9,734.1c-4.7,0-8.5-3.8-8.5-8.5v-34.1c0-4.7,3.8-8.5,8.5-8.5s8.5,3.8,8.5,8.5v34.1
		C1442.4,730.3,1438.6,734.1,1433.9,734.1z"/>
	<path class="st4" d="M1450.9,734.1h-34.1c-4.7,0-8.5-3.8-8.5-8.5s3.8-8.5,8.5-8.5h34.1c4.7,0,8.5,3.8,8.5,8.5
		S1455.6,734.1,1450.9,734.1z"/>
	<path class="st4" d="M1741.1,341.6h-247.5c-18.8,0-34.1-15.3-34.1-34.1c0-10.2,4.5-19.3,11.6-25.6c-7.1-6.3-11.6-15.4-11.6-25.6
		c0-18.8,15.3-34.1,34.1-34.1h247.5c32.9,0,59.7,26.8,59.7,59.7S1774,341.6,1741.1,341.6z M1493.6,290.4c-9.4,0-17.1,7.7-17.1,17.1
		c0,9.4,7.7,17.1,17.1,17.1h247.5c23.5,0,42.7-19.1,42.7-42.7s-19.1-42.7-42.7-42.7h-247.5c-9.4,0-17.1,7.7-17.1,17.1
		s7.7,17.1,17.1,17.1c4.7,0,8.5,3.8,8.5,8.5S1498.3,290.4,1493.6,290.4z"/>
	<path class="st4" d="M1647.2,290.4h-153.6c-4.7,0-8.5-3.8-8.5-8.5c0-4.7,3.8-8.5,8.5-8.5h153.6c4.7,0,8.5,3.8,8.5,8.5
		C1655.7,286.5,1651.9,290.4,1647.2,290.4z"/>
	<path class="st4" d="M1741.1,307.4h-25.6c-4.7,0-8.5-3.8-8.5-8.5c0-4.7,3.8-8.5,8.5-8.5h25.6c4.7,0,8.5-3.8,8.5-8.5
		s-3.8-8.5-8.5-8.5h-25.6c-4.7,0-8.5-3.8-8.5-8.5c0-4.7,3.8-8.5,8.5-8.5h25.6c14.1,0,25.6,11.5,25.6,25.6
		C1766.7,295.9,1755.2,307.4,1741.1,307.4z"/>
	<path class="st4" d="M1741.1,546.4h-247.5c-18.8,0-34.1-15.3-34.1-34.1c0-10.2,4.5-19.3,11.6-25.6c-7.1-6.3-11.6-15.4-11.6-25.6
		c0-18.8,15.3-34.1,34.1-34.1h247.5c32.9,0,59.7,26.8,59.7,59.7C1800.8,519.6,1774,546.4,1741.1,546.4z M1493.6,495.2
		c-9.4,0-17.1,7.7-17.1,17.1c0,9.4,7.7,17.1,17.1,17.1h247.5c23.5,0,42.7-19.1,42.7-42.7s-19.1-42.7-42.7-42.7h-247.5
		c-9.4,0-17.1,7.7-17.1,17.1c0,9.4,7.7,17.1,17.1,17.1c4.7,0,8.5,3.8,8.5,8.5S1498.3,495.2,1493.6,495.2z"/>
	<path class="st4" d="M1647.2,495.2h-153.6c-4.7,0-8.5-3.8-8.5-8.5s3.8-8.5,8.5-8.5h153.6c4.7,0,8.5,3.8,8.5,8.5
		S1651.9,495.2,1647.2,495.2z"/>
	<path class="st4" d="M1741.1,512.2h-25.6c-4.7,0-8.5-3.8-8.5-8.5s3.8-8.5,8.5-8.5h25.6c4.7,0,8.5-3.8,8.5-8.5s-3.8-8.5-8.5-8.5
		h-25.6c-4.7,0-8.5-3.8-8.5-8.5c0-4.7,3.8-8.5,8.5-8.5h25.6c14.1,0,25.6,11.5,25.6,25.6C1766.7,500.7,1755.2,512.2,1741.1,512.2z"/>
	<path class="st4" d="M1766.7,444h-247.5c-32.9,0-59.7-26.8-59.7-59.7s26.8-59.7,59.7-59.7h247.5c18.8,0,34.1,15.3,34.1,34.1
		c0,10.2-4.5,19.3-11.6,25.6c7.1,6.3,11.6,15.4,11.6,25.6C1800.8,428.6,1785.5,444,1766.7,444z M1519.2,341.6
		c-23.5,0-42.7,19.1-42.7,42.7s19.1,42.7,42.7,42.7h247.5c9.4,0,17.1-7.7,17.1-17.1c0-9.4-7.7-17.1-17.1-17.1
		c-4.7,0-8.5-3.8-8.5-8.5c0-4.7,3.8-8.5,8.5-8.5c9.4,0,17.1-7.7,17.1-17.1s-7.7-17.1-17.1-17.1L1519.2,341.6L1519.2,341.6z"/>
	<path class="st4" d="M1766.7,392.8h-153.6c-4.7,0-8.5-3.8-8.5-8.5c0-4.7,3.8-8.5,8.5-8.5h153.6c4.7,0,8.5,3.8,8.5,8.5
		C1775.2,388.9,1771.4,392.8,1766.7,392.8z"/>
	<path class="st4" d="M1544.8,409.8h-25.6c-14.1,0-25.6-11.5-25.6-25.6c0-14.1,11.5-25.6,25.6-25.6h25.6c4.7,0,8.5,3.8,8.5,8.5
		c0,4.7-3.8,8.5-8.5,8.5h-25.6c-4.7,0-8.5,3.8-8.5,8.5c0,4.7,3.8,8.5,8.5,8.5h25.6c4.7,0,8.5,3.8,8.5,8.5
		C1553.3,406,1549.5,409.8,1544.8,409.8z"/>
	<path class="st4" d="M1792.3,614.6H1468c-23.5,0-42.7-19.1-42.7-42.7c0-23.5,19.1-42.7,42.7-42.7h324.3c23.5,0,42.7,19.1,42.7,42.7
		C1834.9,595.5,1815.8,614.6,1792.3,614.6z M1468,546.4c-14.1,0-25.6,11.5-25.6,25.6s11.5,25.6,25.6,25.6h324.3
		c14.1,0,25.6-11.5,25.6-25.6s-11.5-25.6-25.6-25.6H1468z"/>
	<path class="st4" d="M1792.3,580.5H1468c-4.7,0-8.5-3.8-8.5-8.5s3.8-8.5,8.5-8.5h324.3c4.7,0,8.5,3.8,8.5,8.5
		S1797,580.5,1792.3,580.5z"/>
</g>
</svg>
