<svg id="Layer_1" enable-background="new 0 0 506.329 506.329" height="512" viewBox="0 0 506.329 506.329" width="512" xmlns="http://www.w3.org/2000/svg"><path d="m432.138 74.19c-98.912-98.914-259.022-98.927-357.947 0-98.914 98.914-98.927 259.021 0 357.948 98.91 98.913 259.022 98.928 357.947 0 98.914-98.913 98.927-259.02 0-357.948zm-178.973 279.832c-55.612 0-100.856-45.244-100.856-100.857 0-55.612 45.244-100.856 100.856-100.856s100.856 45.244 100.856 100.856-45.244 100.857-100.856 100.857z" fill="#d7edff"/><path d="m432.295 74.347c-47.775-47.859-111.397-74.29-179.13-74.29-138.611 0-253.008 112.793-253.108 252.926-.048 67.677 26.28 131.302 74.134 179.155 6.812 6.813 18.119 6.115 24.018-1.587 20.369-26.603 50.353-65.328 75.457-94.369 5.026-5.815 5.208-14.383.432-20.406-52.286-65.925-4.629-163.469 79.074-163.469 88.023 0 132.686 104.42 74.861 168.427-21.494 23.793-25.867 58.722-10.882 86.916 24.361 45.834 87.579 55.081 123.423 15.621 89.609-98.65 88.28-252.197-8.279-348.924z" fill="#b9dcff"/><path d="m428.483 70.611c-48.69-46.774-111.767-70.785-176.133-70.553-139.658.44-252.295 113.414-252.293 253.109 0 65.902 25.204 128.311 70.969 175.732 6.255 6.482 16.637 6.513 22.935.094 28.268-28.814 59.911-60.65 84.646-85.163 6.123-6.068 6.338-15.897.485-22.227-17.637-19.074-27.146-43.904-26.774-69.916.775-54.369 45.65-98.949 100.034-99.376 26.303-.208 51.353 9.688 70.404 27.861 44.2 42.166 117.219 16.557 127.672-41.98 4.439-24.854-3.765-50.118-21.945-67.581z" fill="#8bc4ff"/><path d="m181.93 324.551c-24.249-24.323-58.082-27.948-85.026-13.881l-5.372 2.805c-42.852 22.377-54.91 81.029-17.712 118.277 34.433 34.588 92.572 26.81 116.731-15.933.1 0-.386.682 3.467-6.134 15.551-27.512 10.586-62.515-12.088-85.134z" fill="#b9dcff"/><path d="m253.165.057c-139.885 0-253.108 113.203-253.108 253.108 0 139.884 113.203 253.107 253.107 253.107 139.886 0 253.107-113.204 253.107-253.107.001-139.844-113.173-253.108-253.106-253.108zm163.721 401.699c-9.712 10.692-23.534 15.79-37.909 13.994-35.744-4.47-51.048-47.163-27.198-73.564 34.16-37.709 44.209-92.966 23.588-141.137 30.558-.229 61.802-19.629 72.54-52.796 42.862 79.311 34.24 181.682-31.021 253.503zm-285.199 19.31c-12.957 1.75-25.663-2.18-36.29-13.011-19.258-19.74-14.162-53.105 10.947-66.215 6.926-3.616 13.055-7.336 23.757-7.336 29.37 0 51.181 32.682 36.06 59.436-5.762 10.194-13.155 24.245-34.474 27.126zm20.621-167.901c0-55.612 45.244-100.856 100.856-100.856s100.856 45.244 100.856 100.856-45.244 100.856-100.856 100.856-100.856-45.244-100.856-100.856zm-55.49-156.348c85.354-85.354 223.04-86.48 309.735-2.888 21.934 21.386 15.413 58.496-13.106 70.954-18.354 8.027-36.46 3.717-48.602-7.865-24.487-23.311-57.113-36.71-91.681-36.71-94.863 0-159.095 97.057-122.573 184.097-16.13-2.088-26.798 2.667-39.06 9.07-16.73 8.736-29.124 23.023-35.364 40.307-41.925-81.869-29.777-186.536 40.651-256.965zm53.947 352.419c16.749-5.864 30.817-17.548 39.787-33.417 6.051-10.705 12.609-21.759 10.995-40.236 33.469 14.166 72.419 14.185 106.795-1.574.849 33.842 23.745 61.994 54.842 71.045-65.421 37.648-146.292 38.818-212.419 4.182z" fill="#2e58ff"/></svg>