<?xml version="1.0" encoding="utf-8"?>
<!-- Generator: Adobe Illustrator 24.0.0, SVG Export Plug-In . SVG Version: 6.00 Build 0)  -->
<svg version="1.1" id="Layer_1" xmlns="http://www.w3.org/2000/svg" xmlns:xlink="http://www.w3.org/1999/xlink" x="0px" y="0px"
	 viewBox="0 0 512 512" style="enable-background:new 0 0 512 512;" xml:space="preserve">
<style type="text/css">
	.st0{fill:#1F436D;}
	.st1{fill:#61B872;}
	.st2{fill:#366DB6;}
	.st3{fill:#4D007E;}
	.st4{fill:#E7ECED;}
	.st5{fill:#EFCE4A;}
</style>
<circle class="st0" cx="311.5" cy="336.1" r="46.1"/>
<circle class="st1" cx="477.5" cy="257.9" r="16"/>
<circle class="st1" cx="416.1" cy="395.4" r="16"/>
<rect x="165.8" y="284.9" transform="matrix(0.7071 -0.7071 0.7071 0.7071 -158.2734 247.3453)" class="st2" width="107.2" height="59.7"/>
<path class="st3" d="M128.4,406.4c-2.6,0-5,1-6.9,2.8c-1.9,1.8-3,4.3-3.1,7c-0.1,2.7,0.9,5.2,2.8,7.1c1.9,2,4.5,3.1,7.2,3.1
	c2.6,0,5-1,6.9-2.8c4-3.8,4.1-10.1,0.3-14.1C133.7,407.5,131.2,406.4,128.4,406.4z"/>
<path class="st3" d="M495.7,231.6c17.6-106.2,22.8-123.2,5.1-206.6c-7.6-63.7-39.2,4.1-203.8,157C149.6,327.2,131.6,343.9,6.3,463.1
	c-22.3,18.5,23.2,63.5,42.1,43.3c0.1-0.1,52.6-50.1,54.3-51.7c7.8-7-0.9-23.7-13.8-14.5h0c0,0-54.2,51.7-54.3,51.8L20,477.7
	c0,0,0,0,0,0v0h0l140.4-133.9c2.7,2.7,11.6,11.4,14.6,14.3c-44.4,34.1-18.4,54.1,14.3,14c17.6,30.2,47.3-23.5,61.4-31.7
	c1.5,43,46.9,69,84.8,53.2c31.5,46.4,18.2,46.1,60.5,24.3c27.4,22,62.6-9.1,46.2-37.8c-18.4-29.6-61.7-11.4-56.2,20.4l-16.7,8.7
	L352.6,383c55.3-53.2-11.3-131.3-72.6-95.9l-12-11.7c27.6-3.8,48.4-30.3,44.1-59c34.2,5.1,64.1-24.9,59-59
	c34,5.1,63.8-24.5,59.1-58.4c25,3.8,50.7-13.4,57-37.4c13.5,65.5-8,131.9-11.3,166.8c-29,5.3-33.9,42.3-9.7,55.8
	c-6.2,26-1.2,33,10.5,50c3.7,11.3-15,18.2-19.9,6c1.7-18.8-17.3-24.1-20.5-6.1c4.6,62.7,92.5,26.4,47.6-27c-1.6-5.8,1.3-13.9,2-19.4
	C515.4,282.6,520.2,244.8,495.7,231.6L495.7,231.6z M416.1,385.3c11.5,0.1,14.4,16.5,2.4,19.7C403.6,408.6,401.1,385.9,416.1,385.3z
	 M203.9,358.4l-29.1-28.4l60.1-58.8l29.1,28.4L203.9,358.4z M353,338.3c0,10.7-4.3,20.4-11.4,27.6c-7.4-7.7-25.7-55.3-39.2-30.8
	c-4.3,8,20,34.9,22.1,41.2c-37.7,11.4-67.2-28.8-47.3-59.5C300.9,281.8,352.9,300.4,353,338.3L353,338.3z M260.6,256
	c-3.1,0-6.1-0.5-9-1.3l39.8-39.1C297.3,234.9,281.2,256.4,260.6,256z M319.6,197c-2.8,0-5.5-0.4-8.1-1l39.2-38.5
	C355.8,176.7,339.8,197.3,319.6,197z M378.7,138c-2.5,0-4.9-0.3-7.2-0.8L410,99.3C414.4,118.5,398.5,138.3,378.7,138z M437.2,79.5
	c-2.2,0-4.3-0.2-6.3-0.6l37.8-37.1C472.5,60.3,456.6,80,437.2,79.5z M491.5,259.7c-2.5,11.5-22,10.8-20.8-3.5
	C473.2,244.6,492.8,245.3,491.5,259.7z"/>
<path class="st1" d="M684.7,435.2c-28.3,0-51.2-22.9-51.2-51.2V187.7c0-28.3,22.9-51.2,51.2-51.2c28.3,0,51.2,22.9,51.2,51.2V384
	C735.9,412.2,713,435.2,684.7,435.2z"/>
<path class="st1" d="M1051.7,307.2c-28.3,0-51.2-22.9-51.2-51.2V59.7c0-28.3,22.9-51.2,51.2-51.2c28.3,0,51.2,22.9,51.2,51.2V256
	C1102.9,284.2,1079.9,307.2,1051.7,307.2z"/>
<path class="st0" d="M812.7,341.3l-85.3,162.1h196.3L812.7,341.3z"/>
<path class="st2" d="M1128.5,503.4H898.1l-85.3-162.1h213.3L1128.5,503.4z"/>
<path class="st0" d="M1060.2,469.3h-128L881,375.4h119.5L1060.2,469.3z"/>
<path class="st4" d="M932.2,93.8c-3.3,0-6.3,0.7-9.2,1.8c-3.1-15.6-16.9-27.4-33.4-27.4c-16.5,0-30.3,11.8-33.5,27.4
	c-2.9-1.1-6-1.8-9.2-1.8c-14.1,0-25.6,11.5-25.6,25.6c0,14.1,11.5,25.6,25.6,25.6h85.3c14.1,0,25.6-11.5,25.6-25.6
	C957.8,105.3,946.3,93.8,932.2,93.8z"/>
<path class="st5" d="M741,8.7c2.2,5.2,3.5,10.8,3.5,16.8c0,23.6-19.1,42.7-42.7,42.7c-6,0-11.6-1.2-16.8-3.5
	c2.6,25.9,24.4,46.1,50.9,46.1c28.3,0,51.2-22.9,51.2-51.2C787.1,33.1,766.9,11.3,741,8.7z"/>
<g>
	<path class="st3" d="M684.7,366.9c-2.2,0-4.4-0.8-6-2.5c-3.3-3.3-3.3-8.7,0-12.1l17.1-17.1c3.3-3.3,8.7-3.3,12.1,0
		c3.3,3.3,3.3,8.7,0,12.1l-17.1,17.1C689.1,366.1,686.9,366.9,684.7,366.9z"/>
	<path class="st3" d="M684.7,264.5c-2.2,0-4.4-0.8-6-2.5c-3.3-3.3-3.3-8.7,0-12.1l17.1-17.1c3.3-3.3,8.7-3.3,12.1,0
		c3.3,3.3,3.3,8.7,0,12.1L690.8,262C689.1,263.7,686.9,264.5,684.7,264.5z"/>
	<path class="st3" d="M684.7,409.6c-2.2,0-4.4-0.8-6-2.5L661.6,390c-3.3-3.3-3.3-8.7,0-12.1c3.3-3.3,8.7-3.3,12.1,0l17.1,17.1
		c3.3,3.3,3.3,8.7,0,12.1C689.1,408.7,686.9,409.6,684.7,409.6z"/>
	<path class="st3" d="M684.7,512c-4.7,0-8.5-3.8-8.5-8.5V187.7c0-4.7,3.8-8.5,8.5-8.5s8.5,3.8,8.5,8.5v315.7
		C693.3,508.1,689.4,512,684.7,512z"/>
	<path class="st3" d="M684.7,443.7c-32.9,0-59.7-26.8-59.7-59.7V187.7c0-32.9,26.8-59.7,59.7-59.7c32.9,0,59.7,26.8,59.7,59.7V384
		C744.5,416.9,717.7,443.7,684.7,443.7z M684.7,145c-23.5,0-42.7,19.1-42.7,42.7V384c0,23.5,19.1,42.7,42.7,42.7
		c23.5,0,42.7-19.1,42.7-42.7V187.7C727.4,164.2,708.3,145,684.7,145z"/>
	<path class="st3" d="M684.7,307.2c-2.2,0-4.4-0.8-6-2.5l-17.1-17.1c-3.3-3.3-3.3-8.7,0-12.1c3.3-3.3,8.7-3.3,12.1,0l17.1,17.1
		c3.3,3.3,3.3,8.7,0,12.1C689.1,306.3,686.9,307.2,684.7,307.2z"/>
	<path class="st3" d="M1051.7,238.9c-2.2,0-4.4-0.8-6-2.5c-3.3-3.3-3.3-8.7,0-12.1l17.1-17.1c3.3-3.3,8.7-3.3,12.1,0
		c3.3,3.3,3.3,8.7,0,12.1l-17.1,17.1C1056,238.1,1053.8,238.9,1051.7,238.9z"/>
	<path class="st3" d="M1051.7,136.5c-2.2,0-4.4-0.8-6-2.5c-3.3-3.3-3.3-8.7,0-12.1l17.1-17.1c3.3-3.3,8.7-3.3,12.1,0
		c3.3,3.3,3.3,8.7,0,12.1l-17.1,17.1C1056,135.7,1053.8,136.5,1051.7,136.5z"/>
	<path class="st3" d="M1051.7,281.6c-2.2,0-4.4-0.8-6-2.5l-17.1-17.1c-3.3-3.3-3.3-8.7,0-12.1c3.3-3.3,8.7-3.3,12.1,0l17.1,17.1
		c3.3,3.3,3.3,8.7,0,12.1C1056,280.7,1053.8,281.6,1051.7,281.6z"/>
	<path class="st3" d="M1051.7,390.4c-4.7,0-8.5-3.8-8.5-8.5V59.7c0-4.7,3.8-8.5,8.5-8.5s8.5,3.8,8.5,8.5v322.1
		C1060.2,386.5,1056.4,390.4,1051.7,390.4z"/>
	<path class="st3" d="M1051.7,315.7c-32.9,0-59.7-26.8-59.7-59.7V59.7c0-32.9,26.8-59.7,59.7-59.7c32.9,0,59.7,26.8,59.7,59.7V256
		C1111.4,288.9,1084.6,315.7,1051.7,315.7z M1051.7,17c-23.5,0-42.7,19.1-42.7,42.7V256c0,23.5,19.1,42.7,42.7,42.7
		c23.5,0,42.7-19.1,42.7-42.7V59.7C1094.3,36.2,1075.2,17,1051.7,17z"/>
	<path class="st3" d="M1051.7,179.2c-2.2,0-4.4-0.8-6-2.5l-17.1-17.1c-3.3-3.3-3.3-8.7,0-12.1c3.3-3.3,8.7-3.3,12.1,0l17.1,17.1
		c3.3,3.3,3.3,8.7,0,12.1C1056,178.3,1053.8,179.2,1051.7,179.2z"/>
	<path class="st3" d="M898.1,512H727.4c-3,0-5.8-1.6-7.3-4.1c-1.5-2.6-1.6-5.7-0.2-8.4l85.3-162.1c3-5.6,12.2-5.6,15.1,0l85.3,162.1
		c1.4,2.6,1.3,5.8-0.2,8.4S901.1,512,898.1,512z M741.5,494.9h142.4l-71.2-135.3L741.5,494.9z"/>
	<path class="st3" d="M1128.5,512H898.1c-3.2,0-6.1-1.8-7.6-4.6l-85.3-162.1c-1.4-2.6-1.3-5.8,0.3-8.4c1.5-2.6,4.3-4.1,7.3-4.1
		h213.3c2.9,0,5.6,1.5,7.2,4l102.4,162.1c1.7,2.6,1.8,6,0.3,8.7C1134.4,510.3,1131.6,512,1128.5,512z M903.2,494.9H1113l-91.6-145.1
		H826.9L903.2,494.9z"/>
	<path class="st3" d="M812.7,512c-4.7,0-8.5-3.8-8.5-8.5V341.3c0-4.7,3.8-8.5,8.5-8.5s8.5,3.8,8.5,8.5v162.1
		C821.3,508.1,817.4,512,812.7,512z"/>
	<path class="st3" d="M1060.2,477.8h-128c-3.1,0-6-1.7-7.5-4.4l-51.2-93.9c-1.4-2.6-1.4-5.9,0.2-8.4c1.5-2.6,4.3-4.2,7.3-4.2h119.5
		c2.9,0,5.6,1.5,7.2,3.9l59.7,93.9c1.7,2.6,1.8,6,0.3,8.7C1066.2,476.1,1063.3,477.8,1060.2,477.8z M937.3,460.8h107.4L995.8,384
		H895.4L937.3,460.8z"/>
	<path class="st3" d="M812.7,264.5c-4.7,0-8.5-3.8-8.5-8.5c0-9.4-7.7-17.1-17.1-17.1c-4.7,0-8.5-3.8-8.5-8.5s3.8-8.5,8.5-8.5
		c9.1,0,17.3,3.6,23.5,9.4c8.7-15.8,25.5-26.4,44.8-26.4c4.7,0,8.5,3.8,8.5,8.5s-3.8,8.5-8.5,8.5c-18.8,0-34.1,15.3-34.1,34.1
		C821.3,260.7,817.4,264.5,812.7,264.5z"/>
	<path class="st3" d="M932.2,153.6h-85.3c-18.8,0-34.1-15.3-34.1-34.1c0-20,17.7-36.1,37.6-33.9c6.6-15.3,21.9-25.8,39.2-25.8
		c17.2,0,32.6,10.4,39.2,25.8c19.9-2.1,37.6,14,37.6,33.9C966.3,138.2,951,153.6,932.2,153.6z M846.9,102.4
		c-9.4,0-17.1,7.7-17.1,17.1c0,9.4,7.7,17.1,17.1,17.1h85.3c9.4,0,17.1-7.7,17.1-17.1c0-11.4-11.6-20.4-23.2-15.9
		c-2.3,0.9-5,0.8-7.2-0.5c-2.2-1.2-3.8-3.3-4.3-5.8c-2.4-11.9-12.9-20.5-25.1-20.5c-12.2,0-22.7,8.6-25.1,20.5
		c-0.5,2.5-2.1,4.6-4.3,5.8c-2.2,1.2-4.8,1.4-7.2,0.5C850.9,102.8,848.9,102.4,846.9,102.4z"/>
	<path class="st3" d="M735.9,119.4c-30.9,0-56.4-23.1-59.4-53.8c-0.3-3,1-5.9,3.5-7.7c2.4-1.8,5.6-2.1,8.4-1
		c4.3,1.8,8.8,2.8,13.4,2.8c18.8,0,34.1-15.3,34.1-34.1c0-4.6-0.9-9.2-2.8-13.4c-1.2-2.8-0.8-6,1-8.4c1.8-2.4,4.7-3.7,7.7-3.5
		c30.7,3,53.8,28.6,53.8,59.4C795.7,92.6,768.9,119.4,735.9,119.4z M696.7,76.5c6.5,15.4,21.7,25.9,39.3,25.9
		c23.5,0,42.7-19.1,42.7-42.7c0-17.6-10.5-32.7-25.9-39.3c0.2,1.7,0.3,3.4,0.3,5.1c0,28.2-23,51.2-51.2,51.2
		C700.1,76.8,698.4,76.7,696.7,76.5z"/>
</g>
</svg>
