<?xml version="1.0" encoding="iso-8859-1"?>
<!-- Generator: Adobe Illustrator 19.0.0, SVG Export Plug-In . SVG Version: 6.00 Build 0)  -->
<svg version="1.1" id="Capa_1" xmlns="http://www.w3.org/2000/svg" xmlns:xlink="http://www.w3.org/1999/xlink" x="0px" y="0px"
	 viewBox="0 0 512 512" style="enable-background:new 0 0 512 512;" xml:space="preserve">
<g>
	<rect x="8.533" y="128" style="fill:#E7ECED;" width="42.667" height="34.133"/>
	<rect x="68.267" y="128" style="fill:#E7ECED;" width="51.2" height="34.133"/>
	<rect x="136.533" y="128" style="fill:#E7ECED;" width="238.933" height="34.133"/>
	<rect x="392.533" y="128" style="fill:#E7ECED;" width="51.2" height="34.133"/>
	<rect x="460.8" y="128" style="fill:#E7ECED;" width="42.667" height="34.133"/>
</g>
<g>
	<rect x="110.933" y="418.133" style="fill:#839594;" width="34.133" height="34.133"/>
	<rect x="366.933" y="418.133" style="fill:#839594;" width="34.133" height="34.133"/>
</g>
<path style="fill:#28384C;" d="M59.733,230.4L59.733,230.4c-9.429,0-17.067-7.637-17.067-17.067V76.8
	c0-9.429,7.637-17.067,17.067-17.067l0,0c9.429,0,17.067,7.637,17.067,17.067v136.533C76.8,222.763,69.163,230.4,59.733,230.4z"/>
<g>
	<path style="fill:#839594;" d="M128,204.8L128,204.8c-9.429,0-17.067-7.637-17.067-17.067V93.867h34.133v93.867
		C145.067,197.163,137.429,204.8,128,204.8z"/>
	<path style="fill:#839594;" d="M384,204.8L384,204.8c-9.429,0-17.067-7.637-17.067-17.067V93.867h34.133v93.867
		C401.067,197.163,393.429,204.8,384,204.8z"/>
</g>
<path style="fill:#28384C;" d="M452.267,59.733L452.267,59.733c9.429,0,17.067,7.637,17.067,17.067v136.533
	c0,9.429-7.637,17.067-17.067,17.067l0,0c-9.429,0-17.067-7.637-17.067-17.067V76.8C435.2,67.371,442.837,59.733,452.267,59.733z"/>
<path style="fill:#7383BF;" d="M326.844,349.867H185.156c-8.004,0-14.49-6.485-14.49-14.49V296.09c0-8.004,6.485-14.49,14.49-14.49
	h141.688c8.004,0,14.49,6.485,14.49,14.49v39.287C341.333,343.381,334.848,349.867,326.844,349.867z"/>
<g>
	<path style="fill:#4D007E;" d="M503.467,460.8h-34.133c-4.71,0-8.533-3.823-8.533-8.533s3.823-8.533,8.533-8.533h34.133
		c4.71,0,8.533,3.823,8.533,8.533S508.177,460.8,503.467,460.8z"/>
	<path style="fill:#4D007E;" d="M162.133,460.8H8.533c-4.71,0-8.533-3.823-8.533-8.533s3.823-8.533,8.533-8.533h153.6
		c4.71,0,8.533,3.823,8.533,8.533S166.844,460.8,162.133,460.8z"/>
	<path style="fill:#4D007E;" d="M418.133,460.8h-68.267c-4.71,0-8.533-3.823-8.533-8.533s3.823-8.533,8.533-8.533h68.267
		c4.71,0,8.533,3.823,8.533,8.533S422.844,460.8,418.133,460.8z"/>
	<path style="fill:#4D007E;" d="M145.067,460.8h-34.133c-4.71,0-8.533-3.823-8.533-8.533v-34.133c0-4.71,3.823-8.533,8.533-8.533
		h34.133c4.71,0,8.533,3.823,8.533,8.533v34.133C153.6,456.977,149.777,460.8,145.067,460.8z M119.467,443.733h17.067v-17.067
		h-17.067V443.733z"/>
	<path style="fill:#4D007E;" d="M59.733,238.933c-14.114,0-25.6-11.486-25.6-25.6V76.8c0-14.114,11.486-25.6,25.6-25.6
		s25.6,11.486,25.6,25.6v136.533C85.333,227.447,73.847,238.933,59.733,238.933z M59.733,68.267c-4.71,0-8.533,3.831-8.533,8.533
		v136.533c0,4.702,3.823,8.533,8.533,8.533s8.533-3.831,8.533-8.533V76.8C68.267,72.098,64.444,68.267,59.733,68.267z"/>
	<path style="fill:#4D007E;" d="M128,213.333c-14.114,0-25.6-11.486-25.6-25.6V93.867c0-4.71,3.823-8.533,8.533-8.533h34.133
		c4.71,0,8.533,3.823,8.533,8.533v93.867C153.6,201.847,142.114,213.333,128,213.333z M119.467,102.4v85.333
		c0,4.702,3.823,8.533,8.533,8.533c4.71,0,8.533-3.831,8.533-8.533V102.4H119.467z"/>
	<path style="fill:#4D007E;" d="M384,213.333c-14.114,0-25.6-11.486-25.6-25.6V93.867c0-4.71,3.823-8.533,8.533-8.533h34.133
		c4.71,0,8.533,3.823,8.533,8.533v93.867C409.6,201.847,398.114,213.333,384,213.333z M375.467,102.4v85.333
		c0,4.702,3.823,8.533,8.533,8.533s8.533-3.831,8.533-8.533V102.4H375.467z"/>
	<path style="fill:#4D007E;" d="M110.933,170.667H76.8c-4.71,0-8.533-3.823-8.533-8.533V128c0-4.71,3.823-8.533,8.533-8.533h34.133
		c4.71,0,8.533,3.823,8.533,8.533v34.133C119.467,166.844,115.644,170.667,110.933,170.667z M85.333,153.6H102.4v-17.067H85.333
		V153.6z"/>
	<path style="fill:#4D007E;" d="M435.2,170.667h-34.133c-4.71,0-8.533-3.823-8.533-8.533V128c0-4.71,3.823-8.533,8.533-8.533H435.2
		c4.71,0,8.533,3.823,8.533,8.533v34.133C443.733,166.844,439.91,170.667,435.2,170.667z M409.6,153.6h17.067v-17.067H409.6V153.6z"
		/>
	<path style="fill:#4D007E;" d="M366.933,170.667H145.067c-4.71,0-8.533-3.823-8.533-8.533V128c0-4.71,3.823-8.533,8.533-8.533
		h221.867c4.71,0,8.533,3.823,8.533,8.533v34.133C375.467,166.844,371.644,170.667,366.933,170.667z M153.6,153.6h204.8v-17.067
		H153.6V153.6z"/>
	<path style="fill:#4D007E;" d="M452.267,238.933c-14.114,0-25.6-11.486-25.6-25.6V76.8c0-14.114,11.486-25.6,25.6-25.6
		s25.6,11.486,25.6,25.6v136.533C477.867,227.447,466.381,238.933,452.267,238.933z M452.267,68.267
		c-4.71,0-8.533,3.831-8.533,8.533v136.533c0,4.702,3.823,8.533,8.533,8.533s8.533-3.831,8.533-8.533V76.8
		C460.8,72.098,456.977,68.267,452.267,68.267z"/>
	<path style="fill:#4D007E;" d="M503.467,170.667h-34.133c-4.71,0-8.533-3.823-8.533-8.533V128c0-4.71,3.823-8.533,8.533-8.533
		h34.133c4.71,0,8.533,3.823,8.533,8.533v34.133C512,166.844,508.177,170.667,503.467,170.667z M477.867,153.6h17.067v-17.067
		h-17.067V153.6z"/>
	<path style="fill:#4D007E;" d="M42.667,170.667H8.533c-4.71,0-8.533-3.823-8.533-8.533V128c0-4.71,3.823-8.533,8.533-8.533h34.133
		c4.71,0,8.533,3.823,8.533,8.533v34.133C51.2,166.844,47.377,170.667,42.667,170.667z M17.067,153.6h17.067v-17.067H17.067V153.6z"
		/>
	<path style="fill:#4D007E;" d="M128,426.667c-4.71,0-8.533-3.823-8.533-8.533V204.8c0-4.71,3.823-8.533,8.533-8.533
		c4.71,0,8.533,3.823,8.533,8.533v213.333C136.533,422.844,132.71,426.667,128,426.667z"/>
	<path style="fill:#4D007E;" d="M401.067,460.8h-34.133c-4.71,0-8.533-3.823-8.533-8.533v-34.133c0-4.71,3.823-8.533,8.533-8.533
		h34.133c4.71,0,8.533,3.823,8.533,8.533v34.133C409.6,456.977,405.777,460.8,401.067,460.8z M375.467,443.733h17.067v-17.067
		h-17.067V443.733z"/>
	<path style="fill:#4D007E;" d="M384,426.667c-4.71,0-8.533-3.823-8.533-8.533V204.8c0-4.71,3.823-8.533,8.533-8.533
		s8.533,3.823,8.533,8.533v213.333C392.533,422.844,388.71,426.667,384,426.667z"/>
	<path style="fill:#4D007E;" d="M326.844,358.4H185.156c-12.698,0-23.023-10.325-23.023-23.023V296.09
		c0-12.698,10.325-23.023,23.023-23.023h141.688c12.698,0,23.023,10.325,23.023,23.023v39.287
		C349.867,348.075,339.541,358.4,326.844,358.4z M185.156,290.133c-3.285,0-5.956,2.671-5.956,5.956v39.287
		c0,3.285,2.671,5.956,5.956,5.956h141.688c3.285,0,5.956-2.671,5.956-5.956V296.09c0-3.285-2.671-5.956-5.956-5.956H185.156z"/>
	<path style="fill:#4D007E;" d="M196.267,460.8c-4.71,0-8.533-3.823-8.533-8.533v-102.4c0-4.71,3.823-8.533,8.533-8.533
		s8.533,3.823,8.533,8.533v102.4C204.8,456.977,200.977,460.8,196.267,460.8z"/>
	<path style="fill:#4D007E;" d="M315.733,460.8c-4.71,0-8.533-3.823-8.533-8.533v-102.4c0-4.71,3.823-8.533,8.533-8.533
		c4.71,0,8.533,3.823,8.533,8.533v102.4C324.267,456.977,320.444,460.8,315.733,460.8z"/>
	<path style="fill:#4D007E;" d="M341.333,324.267h-25.6c-4.71,0-8.533-3.823-8.533-8.533c0-4.71,3.823-8.533,8.533-8.533h25.6
		c4.71,0,8.533,3.823,8.533,8.533C349.867,320.444,346.044,324.267,341.333,324.267z"/>
	<path style="fill:#4D007E;" d="M281.6,324.267H170.667c-4.71,0-8.533-3.823-8.533-8.533c0-4.71,3.823-8.533,8.533-8.533H281.6
		c4.71,0,8.533,3.823,8.533,8.533C290.133,320.444,286.31,324.267,281.6,324.267z"/>
</g>
<g>
</g>
<g>
</g>
<g>
</g>
<g>
</g>
<g>
</g>
<g>
</g>
<g>
</g>
<g>
</g>
<g>
</g>
<g>
</g>
<g>
</g>
<g>
</g>
<g>
</g>
<g>
</g>
<g>
</g>
</svg>
