<?xml version="1.0" encoding="iso-8859-1"?>
<!-- Generator: Adobe Illustrator 19.0.0, SVG Export Plug-In . SVG Version: 6.00 Build 0)  -->
<svg version="1.1" id="Capa_1" xmlns="http://www.w3.org/2000/svg" xmlns:xlink="http://www.w3.org/1999/xlink" x="0px" y="0px"
	 viewBox="0 0 512 512" style="enable-background:new 0 0 512 512;" xml:space="preserve">
<rect x="8.533" y="384" style="fill:#E7ECED;" width="494.933" height="51.2"/>
<g>
	<rect x="435.2" y="435.2" style="fill:#AFB6BB;" width="34.133" height="34.133"/>
	<rect x="42.667" y="435.2" style="fill:#AFB6BB;" width="34.133" height="34.133"/>
</g>
<path style="fill:#7383BF;" d="M256,110.933h110.933c28.279,0,51.2-22.921,51.2-51.2l0,0c0-28.279-22.921-51.2-51.2-51.2H256
	H119.467c-14.14,0-25.6,11.46-25.6,25.6s11.46,25.6,25.6,25.6c-14.14,0-25.6,11.46-25.6,25.6s11.46,25.6,25.6,25.6H256z"/>
<path style="fill:#556080;" d="M273.067,68.267h-153.6c-4.71,0-8.533-3.814-8.533-8.533s3.823-8.533,8.533-8.533h153.6
	c4.71,0,8.533,3.814,8.533,8.533S277.777,68.267,273.067,68.267z"/>
<path style="fill:#61B872;" d="M256,315.733h110.933c28.279,0,51.2-22.921,51.2-51.2l0,0c0-28.279-22.921-51.2-51.2-51.2H256
	H119.467c-14.14,0-25.6,11.46-25.6,25.6c0,14.14,11.46,25.6,25.6,25.6c-14.14,0-25.6,11.46-25.6,25.6c0,14.14,11.46,25.6,25.6,25.6
	H256z"/>
<path style="fill:#ED8A19;" d="M256,110.933H145.067c-28.279,0-51.2,22.921-51.2,51.2l0,0c0,28.279,22.921,51.2,51.2,51.2H256
	h136.533c14.14,0,25.6-11.46,25.6-25.6c0-14.14-11.46-25.6-25.6-25.6c14.14,0,25.6-11.46,25.6-25.6s-11.46-25.6-25.6-25.6H256z"/>
<path style="fill:#CB465F;" d="M418.133,384H93.867c-18.85,0-34.133-15.283-34.133-34.133l0,0c0-18.85,15.283-34.133,34.133-34.133
	h324.267c18.85,0,34.133,15.283,34.133,34.133l0,0C452.267,368.717,436.983,384,418.133,384z"/>
<g>
	<path style="fill:#4D007E;" d="M503.467,443.733H8.533c-4.71,0-8.533-3.814-8.533-8.533V384c0-4.719,3.823-8.533,8.533-8.533
		h494.933c4.719,0,8.533,3.814,8.533,8.533v51.2C512,439.919,508.186,443.733,503.467,443.733z M17.067,426.667h477.867v-34.133
		H17.067V426.667z"/>
	<path style="fill:#4D007E;" d="M469.333,477.867H435.2c-4.719,0-8.533-3.814-8.533-8.533V435.2c0-4.719,3.814-8.533,8.533-8.533
		h34.133c4.719,0,8.533,3.814,8.533,8.533v34.133C477.867,474.052,474.052,477.867,469.333,477.867z M443.733,460.8H460.8v-17.067
		h-17.067V460.8z"/>
	<path style="fill:#4D007E;" d="M452.267,512c-4.719,0-8.533-3.814-8.533-8.533v-34.133c0-4.719,3.814-8.533,8.533-8.533
		c4.719,0,8.533,3.814,8.533,8.533v34.133C460.8,508.186,456.986,512,452.267,512z"/>
	<path style="fill:#4D007E;" d="M469.333,512H435.2c-4.719,0-8.533-3.814-8.533-8.533c0-4.719,3.814-8.533,8.533-8.533h34.133
		c4.719,0,8.533,3.814,8.533,8.533C477.867,508.186,474.052,512,469.333,512z"/>
	<path style="fill:#4D007E;" d="M76.8,477.867H42.667c-4.71,0-8.533-3.814-8.533-8.533V435.2c0-4.719,3.823-8.533,8.533-8.533H76.8
		c4.71,0,8.533,3.814,8.533,8.533v34.133C85.333,474.052,81.51,477.867,76.8,477.867z M51.2,460.8h17.067v-17.067H51.2V460.8z"/>
	<path style="fill:#4D007E;" d="M59.733,512c-4.71,0-8.533-3.814-8.533-8.533v-34.133c0-4.719,3.823-8.533,8.533-8.533
		s8.533,3.814,8.533,8.533v34.133C68.267,508.186,64.444,512,59.733,512z"/>
	<path style="fill:#4D007E;" d="M76.8,512H42.667c-4.71,0-8.533-3.814-8.533-8.533c0-4.719,3.823-8.533,8.533-8.533H76.8
		c4.71,0,8.533,3.814,8.533,8.533C85.333,508.186,81.51,512,76.8,512z"/>
	<path style="fill:#4D007E;" d="M366.933,119.467H119.467c-18.825,0-34.133-15.309-34.133-34.133c0-10.18,4.48-19.345,11.58-25.6
		c-7.1-6.255-11.58-15.42-11.58-25.6C85.333,15.309,100.642,0,119.467,0h247.467c32.93,0,59.733,26.795,59.733,59.733
		S399.863,119.467,366.933,119.467z M119.467,68.267c-9.412,0-17.067,7.654-17.067,17.067s7.654,17.067,17.067,17.067h247.467
		c23.526,0,42.667-19.14,42.667-42.667s-19.14-42.667-42.667-42.667H119.467c-9.412,0-17.067,7.654-17.067,17.067
		S110.054,51.2,119.467,51.2c4.71,0,8.533,3.823,8.533,8.533S124.177,68.267,119.467,68.267z"/>
	<path style="fill:#4D007E;" d="M273.067,68.267h-153.6c-4.71,0-8.533-3.823-8.533-8.533s3.823-8.533,8.533-8.533h153.6
		c4.719,0,8.533,3.823,8.533,8.533S277.786,68.267,273.067,68.267z"/>
	<path style="fill:#4D007E;" d="M366.933,85.333h-25.6c-4.719,0-8.533-3.823-8.533-8.533s3.814-8.533,8.533-8.533h25.6
		c4.71,0,8.533-3.831,8.533-8.533s-3.823-8.533-8.533-8.533h-25.6c-4.719,0-8.533-3.823-8.533-8.533s3.814-8.533,8.533-8.533h25.6
		c14.114,0,25.6,11.486,25.6,25.6S381.047,85.333,366.933,85.333z"/>
	<path style="fill:#4D007E;" d="M366.933,324.267H119.467c-18.825,0-34.133-15.309-34.133-34.133c0-10.18,4.48-19.345,11.58-25.6
		c-7.1-6.255-11.58-15.42-11.58-25.6c0-18.825,15.309-34.133,34.133-34.133h247.467c32.93,0,59.733,26.795,59.733,59.733
		C426.667,297.464,399.863,324.267,366.933,324.267z M119.467,273.067c-9.412,0-17.067,7.654-17.067,17.067
		c0,9.412,7.654,17.067,17.067,17.067h247.467c23.526,0,42.667-19.14,42.667-42.667s-19.14-42.667-42.667-42.667H119.467
		c-9.412,0-17.067,7.654-17.067,17.067c0,9.412,7.654,17.067,17.067,17.067c4.71,0,8.533,3.814,8.533,8.533
		S124.177,273.067,119.467,273.067z"/>
	<path style="fill:#4D007E;" d="M273.067,273.067h-153.6c-4.71,0-8.533-3.814-8.533-8.533s3.823-8.533,8.533-8.533h153.6
		c4.719,0,8.533,3.814,8.533,8.533S277.786,273.067,273.067,273.067z"/>
	<path style="fill:#4D007E;" d="M366.933,290.133h-25.6c-4.719,0-8.533-3.814-8.533-8.533c0-4.719,3.814-8.533,8.533-8.533h25.6
		c4.71,0,8.533-3.823,8.533-8.533c0-4.71-3.823-8.533-8.533-8.533h-25.6c-4.719,0-8.533-3.823-8.533-8.533s3.814-8.533,8.533-8.533
		h25.6c14.114,0,25.6,11.486,25.6,25.6C392.533,278.647,381.047,290.133,366.933,290.133z"/>
	<path style="fill:#4D007E;" d="M392.533,221.867H145.067c-32.939,0-59.733-26.795-59.733-59.733s26.795-59.733,59.733-59.733
		h247.467c18.825,0,34.133,15.309,34.133,34.133c0,10.18-4.48,19.345-11.58,25.6c7.1,6.255,11.58,15.42,11.58,25.6
		C426.667,206.558,411.358,221.867,392.533,221.867z M145.067,119.467c-23.526,0-42.667,19.14-42.667,42.667
		s19.14,42.667,42.667,42.667h247.467c9.412,0,17.067-7.654,17.067-17.067c0-9.412-7.654-17.067-17.067-17.067
		c-4.719,0-8.533-3.823-8.533-8.533s3.814-8.533,8.533-8.533c9.412,0,17.067-7.654,17.067-17.067s-7.654-17.067-17.067-17.067
		H145.067z"/>
	<path style="fill:#4D007E;" d="M392.533,170.667h-153.6c-4.71,0-8.533-3.823-8.533-8.533s3.823-8.533,8.533-8.533h153.6
		c4.719,0,8.533,3.823,8.533,8.533S397.252,170.667,392.533,170.667z"/>
	<path style="fill:#4D007E;" d="M170.667,187.733h-25.6c-14.114,0-25.6-11.486-25.6-25.6c0-14.114,11.486-25.6,25.6-25.6h25.6
		c4.71,0,8.533,3.823,8.533,8.533c0,4.71-3.823,8.533-8.533,8.533h-25.6c-4.702,0-8.533,3.831-8.533,8.533s3.831,8.533,8.533,8.533
		h25.6c4.71,0,8.533,3.823,8.533,8.533S175.377,187.733,170.667,187.733z"/>
	<path style="fill:#4D007E;" d="M418.133,392.533H93.867c-23.526,0-42.667-19.14-42.667-42.667c0-23.526,19.14-42.667,42.667-42.667
		h324.267c23.526,0,42.667,19.14,42.667,42.667C460.8,373.393,441.66,392.533,418.133,392.533z M93.867,324.267
		c-14.114,0-25.6,11.486-25.6,25.6c0,14.114,11.486,25.6,25.6,25.6h324.267c14.114,0,25.6-11.486,25.6-25.6
		c0-14.114-11.486-25.6-25.6-25.6H93.867z"/>
	<path style="fill:#4D007E;" d="M418.133,358.4H93.867c-4.71,0-8.533-3.814-8.533-8.533c0-4.719,3.823-8.533,8.533-8.533h324.267
		c4.719,0,8.533,3.814,8.533,8.533C426.667,354.586,422.852,358.4,418.133,358.4z"/>
</g>
<g>
</g>
<g>
</g>
<g>
</g>
<g>
</g>
<g>
</g>
<g>
</g>
<g>
</g>
<g>
</g>
<g>
</g>
<g>
</g>
<g>
</g>
<g>
</g>
<g>
</g>
<g>
</g>
<g>
</g>
</svg>
