<?xml version="1.0" encoding="utf-8"?>
<!-- Generator: Adobe Illustrator 24.0.0, SVG Export Plug-In . SVG Version: 6.00 Build 0)  -->
<svg version="1.1" id="Capa_1" xmlns="http://www.w3.org/2000/svg" xmlns:xlink="http://www.w3.org/1999/xlink" x="0px" y="0px"
	 viewBox="0 0 512 512" style="enable-background:new 0 0 512 512;" xml:space="preserve">
<style type="text/css">
	.st0{fill:#1081E0;}
	.st1{fill:#FFFFFF;}
	.st2{fill:#4D007E;}
	.st3{fill:#7383BF;}
	.st4{fill:#28384C;}
	.st5{fill:#556080;}
	.st6{fill:#153F6D;}
	.st7{fill:#EBBA16;}
	.st8{fill:#DD352E;}
</style>
<rect x="316.1" y="275.5" class="st0" width="108.2" height="157.4"/>
<rect x="355.5" y="305" class="st1" width="39.4" height="49.2"/>
<path class="st2" d="M424.4,442.8H326c-5.4,0-9.8-4.4-9.8-9.8V275.5c0-5.4,4.4-9.8,9.8-9.8h98.4c5.4,0,9.8,4.4,9.8,9.8V433
	C434.2,438.4,429.8,442.8,424.4,442.8z M335.8,423.1h78.7V285.4h-78.7V423.1z"/>
<path class="st2" d="M394.8,364.1h-39.4c-5.4,0-9.8-4.4-9.8-9.8V305c0-5.4,4.4-9.8,9.8-9.8h39.4c5.4,0,9.8,4.4,9.8,9.8v49.2
	C404.7,359.7,400.3,364.1,394.8,364.1z M365.3,344.4H385v-29.5h-19.7V344.4z"/>
<path class="st2" d="M385,402.3h-19.7c-5.4,0-9.8-4.4-9.8-9.8s4.4-9.8,9.8-9.8H385c5.4,0,9.8,4.4,9.8,9.8
	C394.8,397.9,390.4,402.3,385,402.3z"/>
<g>
	<rect x="29.5" y="68.3" class="st3" width="39.4" height="393.6"/>
	<rect x="442.8" y="68.3" class="st3" width="39.4" height="393.6"/>
</g>
<path class="st4" d="M357.8,353.6H121.6v-79.7c0-15.7,12.8-28.5,28.5-28.5h179.1c15.7,0,28.5,12.8,28.5,28.5L357.8,353.6
	L357.8,353.6z"/>
<g>
	<rect x="9.8" y="452" class="st5" width="492.3" height="39.4"/>
	<rect x="9.8" y="38.7" class="st5" width="492" height="39.4"/>
</g>
<path class="st6" d="M367.6,383.1H111.8c-10.9,0-19.7-8.8-19.7-19.7l0,0c0-10.9,8.8-19.7,19.7-19.7h255.8c10.9,0,19.7,8.8,19.7,19.7
	l0,0C387.3,374.3,378.5,383.1,367.6,383.1z"/>
<rect x="127.9" y="117.5" class="st7" width="98.4" height="78.7"/>
<rect x="285.4" y="117.5" class="st8" width="98.4" height="78.7"/>
<path class="st2" d="M502.2,501.2H9.8c-5.4,0-9.8-4.4-9.8-9.8V452c0-5.4,4.4-9.8,9.8-9.8h492.3c5.4,0,9.8,4.4,9.8,9.8v39.4
	C512,496.8,507.6,501.2,502.2,501.2z M19.7,481.6h472.6v-19.7H19.7V481.6z"/>
<path class="st2" d="M68.9,461.9H29.5c-5.4,0-9.8-4.4-9.8-9.8V78.1c0-5.4,4.4-9.8,9.8-9.8h39.4c5.4,0,9.8,4.4,9.8,9.8V452
	C78.7,457.5,74.3,461.9,68.9,461.9z M39.4,442.2H59V87.9H39.4V442.2z"/>
<path class="st2" d="M482.2,461.9h-39.4c-5.4,0-9.8-4.4-9.8-9.8V78.1c0-5.4,4.4-9.8,9.8-9.8h39.4c5.4,0,9.8,4.4,9.8,9.8V452
	C492,457.5,487.6,461.9,482.2,461.9z M452.7,442.2h19.7V87.9h-19.7L452.7,442.2L452.7,442.2z"/>
<path class="st2" d="M501.9,87.9H9.8c-5.4,0-9.8-4.4-9.8-9.8V38.7c0-5.4,4.4-9.8,9.8-9.8h492c5.4,0,9.8,4.4,9.8,9.8v39.4
	C511.7,83.5,507.3,87.9,501.9,87.9z M19.7,68.3H492V48.6H19.7L19.7,68.3L19.7,68.3z"/>
<path class="st2" d="M121.6,461.9c-5.4,0-9.8-4.4-9.8-9.8v-68.9c0-5.4,4.4-9.8,9.8-9.8c5.4,0,9.8,4.4,9.8,9.8V452
	C131.5,457.5,127.1,461.9,121.6,461.9z"/>
<path class="st2" d="M357.8,461.9c-5.4,0-9.8-4.4-9.8-9.8v-68.9c0-5.4,4.4-9.8,9.8-9.8c5.4,0,9.8,4.4,9.8,9.8V452
	C367.6,457.5,363.2,461.9,357.8,461.9z"/>
<path class="st2" d="M367.6,393H111.8c-16.3,0-29.5-13.2-29.5-29.5s13.2-29.5,29.5-29.5h255.8c16.3,0,29.5,13.2,29.5,29.5
	S383.9,393,367.6,393z M111.8,353.6c-5.4,0-9.8,4.4-9.8,9.8c0,5.4,4.4,9.8,9.8,9.8h255.8c5.4,0,9.8-4.4,9.8-9.8
	c0-5.4-4.4-9.8-9.8-9.8H111.8z"/>
<path class="st2" d="M357.8,353.6H121.6c-5.4,0-9.8-4.4-9.8-9.8v-69.9c0-21.1,17.2-38.3,38.3-38.3h179.1c21.1,0,38.4,17.2,38.4,38.3
	v69.9C367.6,349.2,363.2,353.6,357.8,353.6z M131.5,333.9h216.5v-60.1c0-10.3-8.4-18.7-18.7-18.7H150.1c-10.3,0-18.7,8.4-18.7,18.7
	V333.9z"/>
<path class="st2" d="M226.3,206h-98.4c-5.4,0-9.8-4.4-9.8-9.8v-78.7c0-5.4,4.4-9.8,9.8-9.8h98.4c5.4,0,9.8,4.4,9.8,9.8v78.7
	C236.2,201.6,231.8,206,226.3,206z M137.8,186.3h78.7v-59h-78.7C137.8,127.3,137.8,186.3,137.8,186.3z"/>
<path class="st2" d="M383.8,206h-98.4c-5.4,0-9.8-4.4-9.8-9.8v-78.7c0-5.4,4.4-9.8,9.8-9.8h98.4c5.4,0,9.8,4.4,9.8,9.8v78.7
	C393.6,201.6,389.2,206,383.8,206z M295.2,186.3h78.7v-59h-78.7V186.3z"/>
<path class="st2" d="M187,166.7h-19.7c-5.4,0-9.8-4.4-9.8-9.8c0-5.4,4.4-9.8,9.8-9.8H187c5.4,0,9.8,4.4,9.8,9.8
	C196.8,162.3,192.4,166.7,187,166.7z"/>
<path class="st2" d="M344.4,166.7h-19.7c-5.4,0-9.8-4.4-9.8-9.8c0-5.4,4.4-9.8,9.8-9.8h19.7c5.4,0,9.8,4.4,9.8,9.8
	C354.2,162.3,349.8,166.7,344.4,166.7z"/>
<path class="st2" d="M318.4,304.4h-19.7c-5.4,0-9.8-4.4-9.8-9.8c0-5.4,4.4-9.8,9.8-9.8h19.7c5.4,0,9.8,4.4,9.8,9.8
	C328.3,300,323.9,304.4,318.4,304.4z"/>
<path class="st2" d="M180.7,304.4H161c-5.4,0-9.8-4.4-9.8-9.8c0-5.4,4.4-9.8,9.8-9.8h19.7c5.4,0,9.8,4.4,9.8,9.8
	C190.5,300,186.1,304.4,180.7,304.4z"/>
<path class="st2" d="M249.5,304.4h-19.7c-5.4,0-9.8-4.4-9.8-9.8c0-5.4,4.4-9.8,9.8-9.8h19.7c5.4,0,9.8,4.4,9.8,9.8
	C259.4,300,255,304.4,249.5,304.4z"/>
</svg>
