<?xml version="1.0" encoding="utf-8"?>
<!-- Generator: Adobe Illustrator 24.0.0, SVG Export Plug-In . SVG Version: 6.00 Build 0)  -->
<svg version="1.1" id="레이어_1" xmlns="http://www.w3.org/2000/svg" xmlns:xlink="http://www.w3.org/1999/xlink" x="0px"
	 y="0px" viewBox="0 0 512 512" style="enable-background:new 0 0 512 512;" xml:space="preserve">
<style type="text/css">
	.st0{fill:#EFCE4A;}
	.st1{fill:#61B872;}
	.st2{fill:#366DB6;}
	.st3{fill:#1F436D;}
	.st4{fill:#4D007E;stroke:#4D007E;stroke-width:3;stroke-miterlimit:10;}
	.st5{fill:#E7ECED;}
	.st6{fill:#4D007E;}
</style>
<path class="st0" d="M387,309.6v182.3c0,5.9-4.8,10.7-10.7,10.7H132.7c-5.9,0-10.7-4.8-10.7-10.7V309.6L44,287
	c-6.9-2-11.3-8.8-10.1-15.9l13.6-87c2.2-14.1,11.7-26,25-31.3l103-40.9h161l57,22.6l27.8,11l18.2,7.2c13.3,5.3,22.8,17.2,25,31.3
	l13.6,87c1.1,7.1-3.2,13.9-10.1,15.9L387,309.6z"/>
<path class="st1" d="M367,255.9c-13.9,3.9-23.5,16.5-23.5,31v205.1c0,5.9-4.8,10.7-10.7,10.7h43.4c5.9,0,10.7-4.8,10.7-10.7V250.4
	L367,255.9z"/>
<path class="st1" d="M478.1,271.1l-13.6-87c-2.2-14.1-11.7-26-25-31.3l-18.2-7.2l-27.8-11l-57-22.6h-43.4l57,22.6l27.8,11l18.2,7.2
	c13.3,5.3,22.8,17.2,25,31.3l13.6,87c1.1,7.1-3.2,13.9-10.1,15.9L387,297.5v12.1l81-22.6C474.9,285,479.2,278.2,478.1,271.1z"/>
<g>
	<path class="st2" d="M475.1,254.4l-85,23.4v33.5l77.9-24.5c7.2-2.3,11.6-9.6,10.1-17L475.1,254.4z"/>
	<path class="st2" d="M37,254.4l85,23.4v33.5l-77.9-24.5c-7.2-2.3-11.6-9.6-10.1-17L37,254.4z"/>
	<path class="st0" d="M375.8,502.7H133.1c-6.2,0-11.2-5-11.2-11.2v-30.4h265v30.4C387,497.7,382,502.7,375.8,502.7z"/>
</g>
<path class="st3" d="M254.5,158.6l64.3-70.1H190.2L254.5,158.6z"/>
<path class="st2" d="M190.2,88.4l64.3,70.1L228,174.6l-55.6-66.5L190.2,88.4z"/>
<path class="st2" d="M318.7,88.4l-64.3,70.1l26.4,16.1l55.6-66.5L318.7,88.4z"/>
<path class="st4" d="M114.5,361.6c0,4.1,3.3,7.4,7.4,7.4c4.1,0,7.4-3.3,7.4-7.4c0-24.6,0-100.9,0-124.8c0-4.1-3.3-7.4-7.4-7.4
	c-4.1,0-7.4,3.3-7.4,7.4V268l-69.6-19.2l9.9-63.6c1.8-11.5,9.6-21.3,20.4-25.5l98-38.9l49.1,58.7c2.4,2.8,6.4,3.5,9.6,1.6l15.1-9.2
	v79.7c0,4.1,3.3,7.4,7.4,7.4c4.1,0,7.4-3.3,7.4-7.4v-79.7L277,181c3.1,1.9,7.2,1.3,9.6-1.6l49.8-59.6c56.4,22.2,54.4,22.1,57.1,22.1
	c8.2,0,10.3-11.4,2.7-14.4l-52.5-20.8c-0.3-1.3-0.8-2.5-1.8-3.5c-19-21.1-17.8-19.8-18.3-20.2c-3.7-3.3-2.8-1.3-60.3-1.9v-7.5
	c16.4-3.4,28.8-18,28.8-35.4c0-20-16.2-36.2-36.2-36.2c-20,0-36.2,16.2-36.2,36.2c0,4.1,3.3,7.4,7.4,7.4s7.4-3.3,7.4-7.4
	c0-11.8,9.6-21.3,21.3-21.3c11.8,0,21.3,9.6,21.3,21.3s-9.6,21.3-21.3,21.3c-4.1,0-7.4,3.3-7.4,7.4V81c-59.3,0-59.5-1.1-62.9,1.5
	c-0.9,0.7,0-0.2-18.7,20.6c-1.2,1.4-1.9,3.1-1.9,4.8l-95.3,37.8c-15.7,6.2-27,20.4-29.6,37.1l-13.6,87c-1.7,10.8,4.9,21.2,15.4,24.2
	l72.6,21V361.6z M254.5,147.5l-26.7-29.1L256,96.5l26.4,20.5C272.3,128.1,260.1,141.4,254.5,147.5z M279.3,164.9l-13.2-8
	c11.9-13,42.1-45.9,52.6-57.4l7.9,8.8L279.3,164.9z M292.5,106l-13.1-10.2h22.4L292.5,106z M232.6,95.9l-14.9,11.6l-10.6-11.6H232.6
	z M190.2,99.5c12.8,14,44.2,48.2,52.6,57.4l-13.2,8l-47.3-56.6L190.2,99.5z M46.1,279.8c-3.3-1-5.4-4.2-4.9-7.6l1.3-8.6l72,19.8
	v16.3L46.1,279.8z"/>
<path class="st4" d="M485.5,269.9l-13.6-87c-2.6-16.7-14-30.9-29.6-37.1l-18.2-7.2c-3.8-1.5-8.1,0.4-9.7,4.2
	c-1.5,3.8,0.3,8.1,4.2,9.7l18.2,7.2c10.8,4.3,18.6,14.1,20.4,25.5l9.9,63.6l-72.7,20v-32.1c0-4.1-3.3-7.4-7.4-7.4
	c-4.1,0-7.4,3.3-7.4,7.4v216.9H129.4v-64.3c0-4.1-3.3-7.4-7.4-7.4c-4.1,0-7.4,3.3-7.4,7.4v102.6c0,10,8.2,18.2,18.2,18.2h243.5
	c10,0,18.2-8.2,18.2-18.2V316.1l75.7-21.9C480.5,291.1,487.2,280.7,485.5,269.9z M133.1,495.2c-2.1,0-3.7-1.7-3.7-3.7v-22.9h250.1
	v22.9c0,2.1-1.7,3.7-3.7,3.7L133.1,495.2L133.1,495.2z M465.9,279.8l-71.5,20.7v-16.3l75-20.6l1.3,8.6
	C471.3,275.6,469.2,278.9,465.9,279.8z"/>
<path class="st1" d="M632.8,454.6c-28.3,0-51.2-22.9-51.2-51.2V207.1c0-28.3,22.9-51.2,51.2-51.2c28.3,0,51.2,22.9,51.2,51.2v196.3
	C684,431.7,661.1,454.6,632.8,454.6z"/>
<path class="st1" d="M999.8,326.6c-28.3,0-51.2-22.9-51.2-51.2V79.1c0-28.3,22.9-51.2,51.2-51.2c28.3,0,51.2,22.9,51.2,51.2v196.3
	C1051,303.7,1028,326.6,999.8,326.6z"/>
<path class="st3" d="M760.8,360.7l-85.3,162.1h196.3L760.8,360.7z"/>
<path class="st2" d="M1076.6,522.9H846.2l-85.3-162.1h213.3L1076.6,522.9z"/>
<path class="st3" d="M1008.3,488.7h-128l-51.2-93.9h119.5L1008.3,488.7z"/>
<path class="st5" d="M880.3,113.3c-3.3,0-6.3,0.7-9.2,1.8c-3.1-15.6-16.9-27.4-33.4-27.4c-16.5,0-30.3,11.8-33.5,27.4
	c-2.9-1.1-6-1.8-9.2-1.8c-14.1,0-25.6,11.5-25.6,25.6c0,14.1,11.5,25.6,25.6,25.6h85.3c14.1,0,25.6-11.5,25.6-25.6
	C905.9,124.7,894.4,113.3,880.3,113.3z"/>
<path class="st0" d="M689.1,28.2c2.2,5.2,3.5,10.8,3.5,16.8c0,23.6-19.1,42.7-42.7,42.7c-6,0-11.6-1.2-16.8-3.5
	c2.6,25.9,24.4,46.1,50.9,46.1c28.3,0,51.2-22.9,51.2-51.2C735.2,52.6,715,30.7,689.1,28.2z"/>
<g>
	<path class="st6" d="M632.8,386.3c-2.2,0-4.4-0.8-6-2.5c-3.3-3.3-3.3-8.7,0-12.1l17.1-17.1c3.3-3.3,8.7-3.3,12.1,0
		c3.3,3.3,3.3,8.7,0,12.1l-17.1,17.1C637.2,385.5,635,386.3,632.8,386.3z"/>
	<path class="st6" d="M632.8,283.9c-2.2,0-4.4-0.8-6-2.5c-3.3-3.3-3.3-8.7,0-12.1l17.1-17.1c3.3-3.3,8.7-3.3,12.1,0
		c3.3,3.3,3.3,8.7,0,12.1l-17.1,17.1C637.2,283.1,635,283.9,632.8,283.9z"/>
	<path class="st6" d="M632.8,429c-2.2,0-4.4-0.8-6-2.5l-17.1-17.1c-3.3-3.3-3.3-8.7,0-12.1c3.3-3.3,8.7-3.3,12.1,0l17.1,17.1
		c3.3,3.3,3.3,8.7,0,12.1C637.2,428.2,635,429,632.8,429z"/>
	<path class="st6" d="M632.8,531.4c-4.7,0-8.5-3.8-8.5-8.5V207.1c0-4.7,3.8-8.5,8.5-8.5s8.5,3.8,8.5,8.5v315.7
		C641.4,527.6,637.5,531.4,632.8,531.4z"/>
	<path class="st6" d="M632.8,463.1c-32.9,0-59.7-26.8-59.7-59.7V207.1c0-32.9,26.8-59.7,59.7-59.7c32.9,0,59.7,26.8,59.7,59.7v196.3
		C692.6,436.3,665.8,463.1,632.8,463.1z M632.8,164.5c-23.5,0-42.7,19.1-42.7,42.7v196.3c0,23.5,19.1,42.7,42.7,42.7
		c23.5,0,42.7-19.1,42.7-42.7V207.1C675.5,183.6,656.3,164.5,632.8,164.5z"/>
	<path class="st6" d="M632.8,326.6c-2.2,0-4.4-0.8-6-2.5L609.7,307c-3.3-3.3-3.3-8.7,0-12.1c3.3-3.3,8.7-3.3,12.1,0l17.1,17.1
		c3.3,3.3,3.3,8.7,0,12.1C637.2,325.8,635,326.6,632.8,326.6z"/>
	<path class="st6" d="M999.8,258.3c-2.2,0-4.4-0.8-6-2.5c-3.3-3.3-3.3-8.7,0-12.1l17.1-17.1c3.3-3.3,8.7-3.3,12.1,0
		c3.3,3.3,3.3,8.7,0,12.1l-17.1,17.1C1004.1,257.5,1001.9,258.3,999.8,258.3z"/>
	<path class="st6" d="M999.8,155.9c-2.2,0-4.4-0.8-6-2.5c-3.3-3.3-3.3-8.7,0-12.1l17.1-17.1c3.3-3.3,8.7-3.3,12.1,0
		c3.3,3.3,3.3,8.7,0,12.1l-17.1,17.1C1004.1,155.1,1001.9,155.9,999.8,155.9z"/>
	<path class="st6" d="M999.8,301c-2.2,0-4.4-0.8-6-2.5l-17.1-17.1c-3.3-3.3-3.3-8.7,0-12.1c3.3-3.3,8.7-3.3,12.1,0l17.1,17.1
		c3.3,3.3,3.3,8.7,0,12.1C1004.1,300.2,1001.9,301,999.8,301z"/>
	<path class="st6" d="M999.8,409.8c-4.7,0-8.5-3.8-8.5-8.5V79.1c0-4.7,3.8-8.5,8.5-8.5s8.5,3.8,8.5,8.5v322.1
		C1008.3,406,1004.5,409.8,999.8,409.8z"/>
	<path class="st6" d="M999.8,335.1c-32.9,0-59.7-26.8-59.7-59.7V79.1c0-32.9,26.8-59.7,59.7-59.7c32.9,0,59.7,26.8,59.7,59.7v196.3
		C1059.5,308.3,1032.7,335.1,999.8,335.1z M999.8,36.5c-23.5,0-42.7,19.1-42.7,42.7v196.3c0,23.5,19.1,42.7,42.7,42.7
		c23.5,0,42.7-19.1,42.7-42.7V79.1C1042.4,55.6,1023.3,36.5,999.8,36.5z"/>
	<path class="st6" d="M999.8,198.6c-2.2,0-4.4-0.8-6-2.5L976.7,179c-3.3-3.3-3.3-8.7,0-12.1c3.3-3.3,8.7-3.3,12.1,0l17.1,17.1
		c3.3,3.3,3.3,8.7,0,12.1C1004.1,197.8,1001.9,198.6,999.8,198.6z"/>
	<path class="st6" d="M846.2,531.4H675.5c-3,0-5.8-1.6-7.3-4.1c-1.5-2.6-1.6-5.7-0.2-8.4l85.3-162.1c3-5.6,12.2-5.6,15.1,0
		l85.3,162.1c1.4,2.6,1.3,5.8-0.2,8.4S849.1,531.4,846.2,531.4z M689.6,514.3H832l-71.2-135.3L689.6,514.3z"/>
	<path class="st6" d="M1076.6,531.4H846.2c-3.2,0-6.1-1.8-7.6-4.6l-85.3-162.1c-1.4-2.6-1.3-5.8,0.3-8.4c1.5-2.6,4.3-4.1,7.3-4.1
		h213.3c2.9,0,5.6,1.5,7.2,4l102.4,162.1c1.7,2.6,1.8,6,0.3,8.7C1082.5,529.7,1079.7,531.4,1076.6,531.4z M851.3,514.3h209.8
		l-91.6-145.1H774.9L851.3,514.3z"/>
	<path class="st6" d="M760.8,531.4c-4.7,0-8.5-3.8-8.5-8.5V360.7c0-4.7,3.8-8.5,8.5-8.5s8.5,3.8,8.5,8.5v162.1
		C769.4,527.6,765.5,531.4,760.8,531.4z"/>
	<path class="st6" d="M1008.3,497.3h-128c-3.1,0-6-1.7-7.5-4.4L821.6,399c-1.4-2.6-1.4-5.9,0.2-8.4c1.5-2.6,4.3-4.2,7.3-4.2h119.5
		c2.9,0,5.6,1.5,7.2,3.9l59.7,93.9c1.7,2.6,1.8,6,0.3,8.7C1014.3,495.6,1011.4,497.3,1008.3,497.3z M885.4,480.2h107.4l-48.9-76.8
		H843.5L885.4,480.2z"/>
	<path class="st6" d="M760.8,283.9c-4.7,0-8.5-3.8-8.5-8.5c0-9.4-7.7-17.1-17.1-17.1c-4.7,0-8.5-3.8-8.5-8.5s3.8-8.5,8.5-8.5
		c9.1,0,17.3,3.6,23.5,9.4c8.7-15.8,25.5-26.4,44.8-26.4c4.7,0,8.5,3.8,8.5,8.5s-3.8,8.5-8.5,8.5c-18.8,0-34.1,15.3-34.1,34.1
		C769.4,280.1,765.5,283.9,760.8,283.9z"/>
	<path class="st6" d="M880.3,173H795c-18.8,0-34.1-15.3-34.1-34.1c0-20,17.7-36.1,37.6-33.9c6.6-15.3,21.9-25.8,39.2-25.8
		c17.2,0,32.6,10.4,39.2,25.8c19.9-2.1,37.6,14,37.6,33.9C914.4,157.7,899.1,173,880.3,173z M795,121.8c-9.4,0-17.1,7.7-17.1,17.1
		c0,9.4,7.7,17.1,17.1,17.1h85.3c9.4,0,17.1-7.7,17.1-17.1c0-11.4-11.6-20.4-23.2-15.9c-2.3,0.9-5,0.8-7.2-0.5
		c-2.2-1.2-3.8-3.3-4.3-5.8c-2.4-11.9-12.9-20.5-25.1-20.5c-12.2,0-22.7,8.6-25.1,20.5c-0.5,2.5-2.1,4.6-4.3,5.8
		c-2.2,1.2-4.8,1.4-7.2,0.5C799,122.2,797,121.8,795,121.8z"/>
	<path class="st6" d="M684,138.9c-30.9,0-56.4-23.1-59.4-53.8c-0.3-3,1-5.9,3.5-7.7c2.4-1.8,5.6-2.1,8.4-1c4.3,1.8,8.8,2.8,13.4,2.8
		c18.8,0,34.1-15.3,34.1-34.1c0-4.6-0.9-9.2-2.8-13.4c-1.2-2.8-0.8-6,1-8.4c1.8-2.4,4.7-3.7,7.7-3.5c30.7,3,53.8,28.6,53.8,59.4
		C743.8,112.1,717,138.9,684,138.9z M644.8,95.9c6.5,15.4,21.7,25.9,39.3,25.9c23.5,0,42.7-19.1,42.7-42.7
		c0-17.6-10.5-32.7-25.9-39.3c0.2,1.7,0.3,3.4,0.3,5.1c0,28.2-23,51.2-51.2,51.2C648.2,96.2,646.5,96.1,644.8,95.9z"/>
</g>
</svg>
